<?xml version="1.0" encoding="UTF-8"?>
<svg id="civilian" xmlns="http://www.w3.org/2000/svg" xmlns:xlink="http://www.w3.org/1999/xlink" viewBox="0 0 700 1500">
  <defs>
    <style>
      .cls-1 {
        fill: url(#linear-gradient-12);
      }

      .cls-1, .cls-2, .cls-3, .cls-4, .cls-5, .cls-6, .cls-7, .cls-8, .cls-9, .cls-10, .cls-11, .cls-12, .cls-13, .cls-14, .cls-15, .cls-16, .cls-17, .cls-18, .cls-19, .cls-20, .cls-21, .cls-22, .cls-23, .cls-24, .cls-25, .cls-26, .cls-27, .cls-28, .cls-29, .cls-30, .cls-31, .cls-32, .cls-33, .cls-34, .cls-35 {
        stroke-width: 0px;
      }

      .cls-2 {
        fill: #efe8e4;
      }

      .cls-3 {
        fill: url(#linear-gradient);
      }

      .cls-4 {
        fill: #3d2d24;
      }

      .cls-5 {
        fill: url(#linear-gradient-6);
      }

      .cls-6 {
        fill: url(#radial-gradient-8);
      }

      .cls-8 {
        fill: #1a1a1a;
      }

      .cls-9 {
        fill: url(#radial-gradient-13);
      }

      .cls-10 {
        fill: url(#radial-gradient-12);
      }

      .cls-11 {
        fill: url(#linear-gradient-11);
      }

      .cls-12 {
        fill: url(#linear-gradient-5);
      }

      .cls-13, .cls-36, .cls-37 {
        fill: none;
      }

      .cls-14 {
        fill: url(#linear-gradient-13);
      }

      .cls-15 {
        fill: url(#linear-gradient-14);
      }

      .cls-16 {
        fill: url(#linear-gradient-2);
      }

      .cls-17 {
        fill: url(#linear-gradient-7);
      }

      .cls-18 {
        fill: url(#radial-gradient-2);
      }

      .cls-19 {
        fill: url(#radial-gradient-7);
      }

      .cls-20 {
        fill: url(#linear-gradient-3);
      }

      .cls-21 {
        fill: url(#radial-gradient-5);
      }

      .cls-22 {
        fill: url(#linear-gradient-9);
      }

      .cls-23 {
        fill: url(#radial-gradient);
      }

      .cls-36 {
        stroke: #3d2d24;
        stroke-width: 4.93px;
      }

      .cls-36, .cls-37 {
        stroke-linecap: round;
        stroke-miterlimit: 10;
      }

      .cls-24 {
        fill: url(#radial-gradient-14);
      }

      .cls-25 {
        fill: url(#linear-gradient-8);
      }

      .cls-26 {
        fill: url(#radial-gradient-10);
      }

      .cls-27 {
        fill: #3d302b;
      }

      .cls-37 {
        stroke: #3d302b;
        stroke-width: 5px;
      }

      .cls-28 {
        fill: url(#radial-gradient-6);
      }

      .cls-29 {
        fill: url(#linear-gradient-10);
      }

      .cls-30 {
        fill: url(#radial-gradient-15);
      }

      .cls-31 {
        fill: url(#radial-gradient-9);
      }

      .cls-32 {
        fill: url(#radial-gradient-3);
      }

      .cls-33 {
        fill: url(#radial-gradient-11);
      }

      .cls-34 {
        fill: url(#linear-gradient-4);
      }

      .cls-38 {
        opacity: .25;
      }

      .cls-35 {
        fill: url(#radial-gradient-4);
      }
    </style>
    <clipPath id="clippath">
      <rect class="cls-13" x="-3102.5" y="38.38" width="1920" height="1080"/>
    </clipPath>
    <radialGradient id="radial-gradient" cx="317.23" cy="866.45" fx="317.23" fy="866.45" r="225.54" gradientTransform="translate(0 -784.72) scale(1 1.91)" gradientUnits="userSpaceOnUse">
      <stop offset="0" stop-color="#776d5c"/>
      <stop offset="1" stop-color="#563d2c"/>
    </radialGradient>
    <linearGradient id="linear-gradient" x1="529.96" y1="915.88" x2="529.96" y2="1210.77" gradientUnits="userSpaceOnUse">
      <stop offset="0" stop-color="#655250" stop-opacity="0"/>
      <stop offset=".11" stop-color="#584440" stop-opacity=".33"/>
      <stop offset=".24" stop-color="#4d3932" stop-opacity=".63"/>
      <stop offset=".4" stop-color="#453128" stop-opacity=".84"/>
      <stop offset=".6" stop-color="#402c22" stop-opacity=".96"/>
      <stop offset="1" stop-color="#3f2b21"/>
    </linearGradient>
    <linearGradient id="linear-gradient-2" x1="367.61" y1="870.86" x2="420.32" y2="1294.12" gradientUnits="userSpaceOnUse">
      <stop offset="0" stop-color="#655250" stop-opacity="0"/>
      <stop offset=".11" stop-color="#584440" stop-opacity=".33"/>
      <stop offset=".24" stop-color="#4d3932" stop-opacity=".63"/>
      <stop offset=".4" stop-color="#453128" stop-opacity=".84"/>
      <stop offset=".6" stop-color="#402c22" stop-opacity=".96"/>
      <stop offset="1" stop-color="#3f2b21"/>
    </linearGradient>
    <linearGradient id="linear-gradient-3" x1="155.09" y1="892.46" x2="130.35" y2="1242.65" gradientUnits="userSpaceOnUse">
      <stop offset="0" stop-color="#655250" stop-opacity="0"/>
      <stop offset=".11" stop-color="#584440" stop-opacity=".33"/>
      <stop offset=".24" stop-color="#4d3932" stop-opacity=".63"/>
      <stop offset=".4" stop-color="#453128" stop-opacity=".84"/>
      <stop offset=".6" stop-color="#402c22" stop-opacity=".96"/>
      <stop offset="1" stop-color="#3f2b21"/>
    </linearGradient>
    <linearGradient id="linear-gradient-4" x1="327.1" y1="802.86" x2="327.1" y2="935.72" gradientUnits="userSpaceOnUse">
      <stop offset="0" stop-color="#3f2b21" stop-opacity=".6"/>
      <stop offset=".55" stop-color="#402c23" stop-opacity=".57"/>
      <stop offset=".74" stop-color="#47332b" stop-opacity=".46"/>
      <stop offset=".88" stop-color="#53403a" stop-opacity=".28"/>
      <stop offset="1" stop-color="#64514f" stop-opacity=".01"/>
      <stop offset="1" stop-color="#655250" stop-opacity="0"/>
    </linearGradient>
    <linearGradient id="linear-gradient-5" x1="145.97" y1="627.57" x2="513.93" y2="627.57" xlink:href="#linear-gradient-4"/>
    <linearGradient id="linear-gradient-6" x1="306.99" y1="864.32" x2="384.92" y2="909.31" gradientUnits="userSpaceOnUse">
      <stop offset="0" stop-color="#c5996c"/>
      <stop offset=".24" stop-color="#c09368"/>
      <stop offset=".54" stop-color="#b4845c"/>
      <stop offset=".86" stop-color="#a06c4a"/>
      <stop offset="1" stop-color="#965f40"/>
    </linearGradient>
    <radialGradient id="radial-gradient-2" cx="338.25" cy="345.02" fx="338.25" fy="345.02" r="170.93" gradientUnits="userSpaceOnUse">
      <stop offset=".32" stop-color="#c5996c"/>
      <stop offset=".48" stop-color="#c09367"/>
      <stop offset=".69" stop-color="#b4845c"/>
      <stop offset=".91" stop-color="#9f6b49"/>
      <stop offset="1" stop-color="#965f40"/>
    </radialGradient>
    <radialGradient id="radial-gradient-3" cx="419.76" cy="345.23" fx="419.76" fy="345.23" r="41.23" gradientUnits="userSpaceOnUse">
      <stop offset="0" stop-color="#fff"/>
      <stop offset=".26" stop-color="#f9f9f9"/>
      <stop offset=".58" stop-color="#eaeaea"/>
      <stop offset=".93" stop-color="#d2d2d2"/>
      <stop offset="1" stop-color="#ccc"/>
    </radialGradient>
    <linearGradient id="linear-gradient-7" x1="419.76" y1="371.4" x2="419.76" y2="311.08" gradientUnits="userSpaceOnUse">
      <stop offset="0" stop-color="#fff" stop-opacity=".2"/>
      <stop offset=".35" stop-color="#d4cac5" stop-opacity=".42"/>
      <stop offset=".99" stop-color="#64412c" stop-opacity=".99"/>
      <stop offset="1" stop-color="#623f29"/>
    </linearGradient>
    <radialGradient id="radial-gradient-4" cx="257.56" cy="342.81" fx="257.56" fy="342.81" r="47.07" xlink:href="#radial-gradient-3"/>
    <linearGradient id="linear-gradient-8" x1="257.56" y1="369.78" x2="257.56" y2="310.25" gradientUnits="userSpaceOnUse">
      <stop offset="0" stop-color="#fff" stop-opacity=".2"/>
      <stop offset=".6" stop-color="#967f70" stop-opacity=".73"/>
      <stop offset="1" stop-color="#623f29"/>
    </linearGradient>
    <radialGradient id="radial-gradient-5" cx="243.41" cy="353.47" fx="243.41" fy="353.47" r="22.75" gradientUnits="userSpaceOnUse">
      <stop offset="0" stop-color="#603f21"/>
      <stop offset=".63" stop-color="#421f12"/>
      <stop offset="1" stop-color="#37130d"/>
    </radialGradient>
    <radialGradient id="radial-gradient-6" cx="416.08" cy="351.26" fx="416.08" fy="351.26" r="21.69" xlink:href="#radial-gradient-5"/>
    <radialGradient id="radial-gradient-7" cx="243.18" cy="329.43" fx="243.18" fy="329.43" r="24.82" gradientUnits="userSpaceOnUse">
      <stop offset="0" stop-color="#311510"/>
      <stop offset=".5" stop-color="#1f0b09"/>
      <stop offset="1" stop-color="#130505"/>
    </radialGradient>
    <radialGradient id="radial-gradient-8" cx="414.26" cy="337.14" fx="414.26" fy="337.14" r="22.25" xlink:href="#radial-gradient-7"/>
    <radialGradient id="radial-gradient-9" cx="329.52" cy="291.45" fx="329.52" fy="291.45" r="212.94" gradientTransform="translate(0 -41.74) scale(1 1.14)" gradientUnits="userSpaceOnUse">
      <stop offset=".31" stop-color="#ad987b"/>
      <stop offset=".44" stop-color="#a79276"/>
      <stop offset=".61" stop-color="#99836a"/>
      <stop offset=".79" stop-color="#816956"/>
      <stop offset=".99" stop-color="#5f463b"/>
      <stop offset="1" stop-color="#5e453a"/>
    </radialGradient>
    <radialGradient id="radial-gradient-10" cx="333.96" cy="573.76" fx="333.96" fy="573.76" r="163.83" gradientTransform="translate(0 129.39) scale(1 .77)" gradientUnits="userSpaceOnUse">
      <stop offset=".07" stop-color="#ad987b"/>
      <stop offset=".26" stop-color="#a89276"/>
      <stop offset=".49" stop-color="#998369"/>
      <stop offset=".75" stop-color="#826a53"/>
      <stop offset="1" stop-color="#664b39"/>
    </radialGradient>
    <radialGradient id="radial-gradient-11" cx="197.53" cy="390.53" fx="197.53" fy="390.53" r="125.32" gradientTransform="translate(37.95 753.06) rotate(-126.33) scale(1 .88)" gradientUnits="userSpaceOnUse">
      <stop offset="0" stop-color="#a08a6f"/>
      <stop offset=".08" stop-color="#88715a"/>
      <stop offset=".19" stop-color="#715945"/>
      <stop offset=".3" stop-color="#614736"/>
      <stop offset=".42" stop-color="#573d2d"/>
      <stop offset=".56" stop-color="#543a2b"/>
    </radialGradient>
    <radialGradient id="radial-gradient-12" cx="415.55" cy="334.96" fx="415.55" fy="334.96" r="129.62" gradientTransform="translate(0 -77.93) scale(1 1.23)" gradientUnits="userSpaceOnUse">
      <stop offset=".39" stop-color="#a08a6f"/>
      <stop offset=".48" stop-color="#88715a"/>
      <stop offset=".59" stop-color="#715945"/>
      <stop offset=".71" stop-color="#614736"/>
      <stop offset=".84" stop-color="#573d2d"/>
      <stop offset="1" stop-color="#543a2b"/>
    </radialGradient>
    <linearGradient id="linear-gradient-9" x1="230.8" y1="340.38" x2="230.8" y2="319.38" gradientUnits="userSpaceOnUse">
      <stop offset="0" stop-color="#fff" stop-opacity="0"/>
      <stop offset=".07" stop-color="#fff" stop-opacity=".1"/>
      <stop offset=".27" stop-color="#fff" stop-opacity=".37"/>
      <stop offset=".46" stop-color="#fff" stop-opacity=".59"/>
      <stop offset=".63" stop-color="#fff" stop-opacity=".77"/>
      <stop offset=".78" stop-color="#fff" stop-opacity=".9"/>
      <stop offset=".91" stop-color="#fff" stop-opacity=".97"/>
      <stop offset="1" stop-color="#fff"/>
    </linearGradient>
    <linearGradient id="linear-gradient-10" x1="401" y1="348.38" x2="401" y2="330.38" gradientUnits="userSpaceOnUse">
      <stop offset="0" stop-color="#fff" stop-opacity="0"/>
      <stop offset=".1" stop-color="#fff" stop-opacity=".15"/>
      <stop offset=".29" stop-color="#fff" stop-opacity=".4"/>
      <stop offset=".47" stop-color="#fff" stop-opacity=".62"/>
      <stop offset=".63" stop-color="#fff" stop-opacity=".78"/>
      <stop offset=".78" stop-color="#fff" stop-opacity=".9"/>
      <stop offset=".91" stop-color="#fff" stop-opacity=".97"/>
      <stop offset="1" stop-color="#fff"/>
    </linearGradient>
    <linearGradient id="linear-gradient-11" x1="234.5" y1="352.38" x2="234.5" y2="342.38" gradientUnits="userSpaceOnUse">
      <stop offset="0" stop-color="#fff" stop-opacity="0"/>
      <stop offset="1" stop-color="#fff"/>
    </linearGradient>
    <linearGradient id="linear-gradient-12" x1="409.5" y1="355.37" x2="409.5" y2="347.38" xlink:href="#linear-gradient-11"/>
    <radialGradient id="radial-gradient-13" cx="331.61" cy="569.48" fx="331.61" fy="569.48" r="114.65" gradientTransform="translate(0 -81.56) scale(1 1.14)" gradientUnits="userSpaceOnUse">
      <stop offset="0" stop-color="#a08a6f"/>
      <stop offset=".54" stop-color="#755c48"/>
      <stop offset="1" stop-color="#543a2b"/>
    </radialGradient>
    <radialGradient id="radial-gradient-14" cx="325.16" cy="526.92" fx="325.16" fy="526.92" r="91.99" gradientTransform="translate(0 -75.46) scale(1 1.14)" xlink:href="#radial-gradient-13"/>
    <radialGradient id="radial-gradient-15" cx="335.88" cy="260.47" fx="335.88" fy="267.96" r="261.02" gradientTransform="translate(350.38 666.71) rotate(-126.33) scale(1 .88)" gradientUnits="userSpaceOnUse">
      <stop offset="0" stop-color="#a08a6f"/>
      <stop offset=".87" stop-color="#543a2b"/>
    </radialGradient>
    <linearGradient id="linear-gradient-13" x1="344.56" y1="465.18" x2="344.56" y2="453.93" gradientUnits="userSpaceOnUse">
      <stop offset="0" stop-color="#fff" stop-opacity=".2"/>
      <stop offset=".29" stop-color="#e1dbd7" stop-opacity=".35"/>
      <stop offset=".76" stop-color="#937b6c" stop-opacity=".75"/>
      <stop offset="1" stop-color="#623f29"/>
    </linearGradient>
    <linearGradient id="linear-gradient-14" x1="348.54" y1="424.59" x2="348.54" y2="415.1" gradientUnits="userSpaceOnUse">
      <stop offset="0" stop-color="#c5996c"/>
      <stop offset=".15" stop-color="#b98a61"/>
      <stop offset=".47" stop-color="#a5724e"/>
      <stop offset=".76" stop-color="#9a6443"/>
      <stop offset="1" stop-color="#965f40"/>
    </linearGradient>
  </defs>
  <g id="Layer_30" data-name="Layer 30" class="cls-38">
    <path class="cls-7" d="m615.98,1193.04c.29.56-.13.99-.46,1.2-.05.03-.09.05-.13.07-4.43,2.16-8.36,4.36-11.92,6.61-.89.56-1.76,1.13-2.61,1.7-7.64,5.12-13.66,10.49-19.8,16.15-1.36,1.26-2.74,2.53-4.13,3.82-.54.5-1.07,1.01-1.59,1.52-1.03,1.02-2.01,2.07-2.96,3.15-.24.27-.47.54-.7.82-.46.55-.92,1.11-1.37,1.69-2.02,2.59-3.91,5.42-5.84,8.65-.64,1.08-1.29,2.2-1.95,3.38-.44.78-.88,1.59-1.33,2.42-2.03,3.73-4.18,7.95-6.64,12.82-.19.38-.38.77-.57,1.16-.06.13-.12.25-.18.38-.13.27-.25.53-.38.8-.08.17-.15.34-.23.5-.11.23-.21.47-.32.7-.09.19-.17.39-.26.58-.09.21-.19.43-.28.64-.09.22-.18.44-.28.66-.08.2-.16.39-.24.59-.1.24-.19.48-.29.73-.07.18-.14.36-.21.54-.1.26-.2.52-.3.79-.06.17-.12.33-.18.5-.1.28-.21.57-.31.85-.05.15-.1.3-.16.45-.1.3-.21.61-.31.92-.04.13-.09.26-.13.39-.11.33-.21.66-.32,1-.03.1-.06.2-.09.3-.11.37-.22.74-.33,1.11-.01.05-.03.1-.04.14-.49,1.71-.92,3.47-1.29,5.29-.02.11-.04.21-.07.31-.06.31-.12.62-.17.92-.04.21-.08.42-.12.63-.1.61-.2,1.23-.3,1.85.53.1,1.04.21,1.53.31.35.07.7.14,1.04.21.13.03.26.05.4.08,1.13.23,2.19.45,3.18.67.14.03.28.06.42.09.26.06.51.11.75.16.23.05.46.1.69.15.17.04.35.08.51.11.37.08.73.17,1.09.25.04,0,.07.02.1.02.08.02.16.04.24.06.31.07.62.15.92.22.13.03.26.06.39.09.24.06.47.12.7.17.14.03.27.07.41.1.22.05.43.11.64.16.12.03.25.06.37.09.29.07.56.15.83.22.12.03.24.07.36.1.18.05.37.1.54.15.13.04.26.07.39.11.14.04.28.08.41.12.13.04.26.08.39.11.12.04.24.07.36.11.13.04.25.08.37.11.11.03.22.07.33.1.23.07.46.15.67.22.08.03.16.05.24.08.12.04.24.08.35.12.08.03.16.05.23.08.12.04.23.08.34.12.07.02.14.05.2.07.11.04.23.08.34.12.06.02.11.04.17.06.41.15.79.3,1.15.45.02,0,.04.02.06.02.12.05.24.1.35.15.03.01.05.02.08.03.12.05.24.1.35.15,0,0,.02,0,.03.01,1.2.51,2.28,1.02,3.61,1.58.04.02.08.03.12.05.13.05.26.11.39.16.05.02.11.04.16.07.13.05.26.11.4.16.05.02.1.04.15.06.19.07.38.15.58.22,1.68.63,3.41,1.45,5.19,2.46.3.17.59.34.89.52,5.24,3.11,10.91,7.81,17.08,14.07,2.64,2.68,5.38,5.65,8.21,8.91,2.88,3.31,5.06,5.97,6.18,8.29,1.04,2.13,1.19,3.97.18,5.75-.34.59-.8,1.18-1.41,1.77-.15.15-.31.29-.48.44-.34.3-.71.59-1.12.89-.22.16-.43.31-.64.45-.07.05-.14.1-.22.15-.19.13-.37.25-.56.37-.06.04-.13.08-.19.12-.17.11-.34.21-.51.32-.08.05-.15.09-.23.13-.2.12-.41.24-.62.35-.05.03-.11.06-.17.09-.17.09-.34.18-.52.26-.08.04-.16.08-.25.12-.04.02-.07.04-.11.05,0,0,0,0,0,0-.33.16-.68.31-1.03.45-.06.03-.12.05-.18.08-.36.15-.74.29-1.13.42.16,0,.3,0,.45.01.06,0,.11,0,.17,0,.13,0,.26.01.39.02.09,0,.17,0,.26.01.11,0,.23.01.33.02.09,0,.18.01.26.02.15.01.29.03.42.04.09.01.18.02.27.03.07,0,.13.02.19.03.08.01.15.03.22.04.05,0,.1.02.14.03.11.03.2.05.28.08.11.04.2.08.28.13.03.02.05.04.08.06.04.03.08.06.11.09.02.02.04.05.05.07.02.03.04.06.05.09.01.03.01.05.02.08,0,.03,0,.07,0,.1,0,.03,0,.05-.02.08,0,.04-.02.07-.04.11-.01.03-.03.06-.05.08-.03.04-.06.08-.09.12-.02.03-.05.06-.08.09-.04.04-.09.09-.15.13-.03.03-.06.06-.1.09,0,0-.01.01-.02.02-.01.01-.04.02-.05.03-.13.1-.29.21-.47.31-.03.02-.05.03-.08.05-.21.12-.44.25-.69.38-.02,0-.04.02-.05.03-.26.13-.55.27-.87.41,0,0,0,0,0,0-.33.14-.68.29-1.05.44,0,0-.02,0-.02,0-.75.3-1.6.61-2.52.93,0,0-.02,0-.02,0-.92.31-1.91.63-2.97.96-.03,0-.06.02-.1.03-1.03.31-2.12.63-3.26.94-.07.02-.14.04-.21.06-.56.15-1.13.31-1.71.46-.03,0-.07.02-.1.03-.54.14-1.08.28-1.63.42-.1.03-.21.05-.31.08-.57.14-1.14.28-1.73.42-.1.02-.2.05-.3.07-.52.12-1.04.25-1.57.37-.1.02-.21.05-.31.07-.59.13-1.19.27-1.79.4-.11.02-.21.05-.32.07-.58.13-1.17.25-1.75.37-.03,0-.05.01-.08.02-.02,0-.04,0-.06.01l.45.03c-.19,0-.39,0-.59,0h0c-.41.09-.82.17-1.23.25.15.06.3.11.44.17.04.01.07.03.1.04.09.04.18.07.26.11.1.04.2.09.29.13.08.04.15.07.21.11.09.04.17.09.24.13.06.03.12.07.17.1.07.04.14.09.2.13.05.03.09.06.13.1.06.04.11.09.16.13.03.03.07.06.1.09.05.05.09.09.12.13.02.03.05.06.07.08.03.05.06.09.09.14.01.03.03.05.04.07.02.05.04.09.06.14,0,.02.02.04.02.06.01.05.02.09.03.14,0,.02,0,.04,0,.05,0,.05,0,.1,0,.14,0,.01,0,.03,0,.04,0,.05-.02.1-.03.15,0,0,0,.02,0,.03-.02.05-.03.11-.06.16,0,0,0,0,0,0-.09.22-.22.4-.31.55-.04.06-.08.12-.14.19-.03.03-.06.06-.09.09-.03.03-.06.06-.09.1-.04.04-.09.07-.13.11-.03.03-.06.06-.1.08-.05.04-.11.08-.17.12-.04.03-.07.05-.11.08-.06.04-.14.08-.21.12-.04.02-.08.05-.13.07-.08.04-.16.08-.24.13-.05.02-.09.05-.14.07-.09.04-.18.09-.28.13-.05.02-.1.05-.16.07-.1.04-.21.09-.31.13-.06.02-.12.05-.18.07-.11.04-.23.09-.35.13-.06.02-.13.05-.19.07-.12.04-.25.09-.38.13-.07.02-.14.05-.22.07-.13.04-.28.09-.42.13-.08.02-.15.05-.23.07-.15.04-.3.09-.45.13-.09.02-.17.05-.26.07-.16.04-.32.09-.48.13-.09.02-.19.05-.28.07-.17.04-.34.09-.52.13-.1.02-.2.05-.3.07-.18.04-.37.09-.56.13-.11.02-.21.05-.32.07-.19.04-.39.09-.59.13-.11.02-.23.05-.34.07-.21.04-.42.09-.63.13-.12.02-.24.05-.36.07-.22.04-.44.09-.67.13-.13.02-.25.05-.38.07-.23.04-.47.09-.71.13-.13.02-.26.05-.4.07-.25.04-.5.09-.76.13-.14.02-.27.05-.41.07-.26.04-.53.09-.8.13-.14.02-.29.04-.43.07-.28.04-.56.09-.85.13-.14.02-.29.04-.44.06-.3.04-.6.09-.91.13-.15.02-.29.04-.44.06-.32.04-.64.09-.96.13-.15.02-.29.04-.44.06-.34.04-.69.09-1.04.13-.14.02-.28.03-.42.05-.37.04-.74.09-1.12.13-.13.01-.26.03-.4.04-.4.04-.8.09-1.21.13-.12.01-.23.02-.35.04-.44.05-.88.09-1.33.14-.09,0-.19.02-.28.03-.48.05-.97.1-1.46.14-.06,0-.12.01-.17.02-.54.05-1.08.1-1.64.15,0,0-.01,0-.02,0-1.73.15-3.55.3-5.47.43.16.07.33.14.5.21.06.03.13.05.19.08.11.05.21.09.32.14.08.04.17.07.25.11.08.04.17.07.25.11.2.09.4.18.6.27.05.02.09.04.14.06.13.06.25.12.38.18.04.02.09.04.13.06.41.19.81.39,1.21.6.05.02.1.05.14.07.11.06.22.11.32.17.08.04.16.09.24.13.06.03.13.07.19.1h0s0,0,0,0c.38.21.75.42,1.09.64.02.01.03.02.05.03.16.1.32.2.47.3,0,0,.02.01.03.02.32.21.61.43.88.65.02.02.04.03.06.05.11.09.22.18.31.28.02.02.04.03.05.05.22.21.41.42.56.63.02.03.04.05.05.08.05.08.1.16.15.24.01.03.03.05.04.08.05.1.09.2.12.3,0,0,0,.01,0,.02.03.09.04.18.05.27,0,.03,0,.06,0,.09,0,.07,0,.14-.02.21,0,.03,0,.06-.02.09-.02.09-.06.19-.11.28,0,0,0,.01-.01.02-.05.09-.11.17-.18.25-.02.03-.05.06-.08.08-.06.06-.13.13-.21.19-.03.03-.06.05-.1.08-.11.09-.24.17-.38.25.22.04.43.09.64.13,1.49.31,2.91.64,4.6,1.02.97.22,2.02.45,3.23.71,1.21.26,2.57.54,4.15.85,10.14,1.99,23.86,5.23,43.93,11.71.8.26,1.62.52,2.44.79,2.47.81,5.03,1.66,7.7,2.57,2.66.91,5.42,1.87,8.28,2.88,12.06,4.27,21.23,7.54,28.26,10.12,1.05.39,2.06.76,3.02,1.11,1.92.71,3.67,1.36,5.25,1.97,3.69,1.4,6.51,2.53,8.72,3.48.16.07.31.14.46.2.91.4,1.71.76,2.43,1.11.12.06.24.11.35.17.34.17.66.33.97.49.1.05.2.11.3.16.19.1.38.21.56.31.36.2.69.4,1,.59.15.1.3.19.45.29.07.05.14.09.21.14.16.1.29.21.44.31,7.53,4.38,19.43,13.65,11.47,23.15-.03.05-.06.09-.09.14-.14.24-.3.48-.46.71-.05.07-.1.14-.15.22-.21.3-.42.59-.66.89,0,.01-.02.03-.03.04-.22.28-.45.55-.69.82-.07.08-.13.15-.2.22-.2.23-.41.45-.63.67-.06.06-.11.12-.17.18-.28.28-.56.55-.85.82-.04.04-.08.07-.12.11-.26.23-.52.47-.78.69-.08.07-.16.14-.25.21-.26.22-.53.44-.81.66-.05.04-.1.08-.15.12-.33.26-.67.52-1.01.77-.06.05-.13.1-.2.14-.28.21-.57.41-.86.61-.09.06-.18.13-.27.19-.32.22-.65.45-.98.67-.03.02-.05.04-.08.06-.36.24-.73.48-1.11.71-.09.06-.18.11-.27.17-.29.18-.58.36-.88.54-.1.06-.2.12-.3.18-.37.22-.75.45-1.13.67-.68.39-1.36.77-2.05,1.15-6.24,3.36-13.14,6.01-19.99,8.11-5.33,1.64-10.63,2.95-15.56,4.01-1.41.3-2.79.59-4.13.85-2.69.53-5.22.99-7.54,1.38-1.16.2-2.27.38-3.32.55-.52.09-1.03.17-1.52.25-2.46.4-4.51.72-6.04,1-.31.06-.59.11-.85.16-.72.14-1.46.29-2.22.43-.07.01-.14.02-.2.04-.68.13-1.38.26-2.08.39-.12.02-.24.04-.36.06-.66.12-1.32.24-2,.35-.17.03-.34.06-.5.09-.63.11-1.26.21-1.91.32-.26.04-.53.08-.79.13-.55.09-1.11.18-1.67.27-.4.06-.81.12-1.21.19-.43.07-.85.13-1.28.2-.61.09-1.22.18-1.84.27-.22.03-.45.07-.67.1-2.21.32-4.49.62-6.85.92-.01,0-.02,0-.03,0-1.46.18-2.94.36-4.46.54,0,0,0,0,0,0-1.49.17-3.01.34-4.56.51-.08,0-.16.02-.24.03-1.52.16-3.06.32-4.63.47-.02,0-.03,0-.05,0-1.58.15-3.18.3-4.81.45-.14.01-.28.02-.42.04-1.59.14-3.21.28-4.85.41-.02,0-.03,0-.05,0-1.66.13-3.35.26-5.06.38-.19.01-.38.03-.57.04-1.68.12-3.37.23-5.1.34-.01,0-.03,0-.04,0-1.74.11-3.51.21-5.3.31-.24.01-.49.03-.73.04-1.77.1-3.55.19-5.36.27,0,0,0,0,0,0-1.82.09-3.67.17-5.53.24-.3.01-.61.02-.91.04-3.68.14-7.45.26-11.3.36-.37,0-.74.02-1.11.03-3.81.09-7.7.16-11.68.2-.45,0-.89,0-1.34.01-1.98.02-3.97.03-5.99.04-49.7.11-91.43-2.59-127.13-8.25-.71-.11-1.45-.23-2.21-.35-.25-.04-.51-.08-.77-.12-.57-.09-1.16-.19-1.77-.29-.27-.04-.54-.09-.82-.13-.84-.14-1.71-.28-2.6-.43-.19-.03-.39-.07-.59-.1-.73-.12-1.47-.25-2.24-.37-.33-.05-.65-.11-.99-.17-.72-.12-1.46-.25-2.21-.38-.29-.05-.56-.1-.85-.15-1-.17-2.03-.35-3.08-.54-.28-.05-.57-.1-.85-.15-.81-.14-1.64-.29-2.47-.44-.37-.07-.73-.13-1.1-.2-.92-.17-1.86-.34-2.81-.52-.22-.04-.43-.08-.65-.12-1.15-.21-2.32-.44-3.5-.66-.34-.06-.67-.13-1.01-.2-.91-.18-1.83-.35-2.76-.54-.37-.07-.74-.15-1.11-.22-1.24-.25-2.49-.5-3.76-.76-.02,0-.03,0-.05-.01-1.26-.26-2.53-.52-3.81-.79-.38-.08-.76-.16-1.15-.24-.99-.21-1.98-.42-2.98-.64-.36-.08-.73-.16-1.09-.24-1.32-.29-2.64-.58-3.98-.88-.23-.05-.46-.1-.68-.16-1.12-.25-2.25-.51-3.38-.78-.43-.1-.86-.2-1.29-.3-1.04-.24-2.08-.49-3.12-.74-.26-.06-.53-.12-.79-.19-.83-.18-1.66-.37-2.49-.56-21.65-4.89-34.19-9.8-38.66-11.64-16.49-6.82-22.73-13.2-25.09-18.96-.09-.17-.16-.34-.25-.51-.09-.19-.19-.38-.27-.58-.13-.31-.26-.62-.38-.93-.07-.2-.13-.4-.2-.6-.06-.17-.11-.34-.16-.52-.06-.2-.1-.4-.15-.59-.04-.18-.09-.37-.12-.55-.04-.19-.07-.38-.1-.58-.03-.2-.06-.4-.08-.6-.02-.18-.04-.36-.05-.54-.02-.23-.02-.47-.02-.7,0-.15,0-.3,0-.46,0-.39.03-.78.07-1.18.11-1.01.24-2.16.46-3.42.25-2.23.93-4.38,1.96-6.43,0-.01.01-.02.02-.03.78-1.7,1.82-3.49,3.26-5.34.05-.07.11-.13.16-.2.22-.28.45-.56.69-.85.09-.11.18-.21.27-.32.22-.25.44-.5.67-.75.11-.12.22-.24.33-.35.23-.25.48-.5.73-.75.11-.12.23-.23.35-.35.28-.28.58-.56.88-.84.09-.09.18-.17.28-.26.81-.74,1.7-1.48,2.65-2.23.13-.1.27-.2.4-.3.35-.27.71-.54,1.08-.81.17-.13.35-.25.53-.38.35-.25.71-.5,1.08-.75.2-.13.4-.27.6-.4.37-.25.76-.49,1.15-.74.21-.13.41-.26.62-.39.43-.27.88-.53,1.33-.8.19-.11.37-.22.56-.33.65-.37,1.32-.75,2.02-1.12,5.16-2.78,10.5-5.08,16.28-7.06,2.22-.76,4.51-1.48,6.88-2.16.95-.27,1.9-.54,2.88-.8,2.43-.65,4.94-1.27,7.55-1.87,3.65-.83,7.5-1.62,11.57-2.38-.26-.04-.54-.09-.84-.13-.88-.14-1.9-.31-3-.51-1.09-.2-2.26-.43-3.43-.68-.78-.17-1.57-.36-2.34-.56-.39-.1-.77-.2-1.14-.31-.75-.21-1.47-.44-2.16-.69-.68-.24-1.32-.5-1.89-.77s-1.08-.56-1.51-.86c-.21-.15-.39-.3-.55-.45-.04-.04-.08-.08-.12-.12-.1-.11-.2-.21-.28-.31-.03-.04-.06-.09-.09-.13-.06-.1-.12-.19-.16-.29-.02-.05-.04-.09-.06-.14-.03-.09-.05-.17-.07-.26,0-.03-.02-.07-.03-.1,0-.02,0-.03,0-.05-.01-.14,0-.28.02-.41,0-.03.02-.06.03-.09.03-.11.07-.21.12-.32.02-.04.04-.08.06-.12.06-.11.13-.22.21-.32.01-.01.02-.03.03-.05.1-.12.2-.23.32-.34.03-.03.06-.05.09-.08.1-.09.2-.17.3-.25.02-.02.04-.03.06-.05.13-.1.26-.19.39-.27,0,0,.02-.01.03-.02.12-.08.24-.15.35-.22.02-.01.04-.02.06-.03.12-.07.23-.13.33-.18-1.81-.09-3.94-.2-6.25-.37-.25-.02-.49-.04-.74-.05-.14-.01-.28-.02-.42-.03-.3-.02-.61-.05-.92-.07-.1,0-.19-.02-.29-.02-.41-.04-.83-.07-1.25-.11-.06,0-.11-.01-.17-.02-.36-.03-.73-.07-1.1-.11-.11-.01-.22-.02-.32-.03-.36-.04-.72-.08-1.08-.12-.07,0-.14-.02-.21-.02-.42-.05-.85-.1-1.27-.16-.1-.01-.19-.03-.29-.04-.33-.04-.66-.09-.99-.14-.13-.02-.26-.04-.39-.06-.36-.05-.71-.11-1.06-.16-.07-.01-.14-.02-.2-.03-.41-.07-.82-.14-1.22-.21-.12-.02-.24-.04-.37-.07-.3-.06-.6-.11-.9-.17-.13-.02-.25-.05-.38-.08-.4-.08-.81-.17-1.2-.26-.38-.09-.74-.17-1.08-.26-.06-.01-.12-.03-.17-.04-.33-.08-.64-.17-.94-.25-.04-.01-.07-.02-.11-.03-.28-.08-.55-.16-.8-.23-.02,0-.04-.01-.06-.02-2.08-.64-3.24-1.22-4.45-1.75-.08-.04-.16-.07-.25-.11-.04-.02-.08-.03-.12-.05-.08-.03-.16-.07-.25-.1-.04-.02-.08-.03-.12-.05-.09-.04-.18-.07-.28-.11-.03-.01-.07-.03-.1-.04-.4-.15-.84-.29-1.33-.43-.02,0-.03,0-.05-.01-.16-.04-.32-.08-.48-.13-.01,0-.03,0-.04,0-.18-.04-.37-.09-.57-.13-.25-.06-.52-.11-.81-.16-.03,0-.05,0-.08-.01-.27-.05-.55-.1-.85-.15-.02,0-.04,0-.06,0-.3-.05-.63-.09-.96-.14-.07,0-.13-.02-.2-.03-.35-.04-.7-.09-1.09-.13-.77-.09-1.51-.17-2.25-.25-.18-.02-.36-.04-.53-.06-.73-.08-1.44-.16-2.13-.25-.09-.01-.17-.02-.26-.03-5.85-.68-10.55-1.31-13.99-1.94,0,0,0,0,0,0-.32-.06-.64-.12-.94-.18-.03,0-.06-.01-.09-.02-.28-.06-.55-.11-.81-.17-.03,0-.05-.01-.08-.02-.85-.18-1.6-.37-2.24-.56-.02,0-.05-.01-.07-.02-.18-.05-.34-.11-.5-.16-.04-.01-.08-.03-.13-.04-.13-.05-.26-.09-.38-.14-.04-.02-.09-.03-.13-.05-.11-.05-.22-.09-.32-.14-.03-.02-.07-.03-.1-.05-.12-.06-.23-.11-.32-.17,0,0-.02-.01-.03-.02-.11-.06-.2-.13-.28-.19-.02-.01-.03-.03-.04-.04-.06-.05-.11-.1-.16-.15-.02-.02-.03-.04-.05-.06-.03-.04-.06-.09-.08-.13-.01-.02-.02-.05-.03-.07-.02-.05-.03-.09-.03-.14,0-.02,0-.04,0-.06,0-.05,0-.11.02-.16,0-.01,0-.02,0-.03-.8-.14-1.6-.28-2.39-.42-.66-.12-1.3-.24-1.95-.35-.15-.03-.31-.06-.46-.08-.62-.12-1.24-.23-1.85-.35-.18-.03-.37-.07-.55-.1-.6-.12-1.18-.23-1.77-.35-.1-.02-.21-.04-.32-.06-.07-.01-.14-.03-.21-.04-.73-.15-1.45-.3-2.16-.45-.21-.04-.42-.09-.63-.13-.63-.13-1.25-.27-1.86-.41-.27-.06-.54-.12-.8-.18-.56-.13-1.1-.25-1.64-.38-.28-.07-.57-.13-.85-.2-.79-.19-1.56-.38-2.32-.58-.16-.04-.31-.08-.47-.12-.63-.16-1.26-.32-1.89-.48-.47-.12-.94-.24-1.41-.35s-.94-.24-1.41-.36c-.16-.04-.31-.08-.47-.12-.78-.21-1.57-.42-2.36-.64-.16-.04-.31-.09-.47-.14-2.83-.83-5.67-1.82-8.56-3.24-.64-.31-1.29-.65-1.93-1.01-.48-.27-.97-.55-1.46-.84-.97-.59-1.96-1.24-2.94-1.95-.33-.24-.66-.48-.99-.74-.33-.25-.66-.51-1-.78-1.83-1.48-3.69-3.19-5.57-5.21-9.81-10.48-13.06-17.2-13.38-21.63,0-.14-.02-.27-.02-.41-.07-2.14.57-3.73,1.45-4.93.28-.38.58-.72.89-1.03.12-.12.25-.24.38-.36.51-.46,1.03-.84,1.51-1.17.14-.1.32-.2.51-.31.06-.03.12-.07.19-.1.15-.08.3-.15.47-.23.08-.04.16-.07.24-.11.19-.09.39-.17.6-.26.07-.03.13-.06.2-.09.29-.12.59-.24.92-.36.08-.03.17-.06.25-.09.25-.09.52-.19.79-.29.13-.05.26-.09.4-.14.25-.09.52-.18.78-.26.14-.05.28-.09.42-.14.34-.11.69-.22,1.06-.34.08-.02.15-.05.23-.07.43-.13.87-.27,1.33-.41.18-.05.36-.11.55-.16.3-.09.61-.18.92-.27.21-.06.42-.12.63-.18.32-.09.64-.18.97-.28.21-.06.41-.12.62-.18.5-.14,1-.28,1.52-.42.26-.07.52-.14.78-.21.3-.08.6-.16.9-.25.31-.09.63-.17.95-.26.12-.03.23-.06.35-.09.18-.05.38-.1.56-.15.22-.06.44-.12.67-.18,1.96-.52,4.02-1.06,6.15-1.61-1.06-.58-2.11-1.16-3.17-1.74-1.06-.58-2.12-1.16-3.18-1.73h0c-4.18-2.27-8.32-4.5-12.22-6.58-7.49-3.99-14.12-7.43-18.52-9.61-.51-.25-1.1-.53-1.77-.84-.45-.21-.93-.43-1.45-.66s-1.07-.48-1.66-.73c-.59-.26-1.21-.52-1.86-.8-.33-.14-.66-.28-1-.43-.68-.29-1.4-.59-2.15-.91-4.86-2.04-11.01-4.54-18.15-7.4-1.1-.44-2.22-.89-3.36-1.34-1.72-.68-3.48-1.39-5.29-2.11-1.21-.48-2.44-.97-3.68-1.46-4.37-1.73-8.97-3.55-13.76-5.44-1.37-.54-2.75-1.09-4.15-1.64-4.89-1.93-9.96-3.92-15.16-5.96-5.94-2.33-12.04-4.73-18.23-7.17-6.19-2.44-12.47-4.92-18.77-7.41-1.78-.7-3.54-1.39-5.3-2.05-7.03-2.66-13.87-5.04-20.18-7.16-2.37-.8-4.65-1.56-6.85-2.29-1.46-.49-2.89-.96-4.26-1.41-.69-.23-1.36-.45-2.03-.67-1.33-.44-2.61-.87-3.83-1.29-3.67-1.25-6.85-2.37-9.39-3.39-1.69-.68-3.1-1.32-4.18-1.91-1.08-.59-1.83-1.15-2.22-1.66-3.07-4.12,35.41-11.56,39.98-12.13.95-.12,1.9-.23,2.83-.34-.15-.04-.29-.07-.44-.11,20.13-2.32,35.95-2.26,61.37-3.29,4.17-.17,8.03-.37,11.6-.59.1.04.2.07.31.11.48-.03.96-.06,1.43-.09-2.05-.92-4.01-1.8-5.87-2.65-.46-.21-.92-.42-1.37-.63-.9-.41-1.78-.82-2.63-1.21-.85-.39-1.66-.78-2.45-1.15-1.18-.56-2.29-1.1-3.32-1.61-.34-.17-.68-.34-1.01-.51-.65-.33-1.27-.66-1.85-.97-.29-.16-.57-.31-.84-.46-.54-.3-1.05-.59-1.52-.87-.47-.28-.89-.55-1.27-.8-2.3-1.54-3.08-2.67-1.89-3.33,1.33-.75,2.97-1.43,4.95-2.06,4.96-1.57,12.04-2.8,21.73-3.86,1.23-.13,2.52-.26,3.83-.39,3.63-.35,7.58-.69,11.88-1.01,1.51-.11,3.05-.23,4.65-.34,3.9-.27,8.05-.53,12.48-.79,2.95-.17,6.03-.35,9.23-.52,3.2-.17,6.52-.35,9.98-.52,5.18-.26,10.65-.53,16.42-.8,3.85-.18,7.83-.37,11.95-.56,2.65-.12,7.14-.32,12.89-.55,1.15-.05,2.35-.09,3.6-.14.62-.02,1.26-.05,1.91-.07,1.94-.07,3.98-.14,6.1-.22,2.12-.07,4.32-.14,6.6-.21,1.51-.05,3.06-.09,4.63-.14.78-.02,1.58-.04,2.37-.06,3.19-.08,6.47-.16,9.8-.23.83-.02,1.67-.03,2.51-.05,3.36-.06,6.77-.12,10.19-.16.85,0,1.71-.02,2.56-.03,1.71-.02,3.42-.03,5.12-.04,1.71,0,3.41-.01,5.1-.01,2.51,0,5,.01,7.46.03,1.74.02,3.45.04,5.15.06,3.98.06,7.84.16,11.51.3.87.03,1.72.07,2.56.11,1.33.06,2.63.12,3.89.19,2.07.12,4.05.25,5.92.4,1.07.09,2.09.18,3.09.27,2.51.25,4.8.53,6.81.85,2.8.46,5.07.99,6.67,1.63.2.08.39.16.56.24.21.1.4.19.58.29.27.15.51.3.72.45.12.08.22.17.32.25.19.17.36.33.5.5.08.09.14.18.21.27.73,1.04.73,2.13,1.58,3.2,0,0,0,0,0,0,.64.8,1.75,1.58,4,2.32.7.23,1.53.46,2.48.68-.03-.27-.06-.54-.09-.8.77.25,1.68.51,2.74.75,6.56,1.5,15.07,1.77,22.44,1.94,12.25.29,21.71.29,27.89.1,5.14-.16,9.56-.31,13.51-.47,1.74-.07,3.39-.15,4.97-.22.81-.04,1.61-.08,2.39-.12,2.34-.12,4.53-.25,6.68-.38.36-.02.71-.04,1.07-.07,1.77-.11,3.52-.23,5.28-.36.35-.03.71-.05,1.06-.08.71-.05,1.43-.11,2.15-.16.36-.03.73-.06,1.09-.08,1.21-.09,2.58-.19,4.09-.28,1.01-.06,2.08-.12,3.21-.18,3.96-.2,8.65-.37,13.88-.47,4.46-.08,9.31-.11,14.43-.05.96.01,1.93.03,2.91.04,2.44.04,4.94.11,7.48.19.24,0,.49.02.73.02,1.56.05,3.14.12,4.74.19,2.21.1,4.44.22,6.7.36,3.6.22,7.24.49,10.91.81,1.94.17,3.88.36,5.82.57,1.89.2,3.65.4,5.28.6,13.1,1.6,18.46,3.14,20.47,3.89.42.16.69.28.86.36,3.84,1.88,4.07,3.79,2.12,5.85-.08.09-.17.18-.26.27-.53.52-1.2,1.05-1.98,1.59-.17.12-.34.23-.51.35-.25.17-.52.34-.79.51-.5.31-1.04.63-1.6.95-.24.14-.48.27-.73.41-.4.22-.82.45-1.24.67-.2.11-.41.22-.62.33-.7.37-1.43.74-2.18,1.13.48.01.97.02,1.45.03.03-.01.05-.02.08-.04,3.31.08,6.69.19,10.21.33,3.41.13,6.95.29,10.69.5.91.05,1.83.11,2.76.17,1.87.12,3.78.25,5.76.4,3.96.3,8.16.66,12.67,1.1.23.02.48.05.76.07.55.05,1.2.12,1.93.19,2.18.22,5.08.52,8.32.89,3.24.37,6.83.81,10.38,1.31.59.08,1.18.17,1.77.25,1.51.22,3,.45,4.44.69.5.08.99.17,1.48.25.85.15,1.69.3,2.49.45.52.1,1.03.2,1.52.3.76.16,1.47.31,2.17.47,3.81.88,6.5,1.84,7,2.83Z"/>
  </g>
  <g id="color-2" data-name="color">
    <path class="cls-23" d="m627.5,1163.46c-24.16-35.61-40.67-74.13-59.5-116.59-14.65-33.01-26.39-70.64-48-142-7.9-26.09-16.44-57.54-24.26-93.76,17.97-17.22,16.37-22.67,21.32-33.32,6.46-13.9,10.31-49.71,12.07-106.99,1.03-33.62.71-50.94-9.39-70.64-2.06-4.01-3.89-7.22-5.8-9.96t-.01,0c-.98-1.42-1.99-2.71-3.05-3.91-7.07.71-24.01-3.61-35.88-1.42-24.73,4.55-36.54,25.3-60,50-12.42,13.08-30.77,38.94-69,42-25,2-48-15-84-44-24.31-19.58-20.36-24.08-57-44-29.1-15.82-49.04-13.67-51-21-.01-.04-.02-.08-.03-.12-2.78,2.25-5.47,4.62-8,7.09-3.19,3.11-6.14,6.38-8.71,9.77-8.14,10.71-16.78,17.54-19.05,65.87-4.04,86.38,7,110.82,12.78,121.69,3.86,7.27,15.5,18.18,29.49,30.69-8.45,32.28-17.52,65-22.48,81.01-6.83,22.04-41.93,100.4-77.5,182.59-20.05,46.32-42,73-42,90s44.01,47.66,49,50c23.55,11.04,39.56,10.55,67,15,4.79.78,9.2,1.7,13.3,2.76-10.94,30.3-17.96,51.17-13.48,58.5,15.1,24.69,46.98,32.19,115.18,44.74,17.53,3.23,112.92,19.87,125-8,4.52-10.42-4.11-23.63,5-34,5.44-6.2,13.75-7.29,21-8,12.04-1.18,21.5-1.18,27.82-.4,20.18,2.5,29.77,4.65,42.18,8.4,13.66,4.13,45.39,8.57,74-5,18.55-8.8,22.32-17.85,23-20,4.71-14.92-4.09-30.44-16.76-49.71,12.32-1.09,25.03-3,41.76-10.29,6.77-2.95,37.44-16.32,36.54-31.76-.15-2.65-1.1-4.6-1.54-5.24Zm-249.81-242.73c-11,12.21-32.46,11.79-46.7,5.33-18.97-8.62-15.99-18.06-38.09-37.35,14.21-9.2,30.18-28.85,39.38-46.42,1.61-3.08,3.02-6.1,4.17-8.98,3.56,1.79,7.19,3.88,10.85,6.34,10.14,6.82,29.27,19.68,35.14,43.3.25,1,.58,2.34.92,3.94,1.75,8.3,3.62,23.52-5.67,33.84Z"/>
    <path class="cls-3" d="m588.02,1201.73c-13.98,5.85-25.15,7.92-35.75,9.04-8.4-12.22-17.03-26.18-25.27-41.9-26.57-50.65-35.81-94.02-43-129-14.36-69.91-12.71-124-11-124,1.5,0,5.73,23.73,10.84,51.22,5.12,27.5,11.12,58.74,16.16,73.78,18.34,51.64,30.87,82.05,58,121,10.42,14.96,20.55,28.3,30.02,39.86Z"/>
    <path class="cls-16" d="m462.67,1282.97c-8.46-2.12-17.46-3.72-31.81-5.5-6.32-.78-15.78-.78-27.82.4-7.25.71-15.56,1.8-21,8-.88,1-1.6,2.04-2.18,3.09-2.73-17.81-5.7-37.25-8.86-58.09-14.06-92.68-16.01-107.54-18-129-6.36-68.45-5.11-116.61-2-154,2.74-32.96,8.96-82.12,15-82,3.29.07,5.11,14.71,11,54,4.15,27.69,9.27,55.25,13,83,6.72,50.01,22.48,105.34,54,216,5.11,17.92,11.35,39.49,18.67,64.1Z"/>
    <path class="cls-20" d="m206,1024.88c-5.55,36.29-11.55,75.46-29,126-7.43,21.53-17.41,46.46-30.92,73.44-3.74-.93-7.74-1.74-12.04-2.44-26.19-4.25-41.96-3.99-63.82-13.57,23.54-28.76,40.25-55.1,51.78-75.43,13.42-23.66,42.7-79.5,60-157,13.33-59.68,13.04-103.04,19-103,5.36.04,9.58,35.14,11,56,1.44,21.09,1.39,47.72-6,96Z"/>
    <path class="cls-34" d="m497.51,819.17c-1.87,1.63-3.88,3.38-6.01,5.2-14.4,12.3-18.56,14.68-40,32-17.48,14.12-26.21,21.18-27,22-5.5,5.77-10.18,11.73-19,15-6.19,2.29-11.97,2.35-16,2,.16,2.36,1.11,21.6-13,33-10.52,8.5-23.13,7.57-31,7-4.74-.35-17.45-1.27-28-10-5.15-4.26-5.74-7.03-16-18-4.51-4.83-8.41-8.58-11-11-6.2,2.98-15.21,6.01-25,4-12.64-2.6-18.95-12.05-31-24-1.04-1.03-13.69-10.69-39-30-9.68-7.39-22.79-17.32-38.8-29.22,1.27-4.74,2.53-9.52,3.78-14.29,8.53,7.62,17.94,15.85,26.98,24.2,30.34,28.04,24.39,18.47,53.43,44.84,30.31,27.51,31.45,25.11,43.59,21.04,2.69-.9,5.52-2.34,8.42-4.23,22.1,19.29,19.12,28.73,38.09,37.35,14.24,6.46,35.7,6.88,46.7-5.33,9.29-10.32,7.42-25.54,5.67-33.84,2.75,1.04,5.36,1.72,7.76,1.95,16.87,1.64,5.58.74,68.8-47.88,16.88-12.98,28.14-22.49,35.82-29.85.59,2.71,1.18,5.4,1.77,8.06Z"/>
    <path class="cls-12" d="m513.93,590.2c-6.06-1.37-15.8-2.76-27.43-.83-10.86,1.8-18.51,5.68-23,8-7.93,4.1-14.86,9.21-23,17-15.42,14.77-14.84,19.71-30,37-12.57,14.34-21.96,24.81-38,31-11.93,4.61-22.51,4.91-27,5-3.49.07-17.08.13-33.83-6.26-9.13-3.48-17.02-8.05-32.17-19.74-23.52-18.15-28.2-25.42-53-46-15.28-12.68-23.14-19.14-34-25-18.2-9.82-35.15-13.75-46.53-15.53,2.53-2.47,5.22-4.84,8-7.09.01.04.02.08.03.12,1.96,7.33,21.9,5.18,51,21,36.64,19.92,32.69,24.42,57,44,36,29,59,46,84,44,38.23-3.06,56.58-28.92,69-42,26.65-28.07,36.14-45.05,60-50,15.35-3.19,29.38,1.12,38.93,5.33Z"/>
    <path class="cls-5" d="m377.69,920.73c-11,12.21-32.46,11.79-46.7,5.33-18.97-8.62-15.99-18.06-38.09-37.35,14.21-9.2,30.18-28.85,39.38-46.42,1.61-3.08,3.02-6.1,4.17-8.98,3.56,1.79,7.19,3.88,10.85,6.34,10.14,6.82,29.27,19.68,35.14,43.3.25,1,.58,2.34.92,3.94,1.75,8.3,3.62,23.52-5.67,33.84Z"/>
    <path class="cls-18" d="m493,326.88c-3.77,13.24-8,28-15,49s-12.65,45.8-18.33,56.4c-4.75,8.88-16.51,26.9-26.48,38.21-1.92,2.19-3.78,4.12-5.51,5.69-10.68,9.7-27.14,26.14-46.68,37.7s-20,13-34,14c-17.07,1.22-38.31-10.46-49-17-7.68-4.7-28.3-17.76-44-29-5.45-3.91-9.35-6.64-13.19-9.72-5.41-4.34-10.7-9.38-20.06-19.34-16.86-17.96-23.75-47.94-23.75-47.94,0,0-8.88-29.48-11.94-59.74-3.06-30.26-4.53-40.4-4.8-63.33-.26-22.93,16.74-54.23,25.74-65.58,1.5-1.89,3.22-4.05,5.21-6.39,3.42-3.54,7.18-7.04,11.29-10.46,37.17-30.92,79.29-34.67,101.38-36.52,3.35-.28,8.38-.67,14.69-.78,32.61,1.15,61.11,10.11,74.28,14.65,13.72,4.74,40.64,20.03,55.92,41.84,14.23,20.31,19.23,31.31,24.23,52.31,4.07,17.07,4.59,39.87,0,56Z"/>
    <g>
      <path class="cls-32" d="m467,338.88c-.21,3.16-.49,6-.83,8.54-1.44,11.22-3.84,16.65-5.67,17.96-13.13,2.17-26.87,3.64-40.5,5.5-13.34,1.82-25.23,4.61-39.5,8.5-4.67-1.1-7.03-2.94-7.85-7.97-.06-.33-.11-.67-.15-1.03,2.28-8.55,8-24,19.5-37.5,5.63-6.61,17.59-18.4,36-21,6.24-.88,19.43-2.75,30,6,8.68,7.18,9.19,18.15,9,21Z"/>
      <path class="cls-17" d="m467,338.88c-.21,3.16-.49,6-.83,8.54-1.99-3.26-4.77-6.56-8.67-9.04-5.33-3.39-11.43-4.41-17.68-4.01-1.3-3.44-3.45-7.1-7-10.09-7.11-6-14.65-5.58-16.35-5.41-14.25,1.42-28.06,14.89-27.77,29.12.02.77,0,3.8,1.78,7.5-5.55,4.01-11.68,9.21-17.83,15.92-.06-.33-.11-.67-.15-1.03,2.28-8.55,8-24,19.5-37.5,5.63-6.61,17.59-18.4,36-21,6.24-.88,19.43-2.75,30,6,8.68,7.18,9.19,18.15,9,21Z"/>
      <path class="cls-35" d="m315.55,369.78c-.64,2.67-5.22,5.45-11.05,5.59-18.72-3.81-39.46-7.03-62-9-13.28-1.16-25.98-1.78-38-2-1.21-1.79-3.08-4.95-4.16-9.11-.54-2.07-.88-4.38-.84-6.89.14-9.64,5.74-16.19,9-20,9.94-11.63,26.66-19.22,44-18,18.6,1.31,30.82,12.26,35,16,6.83,6.12,11.01,12.65,17,22,5.54,8.65,8.42,14.35,11,20,.15.46.16.93.05,1.41Z"/>
      <path class="cls-25" d="m315.55,369.78c-6.39-5.03-14.39-10.47-24.05-15.41-5.9-3.02-12.11-6.2-18.84-8.79.5-1.93.78-3.95.8-6.02.17-15.26-13.27-27.77-30.04-27.9-16.78-.13-30.46,12.21-30.52,27.5,0,2.79.43,5.49,1.27,8.03-4.33,2.05-8.94,4.72-13.67,8.18-.05-.04-.11-.07-.16-.11-.54-2.07-.88-4.38-.84-6.89.14-9.64,5.74-16.19,9-20,9.94-11.63,26.66-19.22,44-18,18.6,1.31,30.82,12.26,35,16,6.83,6.12,11.01,12.65,17,22,5.54,8.65,8.42,14.35,11,20,.15.46.16.93.05,1.41Z"/>
      <path class="cls-21" d="m272.66,345.58c-3.15,12.28-15.28,21.38-29.66,21.29-13.62-.07-25.11-8.35-28.83-19.68,10.41-4.93,19.23-6.33,24.33-6.82,12.94-1.23,24.12,1.33,34.16,5.21Z"/>
      <path class="cls-28" d="m441.62,345.39c-.81,7.29-6.62,13.97-7.94,15.07-8.85,7.35-15.61,7.88-23.1,7.64-2.5-.08-8.38-.65-13.8-4.94-3.22-2.54-5.15-5.25-6.3-7.68,4.94-3.58,9.42-6.2,13.02-8.11,8.69-4.61,22.85-12.12,36.32-13.01,1.94,5.16,1.94,9.82,1.8,11.03Z"/>
      <path class="cls-19" d="m273.46,339.57c-.02,2.07-.3,4.09-.8,6.02-10.04-3.88-21.22-6.44-34.16-5.21-5.1.49-13.92,1.89-24.33,6.82-.84-2.54-1.28-5.24-1.27-8.03.06-15.29,13.74-27.63,30.52-27.5,16.77.13,30.21,12.64,30.04,27.9Z"/>
      <path class="cls-6" d="m439.82,334.36c-13.47.89-27.63,8.4-36.32,13.01-3.6,1.91-8.08,4.53-13.02,8.11-1.78-3.7-1.76-6.73-1.78-7.5-.29-14.23,13.52-27.7,27.77-29.12,1.7-.17,9.24-.59,16.35,5.41,3.55,2.99,5.7,6.65,7,10.09Z"/>
      <circle class="cls-7" cx="412" cy="340.87" r="11.5"/>
      <circle class="cls-7" cx="241" cy="337.87" r="14.5"/>
    </g>
    <path class="cls-2" d="m368.88,463.27c-.02.14-.07.29-.14.44-.8,1.72-4.98,4.05-18.45,4.45l-9.79.98c1.02.31-20.66,1.61-21.53-1.96-.11-.44.39-1.15,1.25-1.99,2.18-2.15,6.72-5.15,9.52-6.81,5.22-3.1,7.37-3.77,14.94-4.36,12.19-.95,24.74,5.88,24.2,9.25Z"/>
    <path class="cls-31" d="m543.28,310.46c-2.24,12.41-8.56,26.66-37,83-22.49,44.55-37.91,63.5-49,74-5.4,5.12-7.68,8.26-10.62,11.14-.32-.53-.67-1.04-1.06-1.54-1.7-2.17-3.88-3.71-6.41-4.79-2.12-.89-4.47-1.46-7-1.79,9.97-11.31,21.73-29.33,26.48-38.21,5.68-10.6,11.33-35.4,18.33-56.4s11.23-35.76,15-49c4.59-16.13,4.07-38.93,0-56-5-21-10-32-24.23-52.31-15.28-21.81-42.2-37.1-55.92-41.84-13.17-4.54-41.67-13.5-74.28-14.65-6.31.11-11.34.5-14.69.78-16.64,1.39-44.64,3.86-73.33,18.21-9.4,4.7-18.88,10.68-28.05,18.31-4.11,3.42-7.87,6.92-11.29,10.46-1.99,2.34-3.71,4.5-5.21,6.39-2.1,2.64-4.63,6.37-7.27,10.83-.01.03-.03.06-.06.08-8.69,14.66-18.61,37.12-18.41,54.67.27,22.93,1.74,33.07,4.8,63.33,3.06,30.26,11.94,59.74,11.94,59.74,0,0,6.89,29.98,23.75,47.94,9.36,9.96,14.65,15,20.06,19.34-3.23.3-6.42.83-9.52,1.65-4.96,1.32-9.71,3.41-14.1,6.6-.13.1-.27.2-.42.31-21.21-14.42-37.99-30.64-55.77-58.84-16.55-26.25-26.63-52.67-33.18-75.15-.03-.08-.05-.16-.08-.24-2.89-9.93-5.09-19.09-6.87-27.11-.03-.08-.04-.17-.06-.26-1.07-4.86-1.99-9.3-2.81-13.24-2.48-11.96-3.89-23.45-4.48-34.32-2.18-40.4,7.11-72.31,15.76-88.09,8.51-15.53,17.91-28.93,27.3-40.38,20.14-24.55,40.26-40.14,51.7-48.62,31.49-23.34,71.22-34.45,121-34,36.06.33,67.56,9.28,92.35,21.92,7.93,4.03,15.17,8.45,21.65,13.08,9.62,6.87,43.07,20.41,74,72,14.14,23.59,28.45,54.64,30.35,95.33.68,14.61-.24,30.47-3.35,47.67Z"/>
    <path class="cls-26" d="m514,584.88c-.4.83-1.5,1.26-3.12,1.42-7.07.71-24.01-3.61-35.88-1.42-24.73,4.55-36.54,25.3-60,50-12.42,13.08-30.77,38.94-69,42-25,2-48-15-84-44-24.31-19.58-20.36-24.08-57-44-29.1-15.82-49.04-13.67-51-21-.01-.04-.02-.08-.03-.12-1.25-4.85,1.17-8.87,6.66-12.99,3.75-2.81,8.93-5.68,15.37-8.89,1.56-.78,2.7-1.64,3.58-2.59,2.73-2.92,2.94-6.61,5.27-10.93.76-1.43,1.76-2.92,3.15-4.48,4.34-4.86,9.89-7.16,14.62-8.48,0,0,.02,0,.02,0,1.69-.48,3.27-.83,4.65-1.13-1.2-1.87-3.64-6.05-4.47-11.51-.34-2.28-.41-4.78.01-7.42,1.61-10.02,9.24-15.91,12.94-18.62.15-.11.29-.21.42-.31,7.13-5.19,15.23-7.47,23.62-8.25,3.84,3.08,7.74,5.81,13.19,9.72,15.7,11.24,36.32,24.3,44,29,10.69,6.54,31.93,18.22,49,17,14-1,14.46-2.44,34-14s36-28,46.68-37.7c1.73-1.57,3.59-3.5,5.51-5.69,5.53.72,10.28,2.59,13.41,6.58.39.5.74,1.01,1.06,1.54,3.63,6.05,2.85,14.24,1.01,21.31h0c-.93,3.59-2.14,6.88-3.18,9.45.62.17,1.21.35,1.81.53h.01c21.95,6.53,33.07,16.97,35.69,24.98.77,2.35,2.6,7.03.32,12.31-.1.23-.21.46-.32.69.47.33.94.67,1.41,1.02.08.06.15.11.23.17,12.49,9.17,25.47,22.23,29.43,30.28,1.15,2.34,1.53,4.25.93,5.53Z"/>
    <path class="cls-33" d="m239.81,472.15c-3.23.3-6.42.83-9.52,1.65-3.91-2.83-6.43-5.14-7.79-6.43-14.99-14.19-21.71-29.44-29-46-5.41-12.3-16.5-40.51-19-80-1.95-30.74-4.05-64.03,14-99,2.83-5.48,5.92-10.55,9.17-15.24-8.69,14.66-18.61,37.12-18.41,54.67.27,22.93,1.74,33.07,4.8,63.33,3.06,30.26,11.94,59.74,11.94,59.74,0,0,6.89,29.98,23.75,47.94,9.36,9.96,14.65,15,20.06,19.34Z"/>
    <path class="cls-10" d="m496.5,345.38c-1.74,11.02-4.92,30.62-13,53-6.36,17.63-16.77,46.44-38,68-2.05,2.08-4.15,4.05-6.31,5.9-2.12-.89-4.47-1.46-7-1.79,9.97-11.31,21.73-29.33,26.48-38.21,5.68-10.6,11.33-35.4,18.33-56.4s11.23-35.76,15-49c4.59-16.13,4.07-38.93,0-56-5-21-10-32-24.23-52.31-15.28-21.81-42.2-37.1-55.92-41.84-13.17-4.54-41.67-13.5-74.28-14.65-6.31.11-11.34.5-14.69.78-16.64,1.39-44.64,3.86-73.33,18.21,1.9-1.07,3.57-1.96,4.95-2.69,52.01-27.55,127.67-31.65,184,10,5.71,4.22,56.96,43.19,62,100,1.8,20.24-2.09,44.86-4,57Z"/>
    <path class="cls-22" d="m238.11,329.88c0,5.8-3.27,10.5-7.3,10.5s-7.3-4.7-7.3-10.5,3.27-10.5,7.3-10.5,7.3,4.7,7.3,10.5Z"/>
    <ellipse class="cls-29" cx="401" cy="339.38" rx="6.5" ry="9"/>
    <circle class="cls-11" cx="234.5" cy="347.38" r="5"/>
    <circle class="cls-1" cx="409.5" cy="351.37" r="4"/>
    <path class="cls-9" d="m483.64,549.07c-11.51-.19-24.45.89-38.14,4.31-18.12,4.52-31.78,11.69-38,15-10.08,5.36-9.75,6.94-20,15-14,11-38.46,18.11-56,17-15.73-.99-18.33-6.5-88-47-12.54-7.29-23.01-13.22-38-14-9.74-.51-18.53,1.3-25.92,3.91,2.73-2.92,2.94-6.61,5.27-10.93,25.27-2.61,45.38,2.47,58.65,7.02,26.44,9.06,30.2,22.03,61,30,31.2,8.07,58.35,2.78,67,1,24.89-5.12,29.56-12.63,52-19,13.99-3.97,33.47-7.11,58.82-4.19-.1.23-.21.46-.32.69.47.33.94.67,1.41,1.02.08.06.15.11.23.17Z"/>
    <path class="cls-24" d="m444.49,509.36c.62.17,1.21.35,1.81.53-9.84,3.23-22.08,7.63-35.8,13.48-33.41,14.24-41.38,22.43-63,25-17.85,2.12-32.05-1.13-49-5-27.29-6.24-33.3-13.19-56-19-9.66-2.48-23.01-4.9-39.86-4.98,1.69-.48,3.27-.83,4.65-1.13-1.2-1.87-3.64-6.05-4.47-11.51,17.84-.13,31.75,2.72,41.68,5.62,19.49,5.7,25.06,12.04,55,22,20.14,6.7,30.44,10.03,42,9,9.75-.87,11.48-3.35,45-19,30.43-14.21,42.43-18.44,47-20,5.04-1.72,9.79-3.2,14.17-4.45-.93,3.58-2.14,6.87-3.18,9.44Z"/>
    <path class="cls-30" d="m546.63,262.79c-2.61-28.89-12.9-80.06-54.13-117.42-22.61-20.48-45.22-28.39-67-36-30.3-10.59-110.12-38.49-190,2-21.27,10.78-66.44,38.53-91,93-22.65,50.25-15.78,96.66-11,129,6.05,40.86,19.54,72.66,30,93-13.18-20.77-26.93-47.47-36.68-79.65-.03-.08-.05-.16-.08-.24-2.61-8.64-4.93-17.68-6.87-27.11-.03-.08-.04-.17-.06-.26-.46-2.23-.9-4.47-1.31-6.74-2.29-12.54-4.78-26.2-5.98-40.82-1.94-23.78-.44-50.08,10.98-78.18,3.1-7.62,11.99-27.83,30-48,.69-.77,1.39-1.54,2.08-2.29,49.61-53.44,122.84-59.18,167.92-62.71,29.45-2.31,62.9-4.93,97.13,2.01,7.93,4.03,15.17,8.45,21.65,13.08,9.62,6.87,43.07,20.41,74,72,14.14,23.59,28.45,54.64,30.35,95.33Z"/>
    <path class="cls-14" d="m368.88,463.27c-.02.14-.07.29-.14.44-3.63-1.26-8.36-2.63-13.24-3.33-8.47-1.21-15.05-.05-21,1-3.81.67-8.71,1.8-14.28,3.81,2.18-2.15,6.72-5.15,9.52-6.81,5.22-3.1,7.37-3.77,14.94-4.36,12.19-.95,24.74,5.88,24.2,9.25Z"/>
    <path class="cls-15" d="m336.5,418.38c.35-1.18,4.48.24,13-1,7.33-1.06,10.37-3,11-2,.89,1.41-3.64,7.79-10,9-7.23,1.38-14.48-4.35-14-6Z"/>
  </g>
  <g id="outline-2" data-name="outline">
    <path class="cls-4" d="m496.86,810.87c8.34,38.2,19.47,77.63,31.22,115.04,11.82,37.89,23.09,76.14,38.46,112.73,18.07,40.66,35.54,82.21,59.97,119.52,0,0,2.04,3.09,2.04,3.09,6.46,9.08-.22,19.23-7.64,25.16-7.89,6.52-16.96,11.14-26.21,15.25-13.77,6.25-28.74,9.86-43.81,10.93,0,0,1.38-2.86,1.38-2.86,1.74,2.67,3.39,5.39,4.98,8.15,8.04,13.36,18.14,30.41,10.68,46.06-3.37,5.91-8.66,10.15-14.24,13.71-22.17,13.74-49.62,16.4-74.85,11.57-6.27-1.15-12.31-3.36-18.47-4.93-9.12-2.42-18.49-3.87-27.85-5.11-9.29-1.48-18.74-1.23-28.11-.38-11.76.9-25.64,3.01-26.91,16.99-.51,6.23,1.43,12.48.77,19.04-2.25,21.48-34.28,22.82-50.85,23.24-25.62.17-50.96-3.22-76.08-7.78-24.98-4.92-50.05-9.21-74.4-16.96-15.25-4.93-30.77-12-40.81-25.02-1.39-2.19-3.07-3.97-4.05-6.46-1.34-4.12-.72-8.62-.06-12.6,3.12-15.69,9.07-30.61,14.33-45.57,0,0,1.04,1.98,1.04,1.98-5.35-1.38-10.78-2.39-16.29-3.19-19.36-3.01-39.34-3.9-57.79-11.44-5.37-1.9-10.5-4.79-15.1-8.14-6.96-4.83-13.65-9.98-20.06-15.54-8.29-7.46-22.61-20.16-22.18-31.86.62-10.27,5.99-19.51,10.48-28.38,10.65-19.61,21.8-38.91,30.71-59.37,18.56-41.96,42.2-96.45,60.48-138.19,6.49-15.37,13.32-30.71,18.68-46.48,8.29-26.65,15.59-53.61,23.01-80.52.17-.61.8-.97,1.41-.81.6.16.96.78.81,1.39-7.8,29.75-14.84,59.82-24.53,89.03-22.25,57.23-50.99,120.88-75.28,177.6-6.73,15.43-14.55,30.43-22.66,45.13-5.24,9.71-11.01,19.36-15.16,29.51-1.45,3.7-2.68,7.4-2.88,11.29-.49,12.16,23.53,31.55,32.86,38.89,4.32,3.33,8.87,6.71,13.46,9.56,3.44,1.83,7.49,3.49,11.19,4.89,11.66,4.47,24.02,6.39,36.38,8.03,11.11,1.58,22.3,2.83,33.21,5.67,0,0,1.6.42,1.6.42l-.55,1.56c-4.24,11.93-8.6,23.85-11.95,35.97-1.5,5.83-3.15,12.16-2.52,18.08.26,2.94,2.54,5.1,4.07,7.5,0,0,2.99,3.49,2.99,3.49,17.18,17.91,49.37,23.63,73.08,28.74,24.78,4.81,49.69,9.55,74.82,12.08,19.96,1.8,66.13,6.1,80.36-9.11,6.1-7.37,1.65-17.28,2.89-26.12.62-7.04,5.44-13.52,11.92-16.33,6.14-2.79,12.76-3.09,19.26-3.61,7.97-.55,16.06-.84,24.06.03,11.05,1.36,22.15,3.01,32.98,5.71,6.14,1.48,12.08,3.61,18.31,4.69,12.28,2.23,24.94,2.45,37.27.75,15.67-2.11,41.94-11.3,48.86-26.32,5.89-17.41-8.92-37.23-18.18-51.09,15.82-1.03,31.29-4.47,45.65-11.15,8.86-3.99,17.7-8.57,25.13-14.79,5.61-4.61,11.97-12.6,6.84-19.62,0,0-2.07-3.13-2.07-3.13-19.3-29.2-33.97-61.06-48.04-92.97-21.19-45.15-35.67-93.04-49.98-140.66-11.68-37.49-22.35-77.14-30.36-115.5-.13-.62.26-1.23.88-1.36.62-.13,1.22.26,1.36.87h0Z"/>
    <path class="cls-4" d="m475.54,983.38c3.71,19.79,6.56,39.71,11.06,59.34,4.31,19.64,9.94,38.95,15.81,58.16,10.04,33.62,23.46,66.19,42.52,95.69,2.71,4.24,5.32,8.53,7.63,13.03,1.13,2.22-1.92,4.41-3.63,2.34-3.92-4.96-7.52-10.2-10.8-15.6-23.44-37.84-36.99-80.6-47.76-123.46-5-19.57-8.9-39.41-11.93-59.37-1.42-9.9-2.89-20.36-2.9-30.14h0Z"/>
    <path class="cls-4" d="m146.39,1223.72c-.21-1.13.32-1.99.57-2.96l.91-2.84c1.8-5.53,3.66-11.52,5.5-16.99,18.59-52.21,34.45-105.45,45.65-159.75.17-.81.96-1.33,1.77-1.16.79.16,1.3.92,1.18,1.71-1.29,7.88-2.81,15.67-4.4,23.46-10.97,52.49-25.52,104.46-45.8,154.15,0,0-1.12,2.76-1.12,2.76-.42.9-.56,1.9-1.45,2.64-.97.84-2.61.26-2.82-1.02h0Z"/>
    <path class="cls-4" d="m421.05,641.16c1.4.74,1.14,1.89,1.57,3.06.76,3.16,1.28,6.37,1.69,9.59,1.09,10.75,2.51,21.53,2.21,32.37-.12,6.53.9,12.99.8,19.54.02,8.76-.5,17.71-3.41,26.03-1.86,9-8.41,15.94-14.47,22.36-5.95,6.44-13.04,11.48-20.01,16.65-3.35,2.71-6.33,5.88-9.92,8.29-3.56,2.43-6.74,5.33-9.92,8.21-4.94,4.09-10.14,8.1-15.36,11.88-1.76,1.27-3.59,2.44-4.95,4.18-1.81,2.83-4.82,4.28-7.52,6.1-1.07.53-1.84,1.3-3.23,1.1-1.87-.32-1.99-2.55-.88-3.67,1.78-2.05,3.82-3.89,5.91-5.59.86-.65,1.88-1.09,2.92-1.51,2.01-.89,3.57-2.4,5.2-3.82,6.49-5.53,12.86-11.66,19.91-16.47,3.45-2.59,6.52-5.67,10.1-8.09,1.79-1.21,3.62-2.35,5.3-3.7,3.38-2.66,6.48-5.66,9.72-8.44,6.38-5.48,13.42-10.55,18.36-17.37,1.76-2.48,3.19-5.11,3.86-8.01.72-2.93,1.03-6.4,1.4-9.41,1.69-10.47,2.32-20.96,2.69-31.67.09-3.12-.29-6.5-.68-9.61-.98-8.71-1.73-20.16-2.83-28.81-.33-3.75-.76-7.51-.61-11.28-.01-.54.07-1.09.75-1.72.38-.36.94-.42,1.38-.18h0Z"/>
    <path class="cls-4" d="m511.4,585.83c2.3.51,3.2,2.55,4.62,4.09,2.47,3.22,4.45,6.69,6.32,10.27,10.4,19.78,10.19,42.87,8.86,64.56-.93,23.6-.33,47.31-3.09,70.84-1.82,12.21-3.59,24.67-6.97,36.57-.99,3.34-2.46,6.56-3.74,9.77-1.37,3.55-2.46,7.46-4.31,11.2-1.83,3.72-4.18,7.13-6.74,10.25-7.59,9.32-17.17,16.61-26.34,24.15-6.04,5.06-11.84,10.44-18.29,15.01-6.39,4.58-12.38,9.64-18.37,14.7-8.84,7.16-18.58,14.94-27.31,22.32-3.93,3.06-7.54,6.68-11.29,10.13-2.65,2.25-7.07,2.75-10.05,2.19-3.81-.52-8.64-.74-11.8-3.79-.55-.53-.56-1.4-.03-1.94.25-.27.59-.38.93-.43,2.02-.32,3.74.31,5.66.45,2.63.21,5.53.44,8.18.21,6.37-.84,11.19-5.66,15.7-9.88,8.68-8.02,17.58-15.85,26.82-23.22,3.1-2.44,6.3-4.74,9.44-7.11,6.28-4.73,12.2-9.92,18.54-14.55,9.63-6.69,18.34-14.72,26.61-22.91,5.42-5.37,10.83-10.81,14.53-17.51,1.87-3.37,3.04-7.03,4.5-10.66,1.59-3.7,3.16-7,4.13-10.83,3.03-11.2,4.07-23.08,4.76-34.63,1.74-19.52,3.13-39.03,4.41-58.63.54-6.96.19-16.5.16-23.53-.16-11.66-.47-23.24-3.17-34.55-1.8-7.4-5.03-14.51-8.48-21.28-1.33-2.55-2.65-5.08-4.19-7.49-.54-.78-1.01-1.6-1.08-2.82-.06-.56.49-1.06,1.04-.93h0Z"/>
    <path class="cls-4" d="m238.63,633.28c.44,3.48-1.19,8.33-1.83,11.73-2.61,11.38-5.83,22.82-7.5,34.32-1.83,11.42-1.64,23.17-.09,34.62.16,1,.37,3.31.6,4.21,2.23,9.64,10.8,16.17,18.13,22.19,12.41,9.53,25.75,18.11,37.93,28.06,12.13,10.09,24.4,19.62,37.97,27.63,5.07,3.29,10.94,5.84,14.98,10.8,7.69,11.19,1.42,25.31-3.84,36.11-10.29,19.33-28.2,43.51-49.05,51.79-3.43,1.03-6.93,2.6-10.58,2.74-7.01.13-12.94-4.97-18.12-8.89-12.31-9.87-23.35-21.13-35.78-30.77-9.43-7.06-19.18-14.04-27.88-22-5.87-5.27-11.72-10.51-17.57-15.79-11.64-10.65-23.34-21.13-34.59-32.23-4.91-4.98-10.17-10.1-13.4-16.47-7.98-15.17-9.76-32.62-11.47-49.39-.91-9.7-1.6-19.89-1.7-29.62.08-21.69.45-43.55,3.25-65.09,1.04-6.74,2.34-13.99,4.14-20.57,1.09-3.87,2.17-8.06,4.14-11.6,2.3-4.51,5.86-8.55,8.86-12.25,2.55-3.17,5.29-6.17,8.24-8.91,1.74-1.51,10.23-9.63,11.43-6.42.18.43.11.9-.14,1.26-2.31,3.23-5.28,5.67-7.88,8.59-5.23,5.5-9.9,12.09-14.15,18.13-2.03,3.12-3.93,6.39-5.44,9.8-2.39,5.21-3.47,11.04-4.42,16.7-1.38,9.62-2,19.43-2.4,29.14-.7,19.59-.79,39.18-.1,58.74.58,19.63,4.16,50.67,16.05,66.57,7.26,9.1,16.38,16.72,25.07,24.45,18,15.08,34.73,32.11,53.08,46.52,6.27,4.7,12.54,9.72,18.45,14.93,8.88,7.83,17.36,15.91,26.57,23.25,3.45,2.65,6.88,5.16,10.69,6.84,0,0,1.23.41,1.23.41.81.28,1.61.42,2.44.48,3.43.26,7.18-1.54,10.49-2.63,8.79-3.58,15.73-10.57,22.22-17.35,10.42-11.3,19.6-24.07,26.06-38.01,3.47-7.85,7.33-17.77,2.23-25.62-3.49-4.26-8.83-6.74-13.46-9.97-13.32-8.5-25.51-18.67-37.97-28.32-6.26-4.69-12.72-9.11-19.18-13.59-12.46-9.16-34.66-21.67-38.94-37.12-.54-1.83-.78-4.28-1.02-6.16-.37-2.64-.65-6.28-.87-8.94-.5-8.98-.4-18.09,1-26.99,1.2-7.93,3.22-15.64,5.31-23.24,1.06-3.8,2.18-7.57,3.32-11.33l1.72-5.64c.65-2.45,2.66-7.66,3.75-5.13h0Z"/>
    <path class="cls-36" d="m336.45,833.32c3.56,1.79,7.19,3.88,10.85,6.34,1.22.82,2.57,1.73,4.01,2.73,10.54,7.34,25.97,19.79,31.13,40.57.25,1,.58,2.34.92,3.94,1.75,8.3,3.62,23.52-5.67,33.84-11,12.21-32.46,11.79-46.7,5.33-18.97-8.62-15.99-18.06-38.09-37.35"/>
    <path class="cls-36" d="m337.57,162.07c32.61,1.15,61.11,10.11,74.28,14.65,13.72,4.74,40.64,20.03,55.92,41.84,14.23,20.31,19.23,31.31,24.23,52.31,4.07,17.07,4.59,39.87,0,56-3.77,13.24-8,28-15,49s-12.65,45.8-18.33,56.4c-4.75,8.88-16.51,26.9-26.48,38.21-1.92,2.19-3.78,4.12-5.51,5.69-10.68,9.7-27.14,26.14-46.68,37.7-19.54,11.56-20,13-34,14-17.07,1.22-38.31-10.46-49-17-7.68-4.7-28.3-17.76-44-29-5.45-3.91-9.35-6.64-13.19-9.72-5.41-4.34-10.7-9.38-20.06-19.34-16.86-17.96-23.75-47.94-23.75-47.94,0,0-8.88-29.48-11.94-59.74s-4.53-40.4-4.8-63.33c-.26-22.93,16.74-54.23,25.74-65.58,1.5-1.89,3.22-4.05,5.21-6.39"/>
    <g>
      <path class="cls-4" d="m354.07,405.05c3.87.26,6.46,4.09,7.62,7.47,2.08,6.2-3.09,11.32-8.51,12.63-2.83.78-5.74.9-8.53.31-.12-.03-.12-.22.01-.23,2.68-.28,5.33-.84,7.82-1.83,7.72-2.99,9.54-9.06,4.64-15.74-.83-1.02-1.88-1.95-3.12-2.37-.14-.04-.08-.26.06-.23h0Z"/>
      <path class="cls-7" d="m243.17,311.67v1h.25c8.25.06,16.13,3.31,21.62,8.91,4.86,4.96,7.5,11.34,7.42,17.98-.17,14.51-13.3,26.32-29.27,26.32h-.19c-16.11-.09-29.16-12.07-29.1-26.71.06-14.61,13.19-26.5,29.27-26.5v-1m0,0c-16.67,0-30.21,12.29-30.27,27.5-.06,15.23,13.42,27.62,30.1,27.71.06,0,.13,0,.19,0,16.57,0,30.09-12.17,30.27-27.31.18-15.26-13.26-27.77-30.03-27.9-.09,0-.17,0-.26,0h0Z"/>
      <path class="cls-7" d="m418.16,319.79c2.91,0,8.6.68,14.02,5.25,8.13,6.85,8.73,17.71,8.45,20.25-.81,7.27-6.72,13.69-7.59,14.41-7.46,6.19-13.41,7.46-20.06,7.46-.71,0-1.49-.01-2.37-.04-2.81-.09-8.27-.82-13.21-4.73-4.87-3.86-7.61-8.94-7.7-14.31v-.1c-.28-13.28,12.53-26.67,26.87-28.1.48-.05,1.03-.07,1.59-.07m0-1c-.77,0-1.34.04-1.69.08-14.25,1.42-28.06,14.88-27.77,29.12.03,1.27-.04,8.75,8.08,15.18,5.42,4.29,11.3,4.87,13.8,4.95.81.03,1.61.04,2.4.04,6.57,0,12.8-1.13,20.7-7.69,1.32-1.1,7.13-7.77,7.94-15.07.22-2.01.06-13.65-8.8-21.12-5.68-4.79-11.64-5.48-14.67-5.48h0Z"/>
      <path class="cls-7" d="m302.5,375.33c-16.44-2.08-32.9-3.97-49.39-5.57-6.16-.62-12.36-.79-18.52-1.34-5.95-.6-12.48-1.4-18.38-2.24-4.12-.52-8.19-1-12.34-1.63-.31-.02-.38-.53-.05-.6,9.17-2.4,18.82-2.49,28.23-2.02,5.82.31,15.82,2.11,21.67,3.07,8.22,1.29,16.4,2.79,24.55,4.41,8.14,1.69,16.27,3.37,24.35,5.33.16.04.26.2.22.36-.04.15-.18.25-.33.23h0Z"/>
      <path class="cls-7" d="m315.69,370.16c-11.87-25-34.65-55.14-64.69-55.91-12.62.13-24.61,5.74-34.66,13.05-8.11,5.85-13.58,13.44-17.19,23.23-.1.26-.39.4-.66.3-.19-.07-.32-.26-.33-.45-.37-7.25,1.54-14.71,5.38-20.99,7.59-11.83,20.01-20.73,33.77-23.38,15.57-2.98,32.29,2.27,44.54,11.87,11.31,8.77,19.81,20.38,26.46,32.83,3.29,6.16,6.14,12.51,8.32,19.13.09.26-.06.55-.32.63-.25.08-.52-.05-.62-.29h0Z"/>
      <path class="cls-7" d="m380.35,379.31c13.9-4.48,27.99-8.4,42.23-11.68,0,0,10.7-2.54,10.7-2.54,7.19-1.6,14.56-2.26,21.95-2.1,3.73.1,7.46.44,11.09,1.25.29.06.32.52.02.59-7.11,1.73-14.21,3.09-21.35,4.5-10.64,1.9-21.57,2.69-32.24,4.76-10.77,1.79-21.5,3.73-32.23,5.79-.16.03-.32-.07-.35-.24-.03-.15.06-.3.2-.34h0Z"/>
      <path class="cls-7" d="m371.87,369.72c5.94-18.68,15.59-36.62,30.23-50.02,15.64-14.58,39.83-20.49,58.33-7.41,2.93,2.1,5.84,4.6,7.64,7.87.9,1.77,1.64,3.52,2.34,5.58,2.72,8.44-.71,17.19-3.12,25.25-.17.52-.98.41-.99-.14-.39-6.09.18-12.98-1.08-18.73-.7-2.89-2.24-5.1-3.9-7.65-.14-.11-.17-.2-.32-.33-7.78-6.83-20.03-9.59-30.22-9.13-15.24.92-27.94,11.77-37.68,22.89-8.22,9.51-14.96,20.52-20.28,32.14-.1.26-.41.39-.67.27-.23-.11-.34-.36-.27-.6h0Z"/>
      <path class="cls-8" d="m474.7,305.03c-9.1-9.84-21.11-16.45-32.76-22.81-7.83-4.18-15.9-8-24.28-10.86-9.24-3.2-17.96-7.66-27.28-10.43-3.07-.87-6.16-1.65-9.46-1.24-.29.07-.6-.13-.64-.43,0-.7,1.16-1.13,1.64-1.63,2.12-1.34,4.67-2.02,7.12-2.41,11.31-1.24,22.72,1.95,32.62,7.1,8.11,4.44,16.03,9.1,23.7,14.22,11.14,7.93,22.6,16.31,30.15,27.93.14.24.07.54-.17.69-.22.13-.49.08-.65-.11h0Z"/>
      <path class="cls-8" d="m198.19,309.97c4.83-14.33,42.24-33.1,56.36-39.14,5.31-2.3,10.63-4.64,16.06-6.75,10.91-4.23,22.56-6.47,34.29-6.79,5.88-.11,11.87.31,17.58,1.93.49.13.48.91-.03,1-11.21,2.43-21.8,5.43-32.66,8.72-10.68,3.38-21.71,5.66-32.32,9.34-15.9,5.67-31.74,12.09-46.15,20.95-4.51,3.03-9.69,6.07-12.18,11.06-.11.26-.4.38-.65.27-.23-.1-.36-.35-.29-.59h0Z"/>
      <path class="cls-4" d="m340.5,469.14c.14.06-.25.13-.29.15-.24.08-.9.18-1.15.24-4.09.64-19.64,2.7-21.41-1.73-1.08-2.78,4.78-6.52,6.62-7.99,3.6-2.49,7.01-4.97,11.3-6.36,6.4-1.73,13.03-2.01,19.45-.52,5.31,1.45,10.86,3.35,14.46,7.81,3.07,4.46-3.3,6.6-6.62,7.06-4.23.65-8.41.64-12.57.35,3.96-.68,15.41-1.76,17.22-5.11-.38-.86-1.43-1.66-2.38-2.28-3.24-2-7.08-3.38-10.93-4.13-3.9-.83-7.81-.91-11.75-.41-4.1.28-7.45,1.23-10.99,3.34-3.75,2.18-7.87,4.48-10.91,7.51-.09.11-.15.25-.12.11,0-.05,0-.09,0-.21-.02-.13-.04-.16-.05-.18,1.79,1.15,5.28,1.5,7.84,1.79,3.57.38,7.22.55,10.82.65.26-.01.92.02,1.17-.01.03,0,.41-.01.3-.07h0Z"/>
    </g>
    <g id="hijab">
      <path class="cls-27" d="m178.08,366.38c-3.22-12.61-5.19-25.54-6.17-38.52-1.66-25.99-1.88-53.16,8.96-77.35,15.37-36.56,46.98-65.31,84.08-78.86,18.48-6.98,38.14-10.2,57.71-11.83,19.67-1.87,39.64-1.11,59.05,2.9,51.91,10.16,100.32,46.88,116.3,98.41,12.08,37.91,5.45,80.45-13.58,114.58,0,0-.72-.36-.72-.36,10.44-23.66,16.07-49.4,14.78-74.84-2.45-65.81-56.11-117.09-118.28-130.85-18.64-4.19-37.97-5.29-57.05-3.76-19.18,1.3-38.34,4.11-56.45,10.62-42.2,14.59-77.65,49.78-88.22,93.69-1.58,6.18-2.73,12.48-3.16,18.81-1.96,25.72-1.36,51.72,3.51,77.19l-.78.17h0Z"/>
      <path class="cls-37" d="m215.77,480.72c-21.21-14.42-37.99-30.64-55.77-58.84-28.46-45.13-37.77-90.78-43-116-11.7-56.38.3-102.38,11.28-122.41,26.77-48.83,62.22-76.56,79-89,31.49-23.34,71.22-34.45,121-34,47.59.43,87.23,15.88,114,35,9.62,6.87,43.07,20.41,74,72,19.22,32.07,38.75,77.9,27,143-2.24,12.41-8.56,26.66-37,83-22.49,44.55-37.91,63.5-49,74-5.4,5.12-7.68,8.26-10.62,11.14"/>
      <path class="cls-27" d="m155.76,414.93c-3.64-14.11-8.88-27.73-13.22-41.64-6.12-19.13-11.08-38.75-13.06-58.79-.25-3.2-.7-7.83-.77-10.97-.21-5.36-.33-11.13-.36-16.44-.11-14.64-.34-29.33,1.68-43.92,2.25-16.47,8.01-32.32,14.92-47.35,1.23-3.03,3.45-6.96,4.93-9.9,1.4-2.91,3.88-6.8,5.53-9.59,10.66-17.2,24.72-32.55,41.08-44.47,11.83-8.79,24.94-15.62,38.41-21.21.13-.05.27,0,.33.14.05.12,0,.26-.12.32-6.43,3.43-12.78,6.97-18.87,10.91-16.78,10.54-31.81,23.88-44.13,39.38-9.92,12.69-18.31,26.77-24.92,41.47-14.39,30.42-15.56,51.3-15.6,84.22-.08,6.2-.03,12.84.13,19.05.43,8.04,1.19,16.36,2.46,24.3,3.22,21.6,9.67,42.51,16.17,63.32,2.13,6.97,4.28,13.94,5.89,21.07.03.13-.05.27-.19.3-.13.03-.26-.05-.3-.18h0Z"/>
      <path class="cls-27" d="m541.76,314.8c9.68-38.22,6.25-80.58-12.55-115.49-10.81-19.7-23.86-38.56-40.42-53.79-12.52-11.34-27.19-19.77-42.51-26.9-10.09-4.85-21.27-8.65-31.38-13.51-.12-.06-.17-.22-.1-.34.06-.11.2-.16.31-.12,10.79,3.63,21.94,6.44,32.54,10.74,37.19,14.4,56.14,33.46,76.41,67.17,5.89,9.87,11.42,20.05,15.33,30.88,8,21.59,10.68,44.93,8.89,67.8-.9,11.4-2.74,22.75-6.04,33.7-.04.13-.18.21-.31.17-.13-.04-.2-.18-.17-.31h0Z"/>
      <path class="cls-27" d="m208,519.62c5.17-.09,10.35.05,15.52.56,10.35,1.03,20.32,4.04,30.31,6.78,24.63,6.86,48.54,18.07,74.14,20.46,20.52,2.94,38.55-8.85,57.82-16.17,4.8-1.93,9.62-3.85,14.46-5.67,4.86-1.8,9.71-3.59,14.6-5.27l14.64-5.04c4.86-1.67,9.62-3.61,14.39-5.63.13-.05.27,0,.33.13.05.12,0,.25-.1.31-8.81,5.44-18.49,9.46-27.98,13.5-13.71,5.79-28.87,12.44-42.56,18.47-9.64,4.08-19.46,8.32-30.05,9.52-26.47,2.33-51.29-9.3-75.65-17.67-7.28-2.65-14.57-5.12-21.99-7.32-7.37-2.27-14.81-4.37-22.47-5.37-5.09-.68-10.24-1.01-15.4-1.1-.14,0-.25-.12-.25-.25,0-.13.11-.24.25-.25h0Z"/>
      <path class="cls-27" d="m484,548.88c-10.43,1.65-20.74,2.37-30.83,4.96-22.23,5.64-43.07,14.98-63.17,26.04,17.29-15.7,39.37-25.9,62.26-30.26,10.5-1.87,21.25-1.56,31.74-.74h0Z"/>
      <path class="cls-27" d="m175.92,545.64c6.62-2.93,13.36-7.1,20.97-7.06,6.31-.17,12.62,1.06,18.71,2.25,22.41,4.55,41.56,18.98,60.04,30.78,12.74,8.37,25.01,17.58,39.04,23.42,10.02,3.44,20.78,3.84,31.42,2.95,8.66-.74,17.26-2.77,25.8-5.33.14-.05.29.02.34.16.04.12-.03.25-.14.3-18.29,7.72-39.36,11.54-58.77,5.89-6.32-2.23-12.22-5.48-17.98-8.85-15.3-9.08-29.68-19.57-44.72-29.04-8.45-5.27-17.07-10.42-26.35-14.08-3.1-1.21-6.29-2.08-9.51-2.92-6.43-1.6-12.93-3.26-19.59-3.23-6.73,0-12.79,3.29-19.1,5.23-.13.04-.27-.03-.31-.16-.04-.13.03-.27.16-.32h0Z"/>
      <path class="cls-37" d="m432.19,470.49c5.53.72,10.28,2.59,13.41,6.58.39.5.74,1.01,1.06,1.54,5.47,9.12.93,23.1-2.17,30.76,23.16,6.49,34.82,17.28,37.51,25.51.8,2.45,2.76,7.44,0,13,.47.33.94.67,1.41,1.02,16.18,11.83,33.29,30.26,30.59,35.98-2.11,4.46-24.4-2.69-39,0-24.73,4.55-36.54,25.3-60,50-12.42,13.08-30.77,38.94-69,42-25,2-48-15-84-44-24.31-19.58-20.36-24.08-57-44-29.1-15.82-49.04-13.67-51-21-2.21-8.23,6.06-14.05,22-22,7.98-3.98,5.03-10.2,12-18,5.89-6.6,14.02-8.47,19.29-9.61-1.7-2.64-5.89-9.95-4.46-18.93,1.61-10.02,9.24-15.91,12.94-18.62.15-.11.29-.21.42-.31,7.13-5.19,15.23-7.47,23.62-8.25"/>
    </g>
  </g>
</svg>