<?xml version="1.0" encoding="UTF-8"?>
<svg id="criminal" xmlns="http://www.w3.org/2000/svg" xmlns:xlink="http://www.w3.org/1999/xlink" viewBox="0 0 700 1500">
  <defs>
    <style>
      .cls-1 {
        fill: url(#linear-gradient-12);
      }

      .cls-1, .cls-2, .cls-3, .cls-4, .cls-5, .cls-6, .cls-7, .cls-8, .cls-9, .cls-10, .cls-11, .cls-12, .cls-13, .cls-14, .cls-15, .cls-16, .cls-17, .cls-18, .cls-19, .cls-20, .cls-21, .cls-22, .cls-23, .cls-24, .cls-25, .cls-26, .cls-27, .cls-28, .cls-29, .cls-30, .cls-31, .cls-32, .cls-33, .cls-34, .cls-35, .cls-36, .cls-37, .cls-38, .cls-39, .cls-40, .cls-41, .cls-42, .cls-43, .cls-44, .cls-45 {
        stroke-width: 0px;
      }

      .cls-2 {
        fill: url(#linear-gradient-17);
      }

      .cls-3 {
        fill: url(#radial-gradient-16);
      }

      .cls-4 {
        fill: url(#linear-gradient-19);
      }

      .cls-5 {
        fill: url(#linear-gradient);
      }

      .cls-6 {
        fill: #3d2d24;
      }

      .cls-7 {
        fill: url(#linear-gradient-21);
      }

      .cls-8 {
        fill: url(#linear-gradient-6);
      }

      .cls-9 {
        fill: #281c16;
      }

      .cls-10 {
        fill: url(#radial-gradient-8);
      }

      .cls-12 {
        fill: url(#linear-gradient-15);
      }

      .cls-13 {
        fill: url(#radial-gradient-13);
      }

      .cls-14 {
        fill: url(#radial-gradient-12);
      }

      .cls-15 {
        fill: url(#linear-gradient-11);
      }

      .cls-16 {
        fill: url(#linear-gradient-5);
      }

      .cls-17 {
        fill: none;
      }

      .cls-18 {
        fill: url(#linear-gradient-13);
      }

      .cls-19 {
        fill: url(#linear-gradient-23);
      }

      .cls-20 {
        fill: url(#linear-gradient-25);
      }

      .cls-21 {
        fill: url(#linear-gradient-16);
      }

      .cls-22 {
        fill: url(#linear-gradient-22);
      }

      .cls-23 {
        fill: url(#linear-gradient-20);
      }

      .cls-24 {
        fill: url(#linear-gradient-14);
      }

      .cls-25 {
        fill: url(#linear-gradient-2);
      }

      .cls-26 {
        fill: url(#linear-gradient-7);
      }

      .cls-27 {
        fill: url(#radial-gradient-2);
      }

      .cls-28 {
        fill: url(#radial-gradient-7);
      }

      .cls-29 {
        fill: url(#linear-gradient-3);
      }

      .cls-30 {
        fill: url(#radial-gradient-5);
      }

      .cls-31 {
        fill: url(#linear-gradient-9);
      }

      .cls-32 {
        fill: url(#radial-gradient);
      }

      .cls-33 {
        fill: url(#radial-gradient-14);
      }

      .cls-34 {
        fill: url(#linear-gradient-8);
      }

      .cls-35 {
        fill: url(#radial-gradient-10);
      }

      .cls-36 {
        fill: url(#linear-gradient-24);
      }

      .cls-37 {
        fill: url(#linear-gradient-18);
      }

      .cls-38 {
        fill: url(#radial-gradient-6);
      }

      .cls-39 {
        fill: url(#linear-gradient-10);
      }

      .cls-40 {
        fill: url(#radial-gradient-15);
      }

      .cls-41 {
        fill: url(#radial-gradient-9);
      }

      .cls-42 {
        fill: url(#radial-gradient-3);
      }

      .cls-43 {
        fill: url(#radial-gradient-11);
      }

      .cls-44 {
        fill: url(#linear-gradient-4);
      }

      .cls-46 {
        opacity: .25;
      }

      .cls-45 {
        fill: url(#radial-gradient-4);
      }
    </style>
    <clipPath id="clippath">
      <rect class="cls-17" x="-4177.5" y="29.5" width="1920" height="1080"/>
    </clipPath>
    <linearGradient id="linear-gradient" x1="445.81" y1="1212.42" x2="445.81" y2="1087.36" gradientUnits="userSpaceOnUse">
      <stop offset="0" stop-color="#321512"/>
      <stop offset="1" stop-color="#7b5e52"/>
      <stop offset="1" stop-color="#7c5f53"/>
    </linearGradient>
    <linearGradient id="linear-gradient-2" x1="413.59" y1="1155.21" x2="413.59" y2="1072.44" gradientUnits="userSpaceOnUse">
      <stop offset="0" stop-color="#7c5f53" stop-opacity="0"/>
      <stop offset=".07" stop-color="#72554b" stop-opacity=".12"/>
      <stop offset=".42" stop-color="#4f322b" stop-opacity=".61"/>
      <stop offset=".74" stop-color="#391c18" stop-opacity=".9"/>
      <stop offset="1" stop-color="#321512"/>
    </linearGradient>
    <linearGradient id="linear-gradient-3" x1="120.38" y1="1219.45" x2="120.38" y2="1084.83" gradientUnits="userSpaceOnUse">
      <stop offset="0" stop-color="#321512"/>
      <stop offset="1" stop-color="#7b5e52"/>
      <stop offset="1" stop-color="#7c5f53"/>
    </linearGradient>
    <linearGradient id="linear-gradient-4" x1="166.09" y1="1160.36" x2="166.09" y2="1070.07" xlink:href="#linear-gradient-2"/>
    <linearGradient id="linear-gradient-5" x1="292.62" y1="1115.19" x2="292.62" y2="844.81" gradientUnits="userSpaceOnUse">
      <stop offset="0" stop-color="#756858"/>
      <stop offset="1" stop-color="#bba795"/>
    </linearGradient>
    <radialGradient id="radial-gradient" cx="290.76" cy="960.75" fx="268.97" fy="1075.91" r="206.06" gradientTransform="translate(0 -320.27) scale(1 1.33)" gradientUnits="userSpaceOnUse">
      <stop offset="0" stop-color="#bba795" stop-opacity="0"/>
      <stop offset=".09" stop-color="#a69382" stop-opacity=".23"/>
      <stop offset=".23" stop-color="#8d7d6d" stop-opacity=".51"/>
      <stop offset=".37" stop-color="#7a6b5c" stop-opacity=".73"/>
      <stop offset=".53" stop-color="#6d5e50" stop-opacity=".88"/>
      <stop offset=".72" stop-color="#655749" stop-opacity=".97"/>
      <stop offset="1" stop-color="#635547"/>
    </radialGradient>
    <linearGradient id="linear-gradient-6" x1="454.22" y1="901.81" x2="537.03" y2="901.81" gradientUnits="userSpaceOnUse">
      <stop offset="0" stop-color="#78635a"/>
      <stop offset=".03" stop-color="#756058"/>
      <stop offset="1" stop-color="#2c211d"/>
    </linearGradient>
    <linearGradient id="linear-gradient-7" x1="477.61" y1="905.37" x2="442.14" y2="829.22" gradientUnits="userSpaceOnUse">
      <stop offset="0" stop-color="#5e4a41" stop-opacity="0"/>
      <stop offset=".24" stop-color="#2e241f" stop-opacity=".54"/>
      <stop offset="1" stop-color="#060403"/>
    </linearGradient>
    <linearGradient id="linear-gradient-8" x1="380.44" y1="953.99" x2="455.14" y2="953.99" gradientUnits="userSpaceOnUse">
      <stop offset="0" stop-color="#78635a"/>
      <stop offset=".03" stop-color="#756058"/>
      <stop offset="1" stop-color="#2c211d"/>
    </linearGradient>
    <radialGradient id="radial-gradient-2" cx="461.03" cy="780.45" fx="471.29" fy="758.99" r="112.09" gradientUnits="userSpaceOnUse">
      <stop offset="0" stop-color="#78635a"/>
      <stop offset=".2" stop-color="#715d54"/>
      <stop offset=".47" stop-color="#604e46"/>
      <stop offset=".79" stop-color="#43352f"/>
      <stop offset="1" stop-color="#2c211d"/>
    </radialGradient>
    <radialGradient id="radial-gradient-3" cx="268.23" cy="792.49" fx="268.23" fy="792.49" r="202.96" gradientTransform="translate(0 -254.67) scale(1 1.32)" gradientUnits="userSpaceOnUse">
      <stop offset="0" stop-color="#78635a"/>
      <stop offset=".21" stop-color="#725e55"/>
      <stop offset=".46" stop-color="#64524a"/>
      <stop offset=".72" stop-color="#4c3d37"/>
      <stop offset="1" stop-color="#2c211d"/>
    </radialGradient>
    <radialGradient id="radial-gradient-4" cx="412.91" cy="846.52" fx="403.28" fy="871.19" r="41.69" gradientTransform="translate(23.71 -826.02) rotate(.81) scale(1 1.97)" gradientUnits="userSpaceOnUse">
      <stop offset="0" stop-color="#5e4a41" stop-opacity="0"/>
      <stop offset=".24" stop-color="#2e241f" stop-opacity=".54"/>
      <stop offset="1" stop-color="#060403"/>
    </radialGradient>
    <radialGradient id="radial-gradient-5" cx="292.87" cy="813.87" fx="272.74" fy="920.28" r="190.41" gradientTransform="translate(0 -39.94) scale(1 1.05)" gradientUnits="userSpaceOnUse">
      <stop offset="0" stop-color="#5e4a41" stop-opacity="0"/>
      <stop offset="1" stop-color="#060403"/>
    </radialGradient>
    <linearGradient id="linear-gradient-9" x1="434.59" y1="898.64" x2="434.59" y2="849.41" xlink:href="#linear-gradient-7"/>
    <linearGradient id="linear-gradient-10" x1="241.27" y1="775.29" x2="294.2" y2="775.29" gradientUnits="userSpaceOnUse">
      <stop offset="0" stop-color="#c5996c"/>
      <stop offset=".24" stop-color="#c09368"/>
      <stop offset=".54" stop-color="#b4845c"/>
      <stop offset=".86" stop-color="#a06c4a"/>
      <stop offset="1" stop-color="#965f40"/>
    </linearGradient>
    <linearGradient id="linear-gradient-11" x1="285.81" y1="775.86" x2="329.76" y2="775.86" xlink:href="#linear-gradient-10"/>
    <linearGradient id="linear-gradient-12" x1="307.28" y1="850.58" x2="287.37" y2="744.3" gradientUnits="userSpaceOnUse">
      <stop offset="0" stop-color="#c5996c"/>
      <stop offset=".15" stop-color="#b98a61"/>
      <stop offset=".47" stop-color="#a5724e"/>
      <stop offset=".76" stop-color="#9a6443"/>
      <stop offset="1" stop-color="#965f40"/>
    </linearGradient>
    <radialGradient id="radial-gradient-6" cx="190.27" cy="726.3" fx="216.31" fy="692.15" r="117.07" gradientTransform="translate(243.59 -37.6) rotate(18.38) scale(1 1.02)" gradientUnits="userSpaceOnUse">
      <stop offset="0" stop-color="#78635a"/>
      <stop offset=".25" stop-color="#745f57"/>
      <stop offset=".47" stop-color="#69564e"/>
      <stop offset=".68" stop-color="#57463f"/>
      <stop offset=".88" stop-color="#3d302b"/>
      <stop offset="1" stop-color="#2c211d"/>
    </radialGradient>
    <radialGradient id="radial-gradient-7" cx="394.79" cy="716.84" fx="363.09" fy="708.73" r="108.63" gradientTransform="translate(0 -219.68) scale(1 1.31)" gradientUnits="userSpaceOnUse">
      <stop offset="0" stop-color="#78635a"/>
      <stop offset=".2" stop-color="#725e55"/>
      <stop offset=".46" stop-color="#625048"/>
      <stop offset=".76" stop-color="#473933"/>
      <stop offset="1" stop-color="#2c211d"/>
    </radialGradient>
    <radialGradient id="radial-gradient-8" cx="292.74" cy="645.08" fx="270.86" fy="760.68" r="206.86" gradientTransform="translate(0 -215.04) scale(1 1.33)" xlink:href="#radial-gradient-4"/>
    <radialGradient id="radial-gradient-9" cx="288.5" cy="575.78" fx="263.08" fy="688.01" r="226.18" gradientTransform="translate(0 60.1) scale(1 .9)" gradientUnits="userSpaceOnUse">
      <stop offset="0" stop-color="#7c5f53"/>
      <stop offset=".48" stop-color="#5a3d35"/>
      <stop offset="1" stop-color="#321512"/>
    </radialGradient>
    <linearGradient id="linear-gradient-13" x1="285.93" y1="605.92" x2="285.93" y2="454.82" xlink:href="#linear-gradient-2"/>
    <linearGradient id="linear-gradient-14" x1="211.96" y1="635.9" x2="211.96" y2="527.83" xlink:href="#linear-gradient-2"/>
    <linearGradient id="linear-gradient-15" x1="362.59" y1="680.15" x2="362.59" y2="506.98" xlink:href="#linear-gradient-2"/>
    <radialGradient id="radial-gradient-10" cx="284.93" cy="382.62" fx="284.93" fy="382.62" r="159.6" gradientUnits="userSpaceOnUse">
      <stop offset=".32" stop-color="#c5996c"/>
      <stop offset=".48" stop-color="#c09367"/>
      <stop offset=".69" stop-color="#b4845c"/>
      <stop offset=".91" stop-color="#9f6b49"/>
      <stop offset="1" stop-color="#965f40"/>
    </radialGradient>
    <linearGradient id="linear-gradient-16" x1="325.2" y1="505.52" x2="291.91" y2="447.85" gradientUnits="userSpaceOnUse">
      <stop offset="0" stop-color="#ee2c6c"/>
      <stop offset=".37" stop-color="#da1551"/>
      <stop offset=".74" stop-color="#cc053e"/>
      <stop offset="1" stop-color="#c80038"/>
    </linearGradient>
    <radialGradient id="radial-gradient-11" cx="194.14" cy="376.5" fx="194.14" fy="376.5" r="56.22" gradientUnits="userSpaceOnUse">
      <stop offset="0" stop-color="#fff"/>
      <stop offset=".26" stop-color="#f9f9f9"/>
      <stop offset=".58" stop-color="#eaeaea"/>
      <stop offset=".93" stop-color="#d2d2d2"/>
      <stop offset="1" stop-color="#ccc"/>
    </radialGradient>
    <radialGradient id="radial-gradient-12" cx="371.1" cy="373.11" fx="371.1" fy="373.11" r="63.89" xlink:href="#radial-gradient-11"/>
    <linearGradient id="linear-gradient-17" x1="189.07" y1="394.38" x2="206.43" y2="356.16" gradientUnits="userSpaceOnUse">
      <stop offset="0" stop-color="#fff" stop-opacity=".2"/>
      <stop offset="1" stop-color="#623f29"/>
    </linearGradient>
    <linearGradient id="linear-gradient-18" x1="377.27" y1="409.7" x2="360.16" y2="325.98" xlink:href="#linear-gradient-17"/>
    <radialGradient id="radial-gradient-13" cx="363.5" cy="368.37" fx="363.5" fy="368.37" r="24.73" gradientUnits="userSpaceOnUse">
      <stop offset="0" stop-color="#6d4c40"/>
      <stop offset=".22" stop-color="#68473c"/>
      <stop offset=".46" stop-color="#5a3c32"/>
      <stop offset=".72" stop-color="#442822"/>
      <stop offset=".98" stop-color="#250d0b"/>
      <stop offset="1" stop-color="#230b0a"/>
    </radialGradient>
    <radialGradient id="radial-gradient-14" cx="201.03" cy="369.24" fx="201.03" fy="369.24" r="24.3" xlink:href="#radial-gradient-13"/>
    <linearGradient id="linear-gradient-19" x1="375.13" y1="388.43" x2="355.57" y2="354.56" gradientUnits="userSpaceOnUse">
      <stop offset="0" stop-color="#6d4c40" stop-opacity="0"/>
      <stop offset=".25" stop-color="#452923" stop-opacity=".53"/>
      <stop offset=".52" stop-color="#2b1210" stop-opacity=".88"/>
      <stop offset=".78" stop-color="#230b0a"/>
    </linearGradient>
    <linearGradient id="linear-gradient-20" x1="189.3" y1="388.43" x2="209.01" y2="354.29" xlink:href="#linear-gradient-19"/>
    <linearGradient id="linear-gradient-21" x1="192.84" y1="368.5" x2="185.34" y2="355.5" gradientUnits="userSpaceOnUse">
      <stop offset="0" stop-color="#fff" stop-opacity="0"/>
      <stop offset="1" stop-color="#fff"/>
    </linearGradient>
    <linearGradient id="linear-gradient-22" x1="355.84" y1="379.5" x2="348.34" y2="366.5" xlink:href="#linear-gradient-21"/>
    <linearGradient id="linear-gradient-23" x1="277.09" y1="436.85" x2="277.09" y2="431.68" xlink:href="#linear-gradient-12"/>
    <radialGradient id="radial-gradient-15" cx="283.7" cy="362.62" fx="274.81" fy="429.93" r="168.48" gradientUnits="userSpaceOnUse">
      <stop offset="0" stop-color="#c5996c"/>
      <stop offset=".15" stop-color="#b98a61"/>
      <stop offset=".47" stop-color="#a5724e"/>
      <stop offset=".76" stop-color="#9a6443"/>
      <stop offset="1" stop-color="#965f40"/>
    </radialGradient>
    <linearGradient id="linear-gradient-24" x1="300.14" y1="490.1" x2="286.24" y2="416.53" gradientUnits="userSpaceOnUse">
      <stop offset="0" stop-color="#ee2c6c" stop-opacity="0"/>
      <stop offset=".21" stop-color="#9d183c" stop-opacity=".44"/>
      <stop offset=".44" stop-color="#620a1a" stop-opacity=".75"/>
      <stop offset=".69" stop-color="#400206" stop-opacity=".94"/>
      <stop offset="1" stop-color="#350000"/>
    </linearGradient>
    <radialGradient id="radial-gradient-16" cx="280.56" cy="278" fx="280.56" fy="367.42" r="241.99" gradientTransform="translate(0 18.99) scale(1 .93)" xlink:href="#radial-gradient-9"/>
    <linearGradient id="linear-gradient-25" x1="347.27" y1="331.53" x2="381.14" y2="137.93" gradientUnits="userSpaceOnUse">
      <stop offset="0" stop-color="#7c5f53" stop-opacity="0"/>
      <stop offset=".07" stop-color="#72554b" stop-opacity=".12"/>
      <stop offset=".42" stop-color="#4f322b" stop-opacity=".61"/>
      <stop offset=".74" stop-color="#391c18" stop-opacity=".9"/>
      <stop offset="1" stop-color="#321512"/>
    </linearGradient>
  </defs>
  <g id="Layer_58" data-name="Layer 58" class="cls-46">
    <path class="cls-11" d="m597.56,1340.54c-1.21-.15-2.39-.3-3.54-.44h0c-.82-.28-1.64-.56-2.46-.83-.17-.06-.35-.12-.52-.18-3.95-1.32-7.88-2.58-11.63-3.78-7-2.24-12.97-3.95-18.32-5.29-.45-.11-.89-.22-1.33-.33-.88-.21-1.74-.42-2.58-.61-.42-.1-.84-.19-1.26-.29-2.5-.56-4.88-1.04-7.2-1.47-.39-.07-.77-.14-1.15-.21-1.15-.21-2.29-.4-3.42-.58-.38-.06-.75-.12-1.13-.18-1.87-.3-3.74-.57-5.62-.82,0,0-.01,0-.02,0-.16-.02-.31-.04-.48-.07-.03,0-.06,0-.08-.01-.15-.02-.3-.04-.46-.06-.03,0-.07,0-.1-.01-.16-.02-.32-.04-.49-.06-.04,0-.07,0-.11-.01-.17-.02-.35-.04-.53-.07-.04,0-.07,0-.11-.01-.19-.02-.39-.05-.59-.07-.03,0-.07,0-.1-.01-.22-.03-.45-.05-.69-.08-.03,0-.07,0-.1-.01-.24-.03-.49-.06-.76-.09-.04,0-.09,0-.13-.01-.25-.03-.52-.06-.79-.09-.06,0-.11-.01-.17-.02-.27-.03-.55-.06-.84-.09-.07,0-.14-.01-.22-.02-.29-.03-.59-.06-.9-.09-.09,0-.17-.02-.26-.03-.31-.03-.63-.06-.96-.09-.12-.01-.23-.02-.35-.03-.32-.03-.66-.06-1-.1-.17-.02-.35-.03-.53-.05-.3-.03-.62-.06-.94-.09-.23-.02-.47-.04-.7-.06-.28-.03-.57-.05-.87-.08-.29-.03-.59-.05-.89-.08-.23-.02-.46-.04-.69-.06-.85-.07-1.73-.15-2.69-.23-.67-.06-1.38-.12-2.11-.18-.11,0-.22-.02-.33-.03-.14-.01-.29-.02-.44-.04-.36-.03-.73-.06-1.1-.09-.03,0-.06,0-.09,0-.95-.08-1.93-.16-2.97-.24-.04,0-.09,0-.14-.01-.38-.03-.76-.06-1.15-.09-1.21-.1-2.48-.2-3.81-.3,2.74-.3,5.51-.59,8.29-.87,14.88-1.5,29.95-2.8,42.13-4.18h.11c.68-.09,1.36-.17,2.02-.25.06,0,.12-.01.18-.02.66-.08,1.31-.16,1.95-.24.04,0,.09-.01.14-.02,2.06-.25,4.01-.51,5.83-.77.07-.01.14-.02.22-.03.5-.07,1-.15,1.48-.22.16-.02.31-.05.47-.07.39-.06.78-.12,1.15-.18.19-.03.37-.06.55-.09.34-.06.67-.11.99-.17.19-.03.38-.07.57-.1.3-.05.6-.11.89-.16.19-.04.38-.07.57-.11.28-.05.55-.11.81-.16.18-.04.36-.07.53-.11.26-.06.52-.11.77-.17.16-.04.32-.07.48-.11.29-.07.57-.14.84-.21.09-.02.19-.05.28-.07.34-.09.67-.19.99-.31.59-.21,1.15-.46,1.63-.75.53.01,1.05.03,1.55.04.05-.33.09-.66.1-1,.01-.4,0-.78-.05-1.16-.05,0-.09,0-.14,0,.64-.07,1.64-.15,2.62-.26,1.04-.13,2.06-.3,2.55-.56,2.93-1.56.92-3.81-3.29-5.29,0,0-3.62-1.37-10.92-1.83-.16,0-.32-.02-.48-.03,0,0,0,0,0,0-.09-.09-.18-.18-.26-.27,0-.19-.02-.37-.02-.56-.18-.01-.37-.02-.55-.04-2.17-2.22-4.53-4.3-6.96-6.22-.39-.31-.78-.62-1.18-.92-.79-.6-1.58-1.19-2.37-1.76-.79-.57-1.58-1.12-2.37-1.66-1.57-1.07-3.12-2.07-4.61-2.99-12.48-7.73-20.24-9.85-26.66-11.28-.83-.18-1.7-.37-2.63-.55-.7-.14-1.43-.27-2.19-.4-.25-.04-.5-.09-.76-.13,3.48-1.32,8.25-3.02,16.06-5.01,10.35-2.64,18.94-3.99,24.36-5.01.33-.06.66-.12.97-.19.3-.06.58-.12.86-.17.27-.06.54-.11.79-.17.5-.11.95-.22,1.36-.33,2.02-.54,2.79-1.06,2.04-1.78-.34-.32-.96-.64-1.81-.96-.11-.04-.22-.08-.33-.12-.29-.1-.61-.2-.95-.3-2.85-.83-7.31-1.63-12.82-2.35-3.39-.44-7.17-.86-11.19-1.24-.67-.06-1.35-.13-2.03-.19-.68-.06-1.38-.12-2.07-.18h0s0,0,0,0c.65-.21,1.31-.42,2-.63.03,0,.06-.02.09-.03.69-.21,1.4-.42,2.14-.64.51-.15,1.04-.3,1.58-.45.13-.04.25-.07.38-.11.43-.12.86-.24,1.31-.36.15-.04.31-.08.46-.13.46-.12.92-.25,1.39-.37.13-.03.25-.07.38-.1.61-.16,1.23-.32,1.86-.48.29-.07.58-.14.87-.22,12.35-3.05,25.72-5.31,36.99-6.92-7.22-.37-21.24-.93-35.86-.41-2.71.1-5.44.23-8.15.41-2.24.15-4.35.32-6.41.53-4.26.43-8.29,1.01-12.71,1.85-1.73.33-3.52.69-5.4,1.11-1.24.27-2.55.57-3.89.89-.12.03-.24.06-.36.09-.1.02-.19.05-.29.07-1.11.27-2.24.55-3.38.86-.4.11-.81.21-1.22.33-.92-.73-1.82-1.42-2.7-2.07-.6-.44-1.18-.87-1.76-1.27.09-.91.2-1.83.33-2.75.13-.95.28-1.89.45-2.83-.13-.06-.27-.13-.42-.2-.02-1.37-.13-3.68-.29-7.01-.07-1.44-.16-3.08-.25-4.91-.02-.37-.04-.72-.06-1.07-.33-5.16-1.31-7.89-11.68-9.57,0-.04,0-.08,0-.12.4.03.79.07,1.15.1l-1.05-1.16c-.05,0-.11,0-.17-.01-.04-.56-.08-1.12-.11-1.67-.02-.32-.04-.64-.06-.96,0-.02.02-.04.02-.06.05-.23.42-.44,1.12-.62,18.34-4.58,36.69-9.17,55.02-13.75.23-.06.42-.12.58-.18,1.59-.61-.2-1.38-3.63-1.85-.34-.05-.7-.09-1.08-.13-1.12-.12-2.38-.21-3.71-.26-.45-.02-.9-.03-1.36-.03-6.05-.07-11.76-.1-17.12-.1-.02,0-.04,0-.06,0-2.62,0-5.16,0-7.62.02-5.05.03-9.74.08-14.09.15-2.16.03-4.23.07-6.22.12-1.99.04-3.88.09-5.7.13s-3.54.1-5.18.15c-3.61.11-6.89.23-10.06.36-2.28.09-4.51.19-6.74.3-2.67.13-5.35.26-8.18.42-9.62.51-20.91,1.18-38.87,2.1-5.92.3-11.58.59-16.96.85-.56.03-1.11.05-1.66.08-3.67.18-7.2.34-10.58.5-.86.04-1.71.08-2.55.12-4.32.2-8.38.38-12.12.54-.44.02-.87.04-1.3.06-1.48.06-2.93.13-4.31.19-.55.02-1.05.06-1.52.1-.7.06-1.3.14-1.81.23-1.85.34-2.31.87-.94,1.4,3.86,1.51,7.64,3.23,10.79,5.12.49.29.94.58,1.37.87.05.03.09.06.14.09,1.34.89,2.42,1.75,3.29,2.58-7.84.59-10.94,1.57-14.37,2.52-.2.06-.4.11-.61.17-.82.22-1.67.45-2.63.66-2.39.54-5.4,1.03-10.07,1.39-1.44.11-3.02.21-4.69.31-18.78,1.06-51.24.97-72.76-.81-2.2-.18-4.12-.39-5.86-.61-9.41-1.19-13.6-2.8-27.43-3.5-.98-.05-1.92-.09-2.82-.12.26,0,.53,0,.78-.01-1.1-.49-2.2-.98-3.3-1.47-1.55-1.02-2.92-2.1-4-3.23-.46-.47-.84-.94-1.17-1.39-.16-.23-.31-.45-.44-.67-.33-.55-.56-1.08-.73-1.59-.16-.51-.26-1-.29-1.48-.05-.78-3.94-1.54-8.81-1.73-3.51-.14-7.34-.29-11.46-.45-8.23-.33-17.62-.72-27.95-1.17-1.29-.06-2.6-.11-3.92-.17-3.96-.17-8.06-.36-12.27-.55-2-.09-3.92-.18-5.79-.26-.83-.04-1.66-.08-2.46-.11-1.26-.06-2.5-.12-3.7-.17-2.18-.1-4.27-.2-6.26-.3-.56-.03-1.12-.05-1.67-.08-4.33-.21-8.26-.4-11.88-.57-.77-.04-1.53-.07-2.27-.11-3.72-.18-7.12-.34-10.34-.49-2.11-.1-4.14-.19-6.14-.28-.89-.04-1.77-.08-2.64-.11-.96-.04-1.92-.08-2.88-.12-.7-.03-1.4-.06-2.1-.08-4.47-.17-8.99-.33-14.01-.47-7.09-.2-15.51-.38-25.1-.49-4.8-.05-9.88-.08-15.24-.08-5.36,0-10.98.03-16.86.1-.9.01-1.71.04-2.44.09-1.45.1-2.53.27-3.21.48-.69.21-.97.46-.83.72.12.23.59.46,1.38.68.58.17,1.33.33,2.3.47,6.3.95,12.61,1.9,18.91,2.86,24.05,3.63,48.09,7.26,72.14,10.9.64.1,1.21.2,1.7.32.49.11.91.24,1.23.36,4.53,1.78,9.08,3.55,13.6,5.33.02,0,.12.03.27.07.03,0,.06.01.09.02-.02,0-.05.01-.07.02-6.54,1.73-1.41,4.28,10.11,11.01.19.11.3.18.33.19,0,0,0,0,0,0,2.01,1.17,3.96,2.35,5.88,3.53,0,0,0,0,0,0,.05.03.09.05.14.08-2.33.07-3.89.2-4.33.43-1.73.88-1.72,1.83-.06,3.21,4.18,4.67,20.75,11.95,25.64,14.38,0,0,0,0,0,0,18.95,10.68,25.16,18.22,26.59,20.03h0c-1.37.27-2.61.54-3.71.81-.73.18-1.41.36-2.03.54-.93.27-1.73.54-2.42.82-3.57,1.43-7.09,3.55-4.11,11.28.14.36.3.74.47,1.12.28.64.6,1.3.98,2-.77.08-1.46.18-2.07.29-.81.15-1.47.32-1.95.5-.21.08-.4.17-.54.26-1.04.67-2.08,1.22-2.58,2.05-.4.66-.47,1.51.07,2.74,2.36,5.43,2.69,6.66,9.3,8.3.5.12,1,.24,1.49.35,2.23.5,4.41.88,6,1.14,0,0,0,0,0,0,0,0,0,0,0,0h0c.07.04.14.09.2.13-.19.01-.38.02-.56.03.12.58.75,1.47,3.25,2.5,1.69.69,3.74,1.25,5.5,1.66.14-.01.29-.02.43-.03,1.16.29,2.51.59,4.09.89.44.08.93.17,1.44.26.09.02.19.03.28.05.42.07.86.14,1.31.22.15.02.3.05.45.07.43.07.88.14,1.34.21.17.03.33.05.5.08.5.08,1.03.15,1.56.23.14.02.27.04.4.06,1.37.2,2.83.4,4.38.61.21.03.44.06.65.09.55.07,1.11.15,1.69.22.29.04.57.07.86.11.53.07,1.06.14,1.6.2.32.04.63.08.95.12.54.07,1.09.14,1.65.21.32.04.63.08.94.12.74.09,1.49.18,2.25.28.45.05.9.11,1.36.16.52.06,1.05.13,1.58.19.49.06.99.12,1.48.18.39.05.79.09,1.19.14.55.07,1.1.13,1.66.2.33.04.67.08,1,.12.62.07,1.23.14,1.85.22.19.02.38.04.57.07,18.57,2.15,38.67,4.24,46.06,5.15,0,0-.02,0-.03,0-1.07.13-2.12.26-3.17.4-.08.01-.17.02-.25.03-5.14.68-9.98,1.45-14.6,2.39-.1.02-.19.04-.29.06-4.81.98-8.31,1.92-11.32,2.96-3.87,1.34-6.94,2.85-10.91,4.84-.04.02-.08.04-.11.06-.2.1-.4.2-.6.31-.06.03-.11.06-.17.09-.19.1-.38.2-.57.3-.07.04-.14.08-.21.11-.18.1-.36.19-.54.29-.08.04-.16.09-.24.13-.18.1-.35.2-.53.3-.08.05-.17.1-.25.14-.18.1-.35.21-.53.31-.09.05-.17.1-.26.15-.18.11-.36.22-.54.33-.09.05-.17.11-.26.16-.18.11-.36.23-.55.35-.08.05-.17.11-.25.17-.19.12-.38.25-.56.38-.08.05-.16.11-.24.16-.2.14-.4.28-.6.42-.07.05-.14.1-.2.14-.22.16-.44.32-.65.48-.05.04-.1.07-.15.11-.25.19-.51.39-.76.59-.01,0-.02.02-.03.02-1.07.84-2.12,1.76-3.13,2.75-.28.28-.56.57-.84.87,0,0,0,0,0,0-.38-.04-.75-.08-1.13-.12,0,0,0,0,0,0,0,0,0,0,0,0-11.79,1.37-27.7,3.47-43.57,6.49-3.2.61-6.27,1.19-9.18,1.76-13.38,2.59-23.42,4.76-27.66,7.06-1.59.86-2.37,1.74-2.21,2.66.49,2.85,11.41,5.54,32.88,9.07,11.97,1.97,27.21,4.2,45.79,6.86,3.46.5,7.03,1.01,10.72,1.53,56.33,8.04,101.77,12.74,118.96,14.47,68.62,6.9,102.93,10.35,133.48,9.32,3.21-.11,6.29-.27,9.3-.47,11.09-.75,21.21-2.14,33.25-4.28,8.99-1.59,19.05-3.6,31.39-6.07.73-.15,1.43-.29,2.14-.43,14.8-3,26.45-5.78,35.31-8.09,2.43-.63,4.67-1.23,6.69-1.79.93-.14,1.9-.29,2.89-.45,2.19-.22,1.24.03,4.09-.66,1.06-.17,2.15-.36,3.25-.54,3.76-.64,7.75-1.35,11.89-2.15,6.46-1.25,13.25-2.69,19.94-4.35,6.55-1.62,12.51-3.1,17.48-4.49,3.86-1.08,7.12-2.11,9.6-3.13,5.15-2.11,6.94-4.13,3.67-6.35-4.49-3.05-18.1-5.36-45.32-9.98-1.36-.23-2.71-.46-4.05-.68-.11-.02-.22-.04-.33-.05-1.19-.2-2.38-.39-3.57-.58-.45-.07-.9-.14-1.35-.22-.84-.13-1.68-.27-2.51-.4-.57-.09-1.14-.18-1.7-.27-.71-.11-1.41-.22-2.11-.33-.62-.1-1.23-.19-1.84-.28-.64-.1-1.29-.2-1.93-.29-.64-.1-1.26-.19-1.89-.28-.61-.09-1.22-.18-1.82-.27-.64-.09-1.26-.19-1.89-.28-.59-.09-1.18-.17-1.77-.26-.62-.09-1.23-.18-1.84-.26-.59-.08-1.18-.17-1.76-.25-.59-.08-1.17-.16-1.75-.25-.6-.08-1.19-.17-1.78-.25-.55-.08-1.09-.15-1.64-.22-.62-.08-1.24-.17-1.85-.25-.49-.07-.98-.13-1.47-.2-.66-.09-1.31-.18-1.95-.26-.43-.06-.85-.11-1.27-.17-.71-.09-1.41-.18-2.1-.27-.34-.04-.68-.09-1.02-.13-.78-.1-1.56-.2-2.32-.3-.23-.03-.46-.06-.69-.09-.89-.11-1.77-.22-2.63-.33-.09-.01-.18-.02-.27-.03Zm-83.8-83.6c-.19,0-.38-.01-.57-.02h0c.19,0,.38.01.57.02,1.09.05,2.19.1,3.28.15-1.09-.05-2.19-.1-3.28-.15Z"/>
  </g>
  <g id="lower_body">
    <g id="color-3" data-name="color">
      <path class="cls-5" d="m531.82,1211.83c-23.97,1.64-42.92-.4-56.4-2.8-20.41-3.63-31.33-8.61-66.71-19.07-20.72-6.12-38.47-10.76-51.6-14.02-4.54-1.13-7.12-5.71-5.83-10.38,2.5-9.07,4.73-19.39,6.17-30.79.95-7.46,1.44-14.55,1.61-21.23.13.06.26.11.38.16,11.93,4.85,18.64-2.88,54.82-12.04,6.83-1.73,12.64-2.98,17.62-3.94.83-.16,1.64-.31,2.43-.46,3.14-.57,5.93-1.03,8.42-1.42.63-.1,1.23-.19,1.82-.28.59-.09,1.16-.18,1.71-.26.56-.09,1.1-.17,1.62-.25.78-.12,1.53-.24,2.24-.35.48-.08.94-.16,1.39-.23.68-.12,1.32-.23,1.94-.35.21-.04.41-.08.61-.12.4-.09.79-.17,1.16-.25.38-.09.75-.18,1.11-.27.53-.14,1.05-.29,1.54-.44.5-.16.97-.33,1.44-.51.15-.06.3-.13.45-.19.3-.13.6-.26.89-.4.43-.22.85-.44,1.26-.69.55-.33,1.08-.7,1.6-1.1.26-.21.52-.42.78-.64.26-.23.51-.46.77-.71.38-.37.77-.76,1.15-1.19.08-.08.15-.16.22-.25,1.06,7.68,2.13,15.36,3.2,23.03.22,1.52.82,2.92,1.76,4.08,22.48,27.55,44.96,55.1,67.43,82.67,4.49,5.5.33,14.18-7,14.69Z"/>
      <path class="cls-25" d="m360.59,1120.5c2.76-.08,6.95-.31,12-1,18.41-2.53,21.73-7.67,38-12,19.98-5.31,27.06-.77,48-9,3.92-1.54,7.03-3.02,9-4v-7c-2.8,1.58-7.26,3.9-13,6-13.11,4.81-18.86,3.37-36,7-11.74,2.49-17.61,3.73-25,7-8.94,3.96-15.33,8.58-25,8-3.88-.23-7-1.22-9-2,.33,2.33.67,4.67,1,7Z"/>
      <path class="cls-29" d="m217.54,1172.58c.65,4.67-2.55,9.26-7.25,10.38-13.57,3.26-31.94,7.91-53.5,14.03-36.8,10.45-48.39,15.43-69.29,19.06-13.81,2.4-33.03,4.45-56.78,2.8-7.28-.51-10.25-9.19-5.01-14.69,26.21-27.56,52.43-55.12,78.64-82.67,1.1-1.15,1.9-2.56,2.32-4.07,2.93-10.68,5.87-21.35,8.79-32.02.02-.05.12-.26.28-.57.47.62.98,1.2,1.54,1.78,8.35,8.71,15.24,3.83,49.12,13.05,31.48,8.56,38.97,16.43,51.31,13.78-1.25,8.68-2.08,18.18-2.17,28.36-.11,11.4.72,21.71,2,30.78Z"/>
      <path class="cls-44" d="m113.59,1093.5c3.27.72,8.12,1.78,14,3,28.66,5.95,27.33,4.46,36,7,15.7,4.59,17.25,8.63,38,15,6.33,1.94,11.59,3.23,15,4,.67-3,1.33-6,2-9-3.19-.31-8.09-.89-14-2-21.49-4.03-24.17-9.04-43-13-13.6-2.86-17.84-1.44-31-6-6.04-2.09-10.83-4.36-14-6-1,2.33-2,4.67-3,7Z"/>
      <path class="cls-16" d="m466.43,1087.36c-.07.09-.14.17-.22.25-.38.43-.77.82-1.15,1.19-.26.25-.51.48-.77.71-.26.22-.52.43-.78.64-.52.4-1.05.77-1.6,1.1-.41.25-.83.47-1.26.69-.29.14-.59.27-.89.4-.15.06-.3.13-.45.19-.47.18-.94.35-1.44.51-.49.15-1.01.3-1.54.44-.36.09-.73.18-1.11.27-.37.08-.76.16-1.16.25-.2.04-.4.08-.61.12-.62.12-1.26.23-1.94.35-.45.07-.91.15-1.39.23-.71.11-1.46.23-2.24.35-.52.08-1.06.16-1.62.25-.55.08-1.12.17-1.71.26-.59.09-1.19.18-1.82.28-2.49.39-5.28.85-8.42,1.42-.79.15-1.6.3-2.43.46-4.98.96-10.79,2.21-17.62,3.94-36.18,9.16-42.89,16.89-54.82,12.04-.12-.05-.25-.1-.38-.16-15.76-6.71-15.97-21.54-31.97-28.54-18.81-8.23-55.32-8.67-77,3-13,7-13.95,19.68-29.58,24.7-.97.31-1.9.56-2.8.74-12.34,2.65-19.83-5.22-51.31-13.78-33.88-9.22-40.77-4.34-49.12-13.05-.59-.61-1.13-1.23-1.63-1.89-7.67-10.13.33-67.35.33-67.35.48-3.44,1.21-8.8,2.03-15.56.22-1.8.44-3.7.67-5.68.73-4.93,1.33-8.84,1.83-11.97,32.03-15.89,64.05-31.77,96.08-47.66,33.82-21.02,63.46-38.02,87-51,44.5-24.55,69.8-36.21,92.25-40.69,24.86,2.49,47.05,7.04,58.75,12.69-1.44,29-.37,30.49-1.81,59.49,1.14,8.04,2.53,16.72,4.24,26.13.23,1.29.67,4.09,1.32,8.5,1.74,11.79,5.04,35.11,10.23,71.78,4.99,35.23,7.31,53.19-2.14,63.96Z"/>
      <path class="cls-32" d="m458.59,950.5c-.46,2.38-1.14,5.48-2.14,9.06,0,0-1.98,7.17-4.86,13.94-3.25,7.64-11.42,26.27-31,42-11.71,9.4-23.24,14.35-31,17,7.2-12.07,14.39-25.73,21-41,16.24-37.49,23.63-72.28,27-100-3.57-1.51-17.83-4.81-20-5-2.74-.32-8.9-1.41-15-6-6.21-4.68-8.96-10.44-10-13-49.08,37.67-92.67,64.96-126,84-41.53,23.73-70.2,36.38-105,44-17.84,3.9-33,5.54-43.58,6.31.22-1.8.44-3.7.67-5.68.73-4.93,1.33-8.84,1.83-11.97,32.03-15.89,64.05-31.77,96.08-47.66,33.82-21.02,63.46-38.02,87-51,44.5-24.55,69.8-36.21,92.25-40.69,24.86,2.49,47.05,7.04,58.75,12.69-1.44,29-.37,30.49-1.81,59.49.92,5.48,1.85,10.98,2.81,16.51.99,5.7,1.99,11.37,3,17Z"/>
    </g>
    <g id="outline-3" data-name="outline">
      <path class="cls-6" d="m468.32,1087.1c1.08,5.89,1.72,12.6,2.41,18.58.12,1.04.23,2.07.37,3.1.16,1.63.45,3.36,1.56,4.63,3.67,4.49,10.37,12.64,14.11,17.21,12.64,15.43,39.11,47.69,51.49,62.82l1.98,2.42c.35.48.76,1.02,1.07,1.56,3.28,5.68-.06,13.38-6.08,15.57-1.09.43-2.45.66-3.6.74-2.62.15-5.24.3-7.86.38-20.97.69-42.05-1.41-62.39-6.61-16.17-4.33-31.82-9.95-47.88-14.53-17.94-5.25-36.09-10.02-54.23-14.54l-1.51-.37-.76-.19c-5.96-1.23-9.32-7.48-7.41-13.19,4.83-16.61,7.91-33.84,7.88-51.18.08-2.09,3.13-2.14,3.21,0-.83,16.79-2.95,33.52-6.88,49.88,0,0-.39,1.53-.39,1.53l-.2.76c-.82,2.54-.15,5.55,1.96,7.22,1.33,1.17,3.37,1.41,5.03,1.87,26.28,6.63,52.26,14.54,78.04,22.83,11.89,3.8,23.71,7.56,36,9.67,16.28,2.94,32.89,3.79,49.41,3.14,2.57-.1,5.17-.26,7.74-.43.9-.05,1.66-.23,2.49-.52,4.34-1.64,6.52-7.59,3.41-11.18-3.89-4.75-17.52-21.61-21.66-26.68-9.87-12.16-35.8-44.11-45.27-55.79-.8-.93-1.43-2.02-1.84-3.16-.71-2.05-.78-4.35-1.21-6.46-.99-5.93-2.15-12.58-2.75-18.55-.21-2.34,3.29-2.94,3.78-.52h0Z"/>
      <path class="cls-6" d="m218.96,1113.62c-2.23,18.71-2.29,37.69.21,56.37l.23,1.64c.63,3.29-.26,6.87-2.43,9.39-1.64,2.04-4.21,3.49-6.73,3.99,0,0-6.5,1.57-6.5,1.57-26.05,6.24-51.93,13.09-77.5,21.13-17.07,5.4-34.57,10.26-52.46,12.14-13.98,1.64-28.11,1.93-42.16,1-8.91.08-13.53-9.83-8.28-16.86,22.36-23.78,46.85-48.42,69.34-71.98,1.56-1.66,10.16-10.47,11.49-12.03,1.9-2.62,2.07-6,2.99-9.08,2.09-8.75,4.19-17.49,7.04-26.03l.37-.67c.36-.65,1.18-.89,1.83-.53.63.35.87,1.13.57,1.77-1.92,8.11-4.63,17.65-7.35,26.15-1.18,3.21-1.52,6.94-3.65,9.76-1.42,1.8-9.85,10.44-11.52,12.33-21.98,23.31-45.26,48.5-67.32,71.83-4.16,4.47-1.71,11.6,4.77,11.44,13.82.9,27.72.69,41.5-.76,17.76-1.72,34.92-6.2,51.93-11.55,25.69-7.74,51.47-15.32,77.49-21.89,0,0,6.52-1.6,6.52-1.6.6-.14.95-.24,1.38-.4,3.42-1.22,5.59-5.05,4.82-8.6-1.4-10.61-2-21.37-1.66-32.05.25-9.01,1.12-17.99,2.62-26.86.12-.69.77-1.15,1.45-1.03.66.11,1.12.73,1.04,1.39h0Z"/>
      <path class="cls-6" d="m120.66,996.37c-2.17,13.33-4.02,26.72-5.82,40.1-1.28,9.98-2.65,19.98-2.6,30.01.07,3.29.32,6.56,1.14,9.61,1.51,5.95,5.71,11.43,11.58,13.52,6.14,1.9,13.17,2.4,19.58,3.78,16.64,3.3,33.04,7.7,48.97,13.56,6.12,2.11,12.45,4.96,18.87,5.19,6.2.03,12.51-2.61,17.22-6.65,5.03-4.33,8.62-10.29,13.81-14.71,8.1-6.68,18.55-9.6,28.59-11.64,18.41-3.14,38.22-2.5,55.67,4.61,8.19,3.34,13.64,10.75,18.8,17.46,4.02,5.12,8.95,9.31,15.13,11.37,5.84,2.17,12.29-.16,18.67-2.11,19.25-6.36,38.93-11.73,58.91-15.31,4.95-.96,9.98-1.63,14.87-2.69,4.3-.87,8.26-2.7,11.05-6.11,6.73-7.91,6.37-19.12,5.97-28.98-1.32-20.14-5.04-40.11-8.01-60.07-2.75-17.15-5.17-35.37-7.66-52.55-1.53-9.1-2.95-18.42-3.99-27.58-.09-.75.45-1.43,1.2-1.51.72-.08,1.38.42,1.5,1.13,1.55,9.07,3.22,18.32,4.95,27.37.17,1.12,1.77,11.06,1.96,12.53,3.02,19.03,5.63,40.97,8.14,60.19,1.53,11.93,4.06,28.44,5.02,40.29.49,6.78.73,13.75-1.02,20.66-1.28,5.2-4.28,10.13-8.55,13.47-2.83,2.27-6.47,3.43-9.94,4.07-5.03.93-10.08,1.42-15.09,2.25-13.31,1.91-26.42,5.12-39.27,9.1-6.41,2.04-12.71,4.34-19.07,6.66-4.84,1.7-9.97,3.64-15.31,3.52-5.49-.15-10.59-2.73-14.84-6.06-5.49-4.42-8.7-10.54-13.09-15.81-6.2-8-16.13-11.13-25.72-12.81-18.93-3.01-41.03-2.11-58.71,5.7-6.18,2.57-10.7,7.2-14.63,12.57-2.06,2.66-4.21,5.45-6.89,7.83-5.42,4.78-12.51,7.57-19.8,7.43-7.17-.33-13.39-3.51-19.86-5.94-9.36-3.77-18.88-7.04-28.64-9.63-9.73-2.74-19.67-4.31-29.7-5.37-3.45-.42-6.89-.76-10.27-1.89-3.5-1.11-6.59-3.54-8.91-6.33-7.15-8.37-6.26-20.15-5.38-30.35.53-5.86,1.72-14.24,2.48-20.16,1.87-13.37,3.52-26.75,4.7-40.2.37-2.73,4.29-2.26,3.97.48h0Z"/>
    </g>
  </g>
  <g id="robe">
    <g id="Layer_37" data-name="Layer 37">
      <path class="cls-8" d="m537.03,931.27c-8.16,2.61-25.63,6.87-44,0-9.2-3.44-16.84-9.01-27.66-20.94-1.49-1.64-3.06-3.43-4.7-5.38-2.06-2.43-4.22-5.11-6.45-8.05.36-5.91.67-12.22.92-18.92,1.75-.47,3.5-.99,5.25-1.57,5.14-1.7,10.21-3.81,14.99-6.27.95-.49,1.88-.99,2.8-1.51,1.71,2.56,3.5,5.16,5.39,7.78,2.84,3.95,5.89,7.95,9.16,11.98,15.44,19.01,31.28,32.99,44.3,42.88Z"/>
      <path class="cls-26" d="m483.57,876.41c-6.83,2.53-13.65,5.06-20.48,7.59-.81,6.99-1.61,13.97-2.42,20.95-2.06-2.43-4.22-5.11-6.45-8.05.36-5.91.67-12.22.92-18.92,1.75-.47,3.5-.99,5.25-1.57,5.14-1.7,10.21-3.81,14.99-6.27.95-.49,1.88-.99,2.8-1.51,1.71,2.56,3.5,5.16,5.39,7.78Z"/>
      <path class="cls-34" d="m455.14,877.98c-.25,6.7-.56,13.01-.92,18.93-.26,4.37-.54,8.52-.83,12.43-3.36,45.3-8.04,58.74-14.13,69.81-16.03,29.16-43.03,43.94-58.82,50.86,13.83-35.68,21.73-66.91,26.47-90.75,1-5.06,5.35-27.36,8.3-58.07,1.91-.13,3.68-.31,5.22-.48,5.17.82,10.38.78,14.78.48,3.02-.2,5.66-.53,7.65-.77,4-.49,8.13-1.31,12.28-2.43Z"/>
      <path class="cls-27" d="m405.16,794.89c-.65,2.17-1.33,4.42-2.03,6.73-3.26,10.82-4.82,17.58-5.81,25.28-1.46,11.43-2.87,22.52-1.11,31.76.91,4.83,2.7,9.15,5.79,12.77,4.77,5.56,11.56,8.18,18.42,9.26,5.17.82,10.38.78,14.78.48,3.02-.2,5.66-.53,7.65-.77,4-.49,8.13-1.31,12.28-2.43,1.76-.47,3.51-.99,5.26-1.57,5.14-1.7,10.21-3.81,14.99-6.27.95-.49,1.88-.99,2.79-1.51,5.15-2.86,9.86-6.13,13.85-9.69,7.46-6.68,12.33-14.39,12.54-22.41.36-13.71-13.22-15.9-37.26-45.87-9.61-11.98-15.91-22.2-20.58-30.14"/>
      <path class="cls-42" d="m132.25,766.96c.21,10.89.8,56.22-8.51,120.43-10.41,71.8-16.94,90.62-9.71,105.71,4.22,8.81,51.81-5.13,58.13-7.98,62.24-24.55,82.5-36.06,128-61.83,43.63-24.71,64.15-42.57,96.05-64.62-1.76-9.24-.35-20.33,1.11-31.76.98-7.7,2.55-14.46,5.81-25.28,1.03-3.44,1.78-5.94,2.03-6.73,5.13-16.31,10.75-43.64,11.93-49.89,3.72-19.71,10.05-77.65,8-156-85.33,4.67-170.67,9.33-256,14-20.56,31.82-37.42,70.82-39,116-.6,17.07,1.58,18.04,2.16,47.96Z"/>
      <path class="cls-45" d="m420.31,783.9c-.77,15.17,1.5,27.27,4.52,36.67,2.07,6.48,4.68,12.19,7.02,17.24,4.66,10.12,8.22,17.66,4.32,23.65-4.97,7.62-20.15,9.83-28.06,3.99-3.3-2.43-5.13-6.12-5.94-10.85-1.64-9.41.77-22.98,3.75-39.01,1.37-7.34,3.28-15.96,6.06-25.58"/>
      <path class="cls-30" d="m132.59,774.5c4.66,3.81,11.14,9,19,15,4.02,3.07,7.27,5.42,16.23,11.87,14.42,10.38,22.01,15.74,29.77,21.13,0,0,10.69,7.42,29,15,1.64.68,5.09,2.05,9,1,3.59-.97,5.88-3.52,7-5,2.31,1.35,5.78,3.4,10,6,4.63,2.85,5.27,3.36,7,4,1.59.59,8.3,3.07,14,0,3.13-1.69,4.5-4.27,7-9,1.72-3.26,3.75-7.94,5-14,.01,1.54.32,14.68,10,21,.94.61,3.85,2.47,8,3,6.23.8,11.23-1.89,17-5,2.32-1.25,5.5-3.17,9-6,.94,1.03,2.24,2.16,4,3,6.35,3.03,13.01-.46,14-1,18.64-9.59,33.7-18.68,45-26,4.01-2.59,18.79-12.3,32.42-23.16,3.45-2.75,6.91-5.64,10.58-8.84,5.04-4.4,9.39-8.48,13-12-2.67-6-5.33-12-8-18-16.51,13.1-73.8,55.25-158,55-78.26-.23-132.42-36.94-150-50v22Z"/>
      <path class="cls-31" d="m414.59,886.5c4.96,1.12,11.43,2.09,19,2,8.55-.1,15.72-1.53,21-3v-8c-5.48,1.97-13.79,4.19-24,4-5.87-.11-10.95-.98-15-2-.33,2.33-.67,4.67-1,7Z"/>
    </g>
    <g id="Layer_37_copy" data-name="Layer 37 copy">
      <path class="cls-9" d="m537.96,931.43c-.6.5-1.58,1.1-2.48,1.31-7.26,2.18-14.82,3.4-22.41,3.32-28.34-.2-43.68-17.68-60.04-38.24,0,0-.33-.43-.33-.43,0,0,.03-.57.03-.57l.89-18.89.05-1.08c8.24-2.3,16.32-5.27,23.79-9.49,0,0,1.21-.65,1.21-.65l.74,1.12c14.83,22.38,33.19,42.4,54.01,59.34,1.39,1.08,3.59,2.89,4.56,4.27h0Zm-1.86-.32c-.79-.32-1.4-.45-1.91-.79-.42-.29-1.57-1.19-2.06-1.56-15.73-12.16-29.97-26.25-42.37-41.79-4.51-5.66-8.78-11.5-12.81-17.52l1.95.46c-7.36,4.15-15.23,7.29-23.37,9.53,0,0,1.13-1.41,1.13-1.41l-.94,18.96-.3-1c4.84,6.43,10.06,12.61,15.65,18.38,16.63,18.36,39.29,23.33,62.79,16.84,0,0,1.35-.37,1.35-.37.21-.06.42.17.89.27h0Z"/>
      <path class="cls-9" d="m455.98,876.91c.25,15.6-.79,31.22-2.21,46.7-1.56,15.23-3.04,30.54-8,45.18-10.83,29.16-36.76,50.59-64.78,62.46,0,0-2.93,1.29-2.93,1.29l1.12-3.02c18.13-48.14,29.09-98.54,34.83-149.58.85-.06,5.53-.52,6.47-.59,5.71.89,11.54.87,17.31.22,5.4-.45,10.74-1.22,15.96-2.61.66-.23,1.62-.25,2.24-.03h0Zm-1.69,2.13c0,.26.23.47.4.46l-.27.07-1.08.27c-10.23,2.41-23.69,3.79-32.77,2.21,0,0-5.27.48-5.27.48l1.26-1.22c-3.55,51.17-15.63,101.66-34.86,149.18,0,0-1.81-1.73-1.81-1.73,3.44-1.55,6.81-3.22,10.13-5,22.89-12.27,43.35-31.43,52.57-56.1,4.89-14.18,6.44-29.44,8.03-44.35,1.52-14.78,2-29.56,3.67-44.27h0Z"/>
      <path class="cls-9" d="m421,783.94c-.45,15.73,2.38,31.43,8.91,45.75,1.57,3.59,3.32,7.13,5.01,10.74,2.63,5.93,6.43,13.03,3.95,19.83-2.28,5.82-8.55,8.96-14.38,10.03-8.38,1.68-18.93-.95-22.48-9.49-5.41-12.78.67-34.44,3.07-47.96,1.63-7.79,3.63-15.51,6.01-23.1.37-1.09,2.06-.68,1.78.51-4.05,15.23-6.81,30.89-8.77,46.48-1.54,14.31-2.08,30.92,16.97,29.97,5.77-.43,13-2.81,14.66-8.97,1.01-5.45-1.85-10.75-3.92-15.91-1.58-3.61-3.25-7.22-4.76-10.93-6.25-14.75-8.73-31.1-7.43-47.04.03-.38.36-.66.74-.64.37.03.64.34.64.7h0Z"/>
      <path class="cls-9" d="m406.62,795.33c-2.61,9-5.32,17.87-6.85,27.07-1.29,9.08-2.58,18.56-2.47,27.67,0,25.09,18.16,31.09,40.03,28.84,20.91-1.49,47.34-11.85,60.19-28.95,5.03-6.77,7.61-16.61,1.4-23.51-6.05-6.94-13.57-12.82-19.85-19.71-4.34-4.58-8.49-9.33-12.43-14.25-7.93-9.79-14.89-20.37-21.11-31.27-.87-1.51,1.4-3.03,2.42-1.41,9.55,16.05,20.72,31.06,33.7,44.45,4.31,4.47,8.87,8.65,13.5,12.9,4.68,4.37,10.3,9.33,11.2,16.15,2.11,20.05-20.32,34.61-36.3,41.66-10.22,4.46-21.23,7.24-32.37,8.03-18.28,2.03-39.17-2.21-43.2-23.17-1.87-9.48-.64-19.26.5-28.64.75-6.22,1.74-12.58,3.36-18.66,1.59-6.12,3.53-12.09,5.38-18.06.64-1.87,3.41-1.05,2.91.88h0Z"/>
      <path class="cls-9" d="m133.53,766.92c.87,22.81.46,45.68-1.29,68.44-2.07,34.25-10.29,67.6-16.05,101.28-2.21,15.59-6.54,40.71-1.17,55.28,2.98,7.88,43.3-3.67,50.46-6.03,8.07-2.67,15.85-6.2,23.72-9.33,31.63-12.8,62.33-27.65,91.89-44.7,19.82-11.17,39.57-22.36,58.35-35.19,18.99-12.55,36.52-27.23,56.04-39.05,0,0-.53,1.29-.53,1.29-1.92-10.94-.13-21.88,1.18-32.71,1.36-10.83,4.68-21.29,7.81-31.67.2-.67.91-1.06,1.59-.86.68.2,1.06.92.85,1.59-3.11,10.31-6.38,20.58-7.72,31.27-1.29,10.79-3.13,21.92-1.06,32.64-18.13,14.28-36.93,27.65-55.94,40.77-28.44,19.11-58.55,35.51-88.82,51.48-25.98,13.41-53.07,24.54-80.27,35.18-9.72,3.7-53.64,16.66-59.49,7.57-3.54-7.32-3.41-15.92-3.39-23.85.75-22.92,4.9-45.46,9.26-67.89,9.57-44.45,12.86-90.01,12.02-135.45-.01-.7.55-1.28,1.25-1.3.7-.01,1.27.54,1.3,1.23h0Z"/>
    </g>
  </g>
  <g id="arms">
    <g id="Layer_38" data-name="Layer 38">
      <path class="cls-39" d="m257.1,760.26l26.23-49.05c.92-1.74,2.67-2.27,4.14-1.8,1.09.37,2.01,1.31,2.33,2.77,2.92,13.74,5.24,31.75,4.1,52.77-.96,17.75-4.17,33.47-8.09,46.72-2.25,7.59-4.75,14.38-7.21,20.29-3.4,8.22-12.3,11.73-19.52,7.72l-17.81-9.91"/>
      <path class="cls-15" d="m329.76,829.78l-18.13,9.9c-7.36,4.01-16.14.5-19.29-7.72-1.02-2.66-2.04-5.51-3.04-8.53-1.21-3.66-2.39-7.59-3.49-11.75,3.92-13.26,7.13-28.97,8.09-46.73,1.14-21.02-1.18-39.03-4.1-52.77-.32-1.46.85-2.69,1.74-.97l8.8,17.53,16.19,32.26c.44,5.77,2.42,14.4,5.71,29.88,2.23,10.5,3.8,18.2,5,23.92.84,4.99,1.67,9.98,2.52,14.98Z"/>
      <path class="cls-1" d="m299.59,757.5c-.14,7.68.69,16.58-4,40-.92,4.59-5.74,21.24-7,25-1.21-3.66-.68-2.66-1.78-6.82,3.92-13.26,7.13-28.97,8.09-46.73,1.14-21.02-1.18-39.03-4.1-52.77-.32-1.46.85-2.69,1.74-.97l5.05,9.29c-.36,6.03,2.31,15.51,2,33Z"/>
      <g>
        <path class="cls-38" d="m231.06,734.04c-10.32-7.38-15.47-11.07-19.64-16.95-10.21-14.41-10.13-33.41-9.27-52.02l-95.67,2.37c.4,6.7.87,12.95,1.37,18.73,4,46.47,9.43,59.22,14.29,67.81,2.5,4.43,5.79,8.62,10.11,12.97,9.25,9.36,23.22,19.59,44.31,34.89,48.2,34.99,56.53,34.04,61.03,30.92,2.55-1.78,3.19-3.55,6.67-17.97,1.37-5.71,3.21-13.42,5.77-23.91,3.79-15.49,6.06-24.11,6.67-29.89.46-4.39-.01-7.14-1.5-10-3.62-6.96-8.61-5.81-24.16-16.95Z"/>
        <path class="cls-28" d="m374.3,633.1c-.83.41-1.64.81-2.47,1.22.97,6.03,2.1,15,2.29,25.93.35,20.11.72,41.19-10.87,56.84-4.35,5.88-9.63,9.57-20.18,16.95-15.92,11.14-20.86,9.99-24.7,16.95-1.58,2.86-2.15,5.61-1.83,10,.44,5.77,2.42,14.4,5.71,29.89,2.23,10.49,3.81,18.2,5,23.91,3.01,14.42,3.59,16.2,6.09,17.97,4.4,3.12,12.69,4.08,62.03-30.92,3.45-2.44,6.71-4.76,9.8-6.96,2.37-1.7,4.63-3.32,6.81-4.89,2.96-2.14,5.74-4.17,8.34-6.1,12.18-9.08,20.58-16.2,26.42-23.39,1.76-2.15,3.28-4.31,4.61-6.53,5.13-8.6,10.98-21.34,16.48-67.81,2.63-22.25,5.11-51.63,5.31-86.67l-98.82,33.6Z"/>
      </g>
      <path class="cls-10" d="m107.59,673.5c10.3.59,24.73,1.16,42,1,35.15-.33,61.74-3.51,82-6,16.37-2.01,41.86-5.59,73-12,61.14-12.58,110.25-29.08,144-42,10.52-4.03,19.16-7.56,25-10-.33-2.33-.67-4.67-1-7-53.51,19.25-118.68,38.17-194,51-63.77,10.87-121.82,15.16-172,16,.33,3,.67,6,1,9Z"/>
    </g>
    <g id="Layer_38_copy" data-name="Layer 38 copy">
      <path class="cls-6" d="m256.06,759.7c6.75-14.93,15.37-30.37,23.06-44.87,0,0,1.7-3.18,1.7-3.18l.42-.79.21-.4.11-.2c2.6-4.9,9.61-3.49,10.31,2.03,7.41,35.62,4.8,73.18-6.96,107.57-1.54,4.51-3.2,9.32-5.06,13.72-3.24,7.68-12.65,12.07-20.4,8.33-6.21-3.33-12.78-7.44-18.76-11.1-1.22-.81-.17-2.66,1.14-2.05,3.71,1.92,9.13,4.52,12.85,6.55,1.72.86,4.61,2.52,6.25,3.25,1.9.84,4.01,1.03,6.03.74,4.34-.64,8.15-3.85,9.96-8,.63-1.39,1.82-4.3,2.43-5.76,12.87-33.35,16.15-70.23,9.95-105.39-.44-2.49-.94-4.97-1.45-7.44-.03-.15-.04-.18-.07-.28-.05-.16-.11-.3-.18-.42-.51-.99-1.93-.95-2.44.06,0,0-.81,1.49-.81,1.49-1.02,1.94-4.02,7.51-5.1,9.53-4.01,7.57-9.6,18.01-13.77,25.33-2.36,4.19-4.81,8.32-7.35,12.41-.77,1.23-2.67.21-2.08-1.11h0Z"/>
      <path class="cls-9" d="m203.98,665.15c-.69,17.09-1.27,35.89,8.7,50.45,2.36,3.52,5.46,6.42,8.88,9.12,6.92,5.27,14.11,10.61,21.74,14.88,2.91,1.67,6.04,3.07,8.88,5.03,10.08,7.28,6.09,19.84,3.83,29.86-2.08,8.55-7.43,30.61-9.41,38.89-1.05,4.33-2.05,8.64-3.29,13.02-.88,3.31-2.3,7.05-5.73,8.65-5,2.46-10.64.07-15.3-1.84-9.25-4.2-17.81-9.77-26.18-15.28-14.83-9.94-29.12-20.5-43.41-31.19-7.09-5.41-14.16-10.92-20.64-17.25-14.39-13.28-19.03-30.08-22-48.7-2.87-17.66-4.17-35.43-5.39-53.24-.07-2.37,3.39-2.74,3.64-.22,1.26,17.65,2.59,35.39,5.47,52.85,2.91,17.88,7.24,33.95,21,46.54,6.26,6.09,13.26,11.53,20.3,16.88,14.2,10.57,28.55,21.14,43.23,31.04,6.84,4.31,31.29,21.6,38.01,16.63,1.98-1.15,2.4-3.33,3.25-5.95,1.2-4.17,2.21-8.52,3.26-12.83l3.14-12.97,6.32-25.9c1.28-6.21,3.47-12.64,2.34-18.83-1.48-6.8-7.75-8.77-13.17-11.88-7.88-4.43-15.02-9.75-22.22-15.25-7.36-5.45-12.95-13.58-15.69-22.35-4.2-12.99-3.8-26.97-3.22-40.32.15-2.29,3.66-2.35,3.64.17h0Z"/>
      <path class="cls-6" d="m331.56,830.65c-4.89,2.93-9.99,5.79-15.06,8.56-2.35,1.23-5.5,3.23-8.17,3.63-7.73,1.73-15.52-3.76-17.69-11.11-2.35-6.55-4.39-13.33-5.99-20.09,9.78-31.77,11.18-66.04,4.23-98.54,0,0-.13-.61-.13-.61-.05-.22-.09-.58-.08-.87,0-1.94,2.32-3.36,3.61-1.07,1.68,3.23,5.6,10.87,7.32,14.22,6.1,11.98,12.35,23.96,17.97,36.15.94,11.5,4.15,22.94,6.55,34.26,1.47,6.4,2.91,12.84,4.48,19.22,1.05,5.27,2.1,10.93,2.95,16.25h0Zm-3.6-1.74c-.79-4.46-1.52-9.45-2.14-13.98-1.12-6.46-2.37-12.91-3.59-19.36-2.02-11.56-5.11-22.85-6.74-34.5-6.92-12.58-15.25-30.02-22.3-44.27,0,0-2.2-4.49-2.2-4.49l-.27-.56c-.08-.18-.13-.24-.22-.36-.06-.09-.12-.09-.03-.05.09.06.34.01.38-.03.07-.06-.03.15-.02.35,1.39,6.89,2.53,13.84,3.24,20.83,2.79,25.65,0,56.46-7.17,78.9,1.49,5.23,3.23,10.38,5.11,15.47.45,1.03,1.68,4.59,2.23,5.57,2.3,4.93,7.96,8.17,13.32,6.8,2.05-.37,4.82-2.2,6.68-3.17,4.52-2.47,9.02-4.84,13.73-7.16h0Z"/>
      <path class="cls-9" d="m474.79,599.51c-.34,33.12-2.54,66.22-6.91,99.06-2.86,19.07-4.88,39.28-14.76,56.32-7.34,12.12-18.98,20.65-30.09,28.99-17.92,12.95-35.7,25.94-54.4,37.76-5.86,3.66-11.87,7.23-18.16,10.2-3.97,1.79-7.77,3.51-12.35,3.77-7.94.02-9.25-6.46-10.62-12.8-2.31-10.71-7.84-37.43-10.19-48.55-1.4-8.13-4.5-17.6.6-25.11,3.2-4.94,9.21-6.75,13.98-9.62,4.69-2.61,9.38-5.76,13.74-8.92,6.5-4.7,13.31-9.61,17.57-16.4,11.54-17.37,9.8-43.09,9.04-63.35-.42-5.87-1.2-11.7-2.25-17.48,1.08-.56,2.57-1.25,3.59-1.77,1.98-.88,3.42,1.94,1.47,2.98,0,0-2.47,1.22-2.47,1.22,0,.02.92-1.83.91-1.73,1.63,10.97,2.15,22.13,2.24,33.18.3,18.98-.7,41.17-15.18,55.43-2.05,2-4.3,3.71-6.55,5.36-6.85,4.77-13.52,9.69-20.8,13.8-4.48,2.79-10,4.28-13.03,8.78-4.56,6.83-1.36,15.59-.16,23.08,2.4,11.14,7.91,37.66,10.28,48.47.82,2.97,1.14,6.52,3.16,8.84,4.68,4.52,14.51-1.3,19.45-3.63,14.51-7.73,28.02-17.26,41.49-26.7,13.39-9.59,27.03-18.93,39.42-29.77,8.14-7.08,15.35-15.21,19.58-25.18,6.26-15.08,8.78-31.48,11.24-47.62,4.57-32.66,6.75-65.66,6.85-98.63,0-.92.74-1.66,1.66-1.66.92,0,1.67.76,1.66,1.68h0Z"/>
    </g>
  </g>
  <g id="cape">
    <path class="cls-41" d="m482.85,588.31s-2.38,8.24-9.27,11.01c-.15.06-.3.12-.45.18-9.97,3.99-20.41,7.99-31.34,11.93-20.82,7.53-43.35,14.87-67.49,21.67-20.94,5.88-43.11,11.35-66.43,16.17-37.45,7.73-72.88,12.74-105.72,15.8-29.65,2.76-57.19,3.95-82.23,4.15-2.26.02-4.51.03-6.73.03-2.42,0-4.72-.64-6.7-1.81-2.44-1.41-4.41-3.6-5.51-6.32-2.96-7.26-5.53-12.03-6.84-28.8-2.54-32.66-3.32-40.05,1.81-49.87,2.12-4.05,4.49-7.07,6.15-8.97.91-7.42-.77-18.71,8.23-31.15,10.2-14.08,45.18-38.49,62.74-51.49,3.24-2.4,5.88-4.41,7.67-5.9,11.61,7.59,24.17,13.16,38.71,19.61,31.87,14.14,47.81,21.22,69.26,19.95,11.71-.69,30.29-9.12,66.96-25.94,14.75-6.76,25.75-12.05,34.04-16.24,3.01,1.79,6.04,3.52,9.07,5.2,28.11,15.65,56.28,27.56,69.71,44.84,2.68,3.44,5.75,10.14,6.96,19.18,1.45.84,4.51,1.93,5.92,4.98,4.34,9.37,4.36,22.92,1.48,31.79Z"/>
    <path class="cls-18" d="m398.78,487.52c-19.74,12.08-40.47,24.43-62.19,36.98-19.77,11.42-30.51,17.32-46,18-15.77.69-27.62-4.4-49-15-18.47-9.15-41.76-21.28-68.52-36.66,3.24-2.4,5.88-4.41,7.67-5.9,11.61,7.59,24.17,13.16,38.71,19.61,31.87,14.14,47.81,21.22,69.26,19.95,11.71-.69,30.29-9.12,66.96-25.94,14.75-6.76,25.75-12.05,34.04-16.24,3.01,1.79,6.04,3.52,9.07,5.2Z"/>
    <path class="cls-6" d="m388.99,480.38c16.62,9.88,34.11,18.17,50.89,27.87,8.41,4.95,16.69,10.24,23.8,17.01,0,0,2.61,2.62,2.61,2.62l2.39,2.84c1.63,1.86,2.92,4.16,3.92,6.42,2,4.57,3.12,9.42,3.62,14.3l-.38-.57c1.16.54,2.56,1.12,3.78,2.01,3.59,2.68,4.53,7.6,5.55,11.69,1.62,8.35,1.31,17.23-1.49,25.29-2.17,5.73-6.43,10-12.35,11.68,0,0-7.78,2.94-7.78,2.94-20.48,7.94-41.83,15.49-62.72,22.03-92.82,29.15-190.14,45.01-287.51,44.54-5.87.03-11.6-3.73-13.71-9.23-3.33-7.68-5.52-16.09-6.15-24.4-.43-4.77-.87-11.75-1.29-16.59-.45-5.52-.99-11.03-1.25-16.61-.21-5.63-.26-11.43,1.56-16.89,1.9-5.43,5.13-10.24,9.11-14.29,0,0-.16.36-.16.36.2-5.17-.15-10.47.79-15.66.96-5.95,3.44-11.7,7.02-16.57,2.74-3.59,6.16-7.1,9.47-10.18,19.11-17.66,41.16-31.78,61.76-47.51,1.37-1.01,2.9.89,1.66,2-19.99,16.21-42.21,30.51-61.21,47.88-7.58,6.8-14.02,14.78-16.12,24.89-1.18,4.91-1.18,10.07-2.02,15.32l-.03.19-.13.17-.02.02c-7.48,9.84-9.59,17.77-9.04,30.19.28,10.97,1.04,22.12,2.22,33.03.82,8.3,3.09,16,6.68,23.47,1.97,4.6,6.98,7.28,11.9,6.78,96.68-.68,193.32-14.62,285.75-43.25,20.89-6.29,42.19-14.05,62.55-22.01,0,0,7.74-2.97,7.74-2.97,2.57-.94,4.84-1.82,6.72-3.76,7.14-7.38,7.15-20.83,5.63-30.37-.49-2.64-1.21-5.24-2.21-7.71-.43-1.2-1.15-2.1-2.1-2.94-.96-.84-2.1-1.41-3.36-2.19l-.31-.19s-.07-.37-.07-.37c-1.27-6.86-3.3-14.01-7.88-19.4,0,0-2.33-2.67-2.33-2.67l-2.54-2.49c-6.95-6.57-15.12-11.75-23.38-16.56-16.77-9.59-34.35-17.83-50.91-27.9-1.46-.89-.13-3.09,1.34-2.23h0Z"/>
    <path class="cls-6" d="m300.79,605.38c30.64-3.27,59.13-15.24,87.76-25.97,10.69-4.15,21.64-7.75,32.37-11.78,10.68-4.23,21.84-7.81,32.96-10.67,7.44-1.97,14.94-3.7,22.51-5.14.15-.03.3.07.33.23-13.78,6.49-28.97,11.05-43.03,16.89-3.54,1.38-7.05,2.85-10.68,4.23-10.84,4-22.05,6.71-32.94,10.53-28.97,9.69-58.39,20.76-89.24,22.26-.16,0-.29-.11-.3-.27,0-.15.11-.28.26-.3h0Z"/>
    <path class="cls-6" d="m102.28,572.27c11.3,1.28,22.24,4.33,33.15,6.7,10.92,2.48,21.91,4.26,32.87,6.08,7.96,1.23,16.75,2.76,24.79,3.8,13.92,1.54,27.96,1.69,41.97.86-19.45,2.09-39.56,3.04-59.15,1.88-19.39-1.39-39.13-7.76-57.75-13.03-4.71-1.43-11.39-2.85-16.25-3.89-1.47-.29-1.2-2.56.37-2.4h0Z"/>
    <path class="cls-24" d="m106.59,547.5c20.67,8.36,51.2,18.36,89,22,68.85,6.62,126.04-11.29,127-7,.65,2.91-25.69,11.23-39,15-18.23,5.16-45.17,14.05-81,13-23.57-.69-58.96-4.2-101-18-.4-3.5-.57-8.83,1-15,1.06-4.16,2.61-7.52,4-10Z"/>
    <path class="cls-12" d="m473.59,538.5c-9.16,1.42-22.86,4.02-39,9-21.48,6.63-30.17,12.22-55,23-21.27,9.24-42,18.24-68,25-35.51,9.23-62.12,9.41-62,11,.1,1.38,20.27,1.39,39,0,26.83-1.99,47.02-6.59,53-8,25.82-6.09,35.46-11.57,77-27,13.04-4.84,32.63-11.93,57-20-.3-2.29-.63-4.62-1-7-.32-2.04-.65-4.04-1-6Z"/>
  </g>
  <g id="head">
    <g id="color-4" data-name="color">
      <path class="cls-35" d="m460.35,378.04c-1.25,3.7-2.51,7.32-3.78,10.87-2.2,6.18-4.4,12.13-6.52,17.88-13.27,35.95-22.63,48.94-33.17,58.86-2.4,2.26-5.6,5.05-15.93,10.76-3.07,1.69-6.76,3.64-11.24,5.91-8.29,4.19-19.29,9.48-34.04,16.24-36.67,16.82-55.25,25.25-66.96,25.94-21.45,1.27-37.39-5.81-69.26-19.95-14.54-6.45-27.1-12.02-38.71-19.61-2.52-1.64-4.99-3.38-7.43-5.25-4.59-3.5-9.07-7.46-13.5-12.05-13.01-13.48-19.02-25.65-29.27-46.88-5.23-10.82-12.07-26.65-19.4-49.63-.54-1.71-1.09-3.46-1.64-5.26,50.22-35.22,90.62-64.36,117.99-84.28,21.99-16,39.89-29.21,56.15-40.99,30,16.7,64.48,38.83,100.18,67.99,29.87,24.4,54.56,48.78,74.64,71,.62-.5,1.25-1.02,1.89-1.55Z"/>
      <path class="cls-21" d="m261.7,462.5c19.78-4.41,39.78-14.35,60-30-5.52,29.23-20.13,53.69-31,56-10.87,2.31-18-8-29-26Z"/>
      <g id="Layer_53" data-name="Layer 53">
        <path class="cls-43" d="m239.89,399.79c-.34,2-1.07,3.68-2.3,4.71-3.18,2.66-8.91,3-13,1-3.48-1.98-8.98-4.94-16-8-3.78-1.64-4.86-1.94-25-9-9.99-3.5-14.2-5-21-7-4.53-1.33-8.33-2.33-11-3-.56-.63-1.34-1.63-2-3-.52-1.05-2.07-4.39-1.14-8.43.04-.19.09-.38.14-.57.92-3.25,3.04-5.21,4-6,3.84-2.62,9.56-6.08,17-9,8.52-3.35,15.86-6.22,24-5,8.6,1.29,13.88,6.6,24.03,17,6.12,6.27,14.12,15.48,21.97,28,.55,2.8.73,5.79.3,8.29Z"/>
        <path class="cls-14" d="m415.59,376.5c-13.78,2.88-25.75,6.25-43,13-13.7,5.36-20.71,8.26-31,14-5,2-12,2-15-1-1.07-1.07-2.03-2.69-2.61-4.47-.6-1.81-.82-3.79-.39-5.53,8.38-16.06,18.22-26.7,25-33,9.52-8.84,18.61-17.06,32-18,6.75-.47,13.04.01,16,1,3,1,20,6,22,20,.11.82.19,1.61.22,2.38.26,5.57-1.46,9.86-3.22,11.62Z"/>
        <path class="cls-2" d="m239.89,399.79c-11.96-9.2-22.97-15.3-31.3-19.29-10.7-5.13-23.26-11.02-41-13-7.09-.79-13.55-.8-19.14-.43.04-.19.09-.38.14-.57.92-3.25,3.04-5.21,4-6,3.84-2.62,9.56-6.08,17-9,8.52-3.35,15.86-6.22,24-5,8.6,1.29,13.88,6.6,24.03,17,6.12,6.27,14.12,15.48,21.97,28,.55,2.8.73,5.79.3,8.29Z"/>
        <path class="cls-37" d="m418.81,364.88c-11.83-2.22-28.98-3.29-48.22,2.62-23.72,7.29-38.88,21.59-46.61,30.53-.6-1.81-.82-3.79-.39-5.53,8.38-16.06,18.22-26.7,25-33,9.52-8.84,18.61-17.06,32-18,6.75-.47,13.04.01,16,1,3,1,20,6,22,20,.11.82.19,1.61.22,2.38Z"/>
      </g>
      <g id="Layer_39_copy_2" data-name="Layer 39 copy 2">
        <path class="cls-13" d="m389.21,367.8c-.7,8.61-6.16,16.17-13.79,20.46-2.44,1.37-5.1,2.41-7.9,3.04-2.03.46-4.14.7-6.29.7-11.8,0-21.16-7.32-23.52-17.34,14.05-16.14,29.49-27.68,35.29-29.92,10.25,3.1,17.1,12.25,16.21,23.06Z"/>
        <path class="cls-33" d="m183.09,349c-1.56,1.38-7.08,6.58-8,15-1.22,11.19,6.71,18.77,8,20,9.14,8.73,24.72,10.31,35,3,5.44-3.87,7.93-9.19,9-12-6.26-6.52-13.23-13.53-21-21-3.02-2.91-6.57-6.23-12-7-4.63-.66-8.61.82-11,2Z"/>
        <path class="cls-11" d="m217.59,364c.98,5.57-5.58,14.51-14.5,14.5-7.73,0-14.48-6.74-14.5-14.5-.02-8.68,8.38-15.27,14-14.5,2.25.31,4.5,2.54,9,7,3.78,3.75,5.67,5.62,6,7.5Z"/>
        <circle class="cls-11" cx="362.09" cy="366" r="14.5"/>
        <path class="cls-4" d="m389.21,367.8c-.7,8.61-6.16,16.17-13.79,20.46-2.44,1.37-5.1,2.41-7.9,3.04-2.03.46-4.14.7-6.29.7-11.8,0-21.16-7.32-23.52-17.34,14.05-16.14,29.49-27.68,35.29-29.92,10.25,3.1,17.1,12.25,16.21,23.06Z"/>
        <path class="cls-23" d="m183.09,349c-1.56,1.38-7.08,6.58-8,15-1.22,11.19,6.71,18.77,8,20,9.14,8.73,24.72,10.31,35,3,5.44-3.87,7.93-9.19,9-12-6.26-6.52-13.23-13.53-21-21-3.02-2.91-6.57-6.23-12-7-4.63-.66-8.61.82-11,2Z"/>
        <circle class="cls-7" cx="189.09" cy="362" r="7.5"/>
        <circle class="cls-22" cx="352.09" cy="373" r="7.5"/>
      </g>
      <path class="cls-19" d="m270.59,429.5c1.53.31,3.79,2.55,6.43,2,4.78-1,5.82-1.89,6.43-1,.8,1.18-2.06,4.57-4.82,5-4.74.73-8.11-3.47-8.04-6Z"/>
      <path class="cls-40" d="m460.35,378.04c-1.25,3.7-2.51,7.32-3.78,10.87-3.89-4.8-8.57-10.37-13.98-16.41-6.2-6.93-30.89-34.1-83-73-19.44-14.51-44.89-32.29-76-51-23.97,19.71-49.95,39.84-78,60-32.53,23.38-64.19,44.16-94.45,62.63-.54-1.71-1.09-3.46-1.64-5.26,50.22-35.22,90.62-64.36,117.99-84.28,21.99-16,39.89-29.21,56.15-40.99,30,16.7,64.48,38.83,100.18,67.99,29.87,24.4,54.56,48.78,74.64,71,.62-.5,1.25-1.02,1.89-1.55Z"/>
      <path class="cls-36" d="m262.59,462.5c7.55-1.98,13.64-4.22,18-6,12.36-5.04,21.27-10.69,28-15,5.51-3.53,9.94-6.71,13-9-.33,2-.67,4-1,6-2.22,1.88-5.26,4.32-9,7-2.27,1.62-8.79,6.19-18,11-4.84,2.53-10.87,5.35-18,8-.36,2.75-.62,7.48,1,13,1.34,4.57,3.46,7.93,5,10-3.59-3.05-7.9-7.31-12-13-3.11-4.32-5.36-8.46-7-12Z"/>
    </g>
    <g id="outline-4" data-name="outline">
      <path class="cls-6" d="m111.51,365.25c8.67,29.64,20.59,58.77,36.82,85.03,14.09,21.63,35.92,36.8,59.33,47.06,14.16,6.27,28.46,12.7,42.91,18.12,12.05,4.46,24.38,7.49,37.12,6.74,7.56-.35,14.63-3.14,21.76-5.77,19.19-7.57,38.04-16.54,56.84-25.11,9.36-4.45,18.68-8.99,27.81-13.8,6.7-3.64,13.53-7.21,19.37-12.03,17.26-15.29,26.21-37.73,34.42-58.85,3.51-9.75,7.05-19.49,10.48-29.27.35-1.13,1.59-1.76,2.71-1.37,1.11.39,1.69,1.61,1.28,2.71-3.59,9.77-7.03,19.58-10.55,29.37-8.31,21.95-16.78,45.29-35.21,61.08-6.24,5.06-13.4,8.64-20.39,12.36-9.29,4.78-18.69,9.24-28.13,13.6-14.14,6.62-28.25,13.18-42.52,19.51-4.76,2.11-9.56,4.17-14.43,6.09-7.36,2.83-15.14,5.77-23.21,6.14-13.33.81-26.57-2.57-38.84-7.43-14.6-5.83-28.6-12.46-42.87-18.92-24.39-10.75-46.48-25.21-60.99-48.2-5.69-8.83-10.13-18.3-14.71-27.69-9.28-18.69-16.58-38.32-23-58.14-.7-2.63,3.01-4.02,4.03-1.24h0Z"/>
      <path class="cls-6" d="m260.85,462.08c1.44-.62,3.14-1.18,4.7-1.56,4.05-1.09,8.05-2.34,11.98-3.8,15.79-5.87,30.38-14.56,43.87-24.6,0,0,.99-.73.99-.73-1.5,9.3-3.98,18.44-7.42,27.24-5.58,14.27-20.33,43.3-38.12,26.27-4.77-4.68-8.54-10.79-12.21-16.29-1.22-1.9-2.95-4.46-3.78-6.53h0Zm1.71.82c.95,1.05,1.75,2.29,2.42,3.5,1.45,2.37,2.92,4.79,4.5,7.07,7.9,12.02,18.62,20.88,30.25,7.17,5.83-6.61,10.07-14.6,13.55-22.7,3.48-8.2,6.07-16.79,7.93-25.53,0,0,.79.48.78.48-13.25,10.59-27.83,19.73-43.76,25.71-3.98,1.52-8.05,2.8-12.17,3.88-1.24.37-2.21.36-3.5.41h0Z"/>
      <path class="cls-6" d="m274.81,422.65c-4.17,7.8-3.53,9.87,4.44,13.67.18.08.11.37-.08.37-6.5.26-12.6-3.98-8.95-10.89,1.07-1.67,2.58-2.89,4.37-3.44.17-.06.33.15.22.3h0Z"/>
      <g id="Layer_39_copy" data-name="Layer 39 copy">
        <path class="cls-11" d="m418.51,301.61c-22.76,28-66.41,52.24-101.6,59.59-2.68.55-5.43.97-8.25,1.25l-.57-1.06c24.97-14.19,56.97-31.96,82.24-45.86,6.84-3.76,20.71-11.29,27.59-14.97,0,0,.59,1.04.59,1.04h0Z"/>
        <path class="cls-11" d="m334.71,407.5c22.99-17.19,55.6-28.49,84-32-28.17,9.27-57.29,19.16-84,32h0Z"/>
        <path class="cls-11" d="m321.44,396.67c7.47-21.65,27.24-44.47,47.18-55.76,1.5-.76,3.21-1.44,4.86-1.76,12.72-3.36,27.62-.53,37.13,8.81,3.98,3.98,7.53,8.81,8.38,14.46,0,0-.57.17-.57.17-1.82-4.9-5.68-8.92-9.77-12.07-9.43-7.38-22.32-9.01-33.68-5.76-3.85.95-7,3.43-10.23,5.65-12.81,9.38-24.21,20.78-33.85,33.4-3.24,4.2-6.21,8.61-8.92,13.17l-.52-.3h0Z"/>
        <path class="cls-11" d="m230.82,409.5c-26.69-12.83-55.86-22.73-84-32,28.37,3.5,61.03,14.81,84,32h0Z"/>
        <path class="cls-11" d="m147.6,302.56c34.08,4.82,72.87,26.21,98.42,48.97,4.04,3.72,7.93,7.51,11.41,11.86,0,0-.57,1.06-.57,1.06-27.73-14.25-55.65-29.67-82.71-45.06-6.78-3.86-20.43-11.79-27.15-15.78,0,0,.59-1.04.59-1.04h0Z"/>
        <path class="cls-11" d="m243.82,398.82c-9.11-12.78-19.21-24.4-30.7-34.9-5.59-4.99-11.44-10.07-18.01-13.5-1.14-.57-2.18-.95-2.95-1.04h-.11s-.94.12-.94.12c-10.76,1.25-21.26,4.34-31.28,8.55-4.56,1.92-9.27,4.13-13.42,6.67-.01-.05-.08-.03-.05-.03.13-.03.29-.12.44-.18-.13.1-.24.21-.41.3.01,0-.07.02-.1-.03-.01-.03,0-.06,0-.09,0-.02.11-.15.12-.17,1.64-1.75,3.56-3.22,5.47-4.67,10.75-7.9,23.29-13.36,36.46-15.73.97-.19,2.02-.33,3-.47,1.31-.19,3.06.16,4.19.57,8.39,3.33,15.11,9.53,21.48,15.58,11.22,11.18,20.83,24.35,26.79,39.02h0Z"/>
      </g>
      <path class="cls-3" d="m544.19,270.59c-1.74,18.33-13.26,32.22-36.31,60-17.58,21.18-34.69,36.83-47.53,47.45-.64.53-1.27,1.05-1.89,1.55-20.08-22.22-44.77-46.6-74.64-71-35.7-29.16-70.18-51.29-100.18-67.99-16.26,11.78-34.16,24.99-56.15,40.99-27.37,19.92-67.77,49.06-117.99,84.28-.34.24-.69.48-1.03.72-13.03-8.25-30.83-20.88-49.42-39-27.43-26.74-46.55-45.37-49.42-69-3.45-28.42,22.2-54.33,73.63-105,49.07-48.34,90.27-76.61,105.9-87,62.39-41.49,93.59-62.24,125.07-56,24.6,4.88,44.31,24.92,83.71,65,23.57,23.98,41.3,45.88,53.46,62,12.75,10.32,30.86,26.45,49.42,49,27.14,32.99,46.02,55.93,43.37,84Z"/>
      <path class="cls-20" d="m283.59,240.5c18.05-15.57,28.41-19.74,47-33,57.71-41.17,86-52,120-70,8,6,4,1,9,7-35.17,13.81-62.52,28.4-82,40-24.62,14.66-46.89,30.61-59.85,39.9-11.21,8.03-20.47,14.99-27.15,20.1l-7-4Z"/>
      <path class="cls-6" d="m284.16,239.67c49.67,26.37,95.49,59.89,136.22,98.62,13.57,12.93,26.57,26.45,38.86,40.58l-1.46-.11c19.66-16.36,37.47-34.79,53.43-54.78,9.64-12.05,20.11-23.78,26.83-37.74,13.09-28.54-4.26-56.09-21.62-78.32-11.86-15.05-23.89-30.07-37.45-43.64-8.99-9.07-18.53-17.59-28.51-25.55-.64-.51-.74-1.44-.23-2.08.51-.64,1.44-.74,2.08-.23,19.93,16.3,37.94,34.88,54.05,54.93,12.08,15.05,24.97,29.78,33.42,47.31,7.41,15.27,9,33.49,1.49,49.07-4.01,8.45-9.65,16.1-15.35,23.4-8.02,10.09-16.17,19.94-24.73,29.58-12.87,14.38-27,27.64-42.06,39.69,0,0-.77.62-.77.62l-.69-.73c-19.14-20.41-39.33-39.83-60.56-58.06-28.32-24.26-58.47-46.37-90.05-66.19-7.88-4.99-15.88-9.79-23.93-14.53-.51-.3-.67-.95-.38-1.45.29-.49.91-.66,1.41-.4h0Z"/>
      <path class="cls-6" d="m108.45,365.63c40.93-30.17,83.7-60.86,124.9-90.54,24.54-18.02,59.09-43.27,83.83-60.29,42.68-29.12,87.52-55.09,133.78-78.07,0,0-.34,1.44-.34,1.44-5.2-5.82-10.06-11.89-14.99-17.9-9.86-12.02-20.17-23.66-30.9-34.91-16.28-16.61-32.57-33.58-49.83-49.1-5.81-5.09-11.82-9.96-18.25-14.08-3.14-2.02-6.61-3.9-9.99-5.48-18.32-8.44-36.99-5.72-54.99,2.21-14.19,6.14-27.54,14.21-40.66,22.41-26.16,16.79-52.51,33.54-77.15,52.55-24.69,18.94-48.01,39.64-70.2,61.45-21.75,22.03-45.32,42.97-62.7,68.73-14.67,22.27-12.82,42,2.55,63.37,9.13,12.51,20.36,23.4,31.36,34.31,13.71,13.77,28.46,26.49,44.43,37.56,2.94,2.18,6.29,4.03,9.15,6.33h0Zm.04,1.93c-3.55-1.87-7.02-4.34-10.36-6.56-16.22-10.94-31.18-23.66-45.04-37.44-16.32-16.43-35.33-32.88-42.92-55.5-8.33-24.78,7.13-46.43,22.48-64.4,36.67-40.5,76.18-78.63,119.29-112.24,24.65-19.22,50.92-36.12,77.14-53.12,25.45-15.52,56.67-36.71,87.8-29.11,23.1,5.58,41.12,24.28,57.78,40.15,22.21,21.97,44.07,44.37,63.63,68.77,5.24,6.31,10,13,14.57,19.82-61.66,31.38-120.21,68.36-175.76,109.58-54.47,40.3-113.08,81.49-168.61,120.06h0Z"/>
    </g>
  </g>
</svg>