<?xml version="1.0" encoding="UTF-8"?>
<svg xmlns="http://www.w3.org/2000/svg" xmlns:xlink="http://www.w3.org/1999/xlink" viewBox="0 0 1000 500">
  <defs>
    <style>
      .cls-1 {
        fill: url(#linear-gradient);
      }

      .cls-1, .cls-2, .cls-3, .cls-4, .cls-5, .cls-6, .cls-7, .cls-8, .cls-9, .cls-10, .cls-11, .cls-12, .cls-13, .cls-14, .cls-15, .cls-16, .cls-17, .cls-18, .cls-19, .cls-20, .cls-21, .cls-22 {
        stroke-width: 0px;
      }

      .cls-2 {
        fill: #3d2d24;
      }

      .cls-3 {
        fill: url(#linear-gradient-6);
      }

      .cls-4 {
        fill: url(#radial-gradient-8);
      }

      .cls-6 {
        fill: url(#linear-gradient-5);
      }

      .cls-7, .cls-23 {
        fill: none;
      }

      .cls-8 {
        fill: url(#linear-gradient-2);
      }

      .cls-9 {
        fill: url(#New_Gradient_Swatch_1);
      }

      .cls-10 {
        fill: url(#linear-gradient-7);
      }

      .cls-11 {
        fill: url(#radial-gradient-2);
      }

      .cls-12 {
        fill: url(#radial-gradient-7);
      }

      .cls-13 {
        fill: url(#linear-gradient-3);
      }

      .cls-23 {
        stroke: #3d2d24;
        stroke-linecap: round;
        stroke-miterlimit: 10;
        stroke-width: 4px;
      }

      .cls-14 {
        fill: url(#radial-gradient-5);
      }

      .cls-15 {
        fill: url(#radial-gradient);
      }

      .cls-16 {
        fill: url(#linear-gradient-8);
      }

      .cls-17 {
        fill: url(#radial-gradient-6);
      }

      .cls-18 {
        fill: url(#radial-gradient-9);
      }

      .cls-19 {
        fill: url(#radial-gradient-3);
      }

      .cls-20 {
        fill: url(#linear-gradient-4);
      }

      .cls-21 {
        fill: #35263f;
      }

      .cls-22 {
        fill: url(#radial-gradient-4);
      }
    </style>
    <clipPath id="clippath">
      <rect class="cls-7" x="-2594.98" y="884.09" width="1920" height="1080"/>
    </clipPath>
    <linearGradient id="linear-gradient" x1="121.34" y1="250.41" x2="588.21" y2="-155.32" gradientUnits="userSpaceOnUse">
      <stop offset="0" stop-color="#372642"/>
      <stop offset=".38" stop-color="#382845"/>
      <stop offset=".67" stop-color="#3c2f4e"/>
      <stop offset=".93" stop-color="#443a5f"/>
      <stop offset="1" stop-color="#473f65"/>
    </linearGradient>
    <radialGradient id="radial-gradient" cx="260.76" cy="204.34" fx="221.14" fy="119.73" r="165.41" gradientTransform="translate(240.25 -178.02) rotate(39.85) scale(1 1.37)" gradientUnits="userSpaceOnUse">
      <stop offset=".09" stop-color="#ac8457"/>
      <stop offset=".38" stop-color="#996c41"/>
      <stop offset=".77" stop-color="#845229"/>
      <stop offset="1" stop-color="#7d4921"/>
    </radialGradient>
    <linearGradient id="linear-gradient-2" x1="81.38" y1="170.61" x2="517.26" y2="168.74" gradientUnits="userSpaceOnUse">
      <stop offset="0" stop-color="#56331d"/>
      <stop offset=".32" stop-color="#6d492d"/>
      <stop offset=".99" stop-color="#ab8356"/>
      <stop offset="1" stop-color="#ac8457"/>
    </linearGradient>
    <radialGradient id="radial-gradient-2" cx="142.99" cy="202.36" fx="155.1" fy="65.5" r="164.34" gradientTransform="translate(166.81 -95.56) rotate(33.15) scale(1 1.3)" gradientUnits="userSpaceOnUse">
      <stop offset="0" stop-color="#473f65"/>
      <stop offset="1" stop-color="#3d2551"/>
    </radialGradient>
    <radialGradient id="radial-gradient-3" cx="249.04" cy="176.22" fx="249.04" fy="176.22" r="21.25" gradientUnits="userSpaceOnUse">
      <stop offset="0" stop-color="#f5846f"/>
      <stop offset=".5" stop-color="#d55b55"/>
      <stop offset="1" stop-color="#ce3045"/>
    </radialGradient>
    <linearGradient id="New_Gradient_Swatch_1" data-name="New Gradient Swatch 1" x1="798.72" y1="155.92" x2="882.59" y2="155.92" gradientUnits="userSpaceOnUse">
      <stop offset="0" stop-color="#3d2551"/>
      <stop offset="1" stop-color="#473f65"/>
    </linearGradient>
    <radialGradient id="radial-gradient-4" cx="384.59" cy="286.03" fx="384.59" fy="286.03" r="268.66" gradientUnits="userSpaceOnUse">
      <stop offset="0" stop-color="#473f65"/>
      <stop offset="1" stop-color="#3d2551"/>
    </radialGradient>
    <radialGradient id="radial-gradient-5" cx="543.82" cy="63.6" fx="543.82" fy="63.6" r="69.14" gradientUnits="userSpaceOnUse">
      <stop offset="0" stop-color="#473f65"/>
      <stop offset=".39" stop-color="#453a61"/>
      <stop offset=".81" stop-color="#402d57"/>
      <stop offset="1" stop-color="#3d2551"/>
    </radialGradient>
    <radialGradient id="radial-gradient-6" cx="102.54" cy="416.68" fx="125.49" fy="392.56" r="103.48" gradientTransform="translate(-108.66 251.79) rotate(-29.52) scale(1 .59)" gradientUnits="userSpaceOnUse">
      <stop offset="0" stop-color="#ac8457"/>
      <stop offset="1" stop-color="#7d4921"/>
    </radialGradient>
    <radialGradient id="radial-gradient-7" cx="461.62" cy="97.79" fx="496.89" fy="88.12" r="84.6" gradientTransform="translate(108.97 402.17) rotate(-48.52) scale(1 .64)" gradientUnits="userSpaceOnUse">
      <stop offset="0" stop-color="#ac8457"/>
      <stop offset=".11" stop-color="#a57c50"/>
      <stop offset=".69" stop-color="#88572e"/>
      <stop offset="1" stop-color="#7d4921"/>
    </radialGradient>
    <linearGradient id="linear-gradient-3" x1="517.61" y1="509.78" x2="1080.9" y2="-15.27" xlink:href="#linear-gradient"/>
    <radialGradient id="radial-gradient-8" cx="594.95" cy="296.41" fx="603.94" fy="296.41" r="108.85" gradientTransform="translate(-122.07 208.06) rotate(-27.54) scale(1 1.38)" gradientUnits="userSpaceOnUse">
      <stop offset="0" stop-color="#776d5c"/>
      <stop offset="1" stop-color="#563d2c"/>
    </radialGradient>
    <radialGradient id="radial-gradient-9" cx="916.78" cy="207.19" fx="890.55" fy="174.8" r="106.19" gradientTransform="translate(196.15 -429.61) rotate(23.89) scale(1 1.4)" xlink:href="#radial-gradient-8"/>
    <linearGradient id="linear-gradient-4" x1="529.37" y1="452.47" x2="676.53" y2="75.72" gradientUnits="userSpaceOnUse">
      <stop offset="0" stop-color="#3f2b21"/>
      <stop offset=".23" stop-color="#422e24" stop-opacity=".92"/>
      <stop offset=".51" stop-color="#4b3730" stop-opacity=".68"/>
      <stop offset=".82" stop-color="#5a4742" stop-opacity=".28"/>
      <stop offset="1" stop-color="#655250" stop-opacity="0"/>
    </linearGradient>
    <linearGradient id="linear-gradient-5" x1="877.15" y1="322.83" x2="1074.18" y2="35.52" gradientUnits="userSpaceOnUse">
      <stop offset="0" stop-color="#3f2b21"/>
      <stop offset="1" stop-color="#655250" stop-opacity="0"/>
    </linearGradient>
    <linearGradient id="linear-gradient-6" x1="432.04" y1="440.35" x2="505.63" y2="223.48" gradientUnits="userSpaceOnUse">
      <stop offset="0" stop-color="#2c173f"/>
      <stop offset=".23" stop-color="#2e1b42" stop-opacity=".9"/>
      <stop offset=".54" stop-color="#36264e" stop-opacity=".6"/>
      <stop offset=".91" stop-color="#433960" stop-opacity=".13"/>
      <stop offset="1" stop-color="#473f65" stop-opacity="0"/>
    </linearGradient>
    <linearGradient id="linear-gradient-7" x1="436.98" y1="166.41" x2="710.25" y2="165.24" gradientUnits="userSpaceOnUse">
      <stop offset="0" stop-color="#2c173f"/>
      <stop offset=".24" stop-color="#2d1941" stop-opacity=".93"/>
      <stop offset=".5" stop-color="#332249" stop-opacity=".72"/>
      <stop offset=".78" stop-color="#3c3056" stop-opacity=".37"/>
      <stop offset="1" stop-color="#473f65" stop-opacity="0"/>
    </linearGradient>
    <linearGradient id="linear-gradient-8" x1="364.22" y1="487.92" x2="428.23" y2="299.3" xlink:href="#linear-gradient-6"/>
  </defs>
  <g id="color-5" data-name="color">
    <g id="head-5" data-name="head">
      <path class="cls-1" d="m436.89,170.04c-18.29,18.6-37.5,29.04-50.32,34.77-5.14,3.59-13.3,8.83-24.01,13.75-10.81,4.97-19.26,7.34-22.62,8.34-28.67,8.51-38.28,21.37-72.49,35.09-28.05,11.26-50.36,13.84-55.97,14.82-37.39,6.52-49.61,2.08-57.27-3.28-19.82-13.85-20.57-43.51-21.27-102.27-.7-58.76-.72-88.83,15.54-122.73,6.95-14.49,15.24-26.65,23.55-36.67,11.2-1.52,29.95-3.72,53.36-4.64,43.03-1.69,50.58,2.96,89.19.41,20.16-1.33,29.26-3.34,60.95-4.91,26.67-1.33,38.69-.83,50.66,6.27,2.6,1.54,9.92,6.2,24.2,27.27,26.89,39.68,25.03,38.74,26.8,49.3,6.24,37.16-26.65,70.6-40.3,84.48Z"/>
      <path class="cls-15" d="m438.11,170.45c-1.37,15.38-8.34,34.58-98.18,101.46-111.34,82.88-144.84,86.3-167.73,84.27-11.33-1-35.99-3.51-57.27-21.27-38.52-32.14-39.47-92.09-30.27-129.27.05-.19.09-.38.15-.57,16.81-66.84,76.72-101.37,118.48-125.43,17.29-9.96,32.92-16.72,47.45-21.66,18.28-6.2,34.82-9.52,50.73-12.71,39.65-7.95,57.05-4.58,70.37,2.46,4.1,2.16,14.97,8.46,30.27,30.27,13.01,18.54,39.26,55.95,36,92.45Z"/>
      <path class="cls-8" d="m232.75,267.82c-12.82,9.27-25.64,18.54-38.46,27.82-10.55,2.82-31.99,6.82-54-2.46-36.25-15.28-47.31-55.32-52.36-73.64-.31-1.11-1.69-6.38-3.12-14.47,12.59-34.59,30.46-57.41,42.39-70.34,18.58-20.15,36.7-31.45,55.36-43.09,32.23-20.1,59.87-30.13,69.82-33.55,32.64-11.21,62.54-15.76,86.73-17.32-11.2,1.54-25.15,4.36-40.64,9.68-18.67,6.41-32.52,14.03-40.09,18.55-21.14,12.61-34.81,25.79-38.52,29.45-9.51,9.39-36.77,38.69-49.09,85.3-5.56,21.04-14.05,53.14,4.3,72.41,18.73,19.67,52.85,12.72,57.68,11.66Z"/>
      <path class="cls-11" d="m339.93,226.91c-4.71,27.53-9.42,55.07-14.13,82.61-17.72,13.49-38.64,27.59-62.78,40.93-64.68,35.74-104.03,57.48-142.36,42.55-25.26-9.84-45.48-36.02-85.91-88.36-14.53-18.81-23.83-27.78-24.55-36-3.48-39.96,19.37-90.03,52.37-148.1C105.97,44.18,132.23,18.9,153.38,15c6.61-1.22,12.8-2.26,18.64-3.13-8.31,10.02-16.6,22.18-23.55,36.67-16.26,33.9-16.24,63.97-15.54,122.73.7,58.76,1.45,88.42,21.27,102.27,7.66,5.36,19.88,9.8,57.27,3.28,30.23-5.28,76.21-17.59,128.46-49.91Z"/>
      <path class="cls-19" d="m266.29,190.09c-1.84,4.28-6.12,9.46-11.45,9.82-5.51.37-9.69-4.55-15.55-11.46-2.52-2.97-5.68-7.15-8.72-12.64,3.48-3.14,7.21-6.31,11.18-9.45,6.62-5.24,13.17-9.83,19.53-13.85.92,5.34,1.83,9.74,2.56,13.03,2.97,13.43,5.1,18.39,2.45,24.55Z"/>
    </g>
    <path class="cls-9" d="m882.59,141.74c-3.04.08-6.09.55-9.11,1.51-12.41,3.94-16.84,18.9-39.36,28.15-4.24,1.74-10.67,4.54-17.19,2.33-3.93-1.33-6.85-4.06-7.98-5.12-3.81-3.56-5.68-7.43-6.54-9.61-2.18-5.49-1.88-10.35-1.84-11.46.1-2.88-.59-6.4-1.85-10.23,11.44.26,23.06.67,34.85,1.23,16.75.81,33.09,1.89,49.02,3.2Z"/>
    <path class="cls-22" d="m700.72,75.49c-2.21.46-4.38,1.02-6.52,1.69-3.74,1.17-29.45,9.63-42.14,34.4-5.8,11.32-6.98,22.35-7.49,27.51-1.43,14.39,1.67,21.46-1.51,28.47-.39.87-.88,1.74-1.49,2.62-4.4,6.37-11.65,8.7-19.37,11.18-11.8,3.8-21.56,3.32-24.54,3.28-3.98-.06-8.03.46-12.1,1.5-35.93,9.04-73.93,57.17-88.86,86.51-1.04,2.05-1.8,3.69-2.1,4.32-7.03,14.72-20.62,43.19-9.84,61.58,4.08,6.96,9.55,8.88,14.8,11.32,4.24,1.96,8.33,4.25,11.44,9.79,10.99,19.57-12.43,40.32-8.2,73.9.19,1.48.42,2.93.69,4.35,5.24,27.08,25.71,43.74,27.19,44.91,11.36,8.98,24.56,12.91,37.78,13.95-19.53-.05-34.94-2.12-43.62-6.41-47.05-23.21-95.99-52.22-153-94.91-22.62-16.94-49.01-34.99-70.41-50.75-36.99,40.47-72.98,79.18-117.41,114.39-6,4-12,7-19,8-12.08,2.42-21.57-2.3-31.07-8.42,23.18-6.63,40.72-14.14,44.8-28.85,7.72-27.91-35.06-74.37-73.64-70.37-14.53,1.51-25.62,9.87-35.62,20.41-1.59-4.92-1.55-9.85,1.53-14.77,4-6,10-8,15-12,21.28-9.66,49.2-28.73,84-50,31.78-19.43,50.41-36.34,70.96-52.6,2.34-6.97,60.2-53.56,72.77-66.13,1-1,72.27-60.27,122.27-77.27,6.95-2.21,13.8-4.12,20.64-5.79,14.83-3.64,29.63-6.16,45.36-8.21,5,0,10-1,15-1,39.76-5.06,78.99-8.55,118.46-11.99,15.13-1.32,30.3-2.62,45.54-4.01,5.81-.53,12.23-1.12,19.7-.6Z"/>
    <path class="cls-14" d="m635.48,80.1c-15.79,2.48-31.88,5.19-48.26,8.16-16.52,2.99-32.68,6.13-48.47,9.38-1.15-2.14-22.01-39.65-60.55-40.91-9.94-.33-18.67,1.83-26.05,4.96,1.84-4.9,4.13-8.26,5.6-9.05,30.09-16.21,57.72-18.63,75.27-21.28,34.64-5.22,63.25.57,85.09,22.09,8.53,8.41,13.93,17.93,17.37,26.65Z"/>
    <path class="cls-17" d="m178.75,429.82c-4.08,14.71-21.62,22.22-44.8,28.85-6.5,1.86-13.45,3.65-20.66,5.51-24.92,6.43-72.95,18.8-85.09,0-12.65-19.59,21.43-60.96,27.82-68.73,4.41-5.35,8.82-10.71,13.47-15.59,10-10.54,21.09-18.9,35.62-20.41,38.58-4,81.36,42.46,73.64,70.37Z"/>
    <path class="cls-12" d="m538.75,97.64c-6.23,4.65-15.66,11.24-27.82,18-16.08,8.93-42.33,23.16-76.91,24.54-16.42.66-29.32,1.17-34.36-6.54-8.49-13,10.37-41.62,29.45-57.28,4.64-3.81,12.45-10.22,23.04-14.67,7.38-3.13,16.11-5.29,26.05-4.96,38.54,1.26,59.4,38.77,60.55,40.91Z"/>
    <path class="cls-13" d="m985.02,280.49c-.15,20.43-4.76,35.93-8.2,47.5-7.59,25.47-15.42,51.78-36.09,63.34-17.29,9.68-27.8.22-41,12.32-11.35,10.39-7.42,20.9-16.41,36.95-12.23,21.85-34.61,29.38-62.32,38.7-20.73,6.98-43.34,14.58-70.53,8.8-29.83-6.34-33.25-22-56.47-24.42-.83-.09-1.69-.16-2.58-.21-22.96-1.34-26.53,11.66-60.69,22.87-8.85,2.9-23.13,7.59-39.12,9.66-.44.04-.88.06-1.32.09-7.71.47-15.02.69-21.83.68-13.22-1.04-26.42-4.97-37.78-13.95-1.56-1.23-24.15-19.62-27.88-49.26-4.23-33.58,19.19-54.33,8.2-73.9-6.96-12.4-18.87-8.54-26.24-21.11-10.78-18.39,2.81-46.86,9.84-61.58,5.23-10.95,40.48-84.8,103.33-93.25,24.54-3.3,38.62-3.52,43.5-14.7,3.62-8.31,1.91-9.46,2.43-29.29.35-13.45,5.64-23.42,8.2-28.15,13.58-25.09,38.79-33.36,42.14-34.4.01,0,.03-.01.06-.02,0,0,3.17-.98,6.46-1.67,2.01-.42,50.27-5.16,80.21,30.74,7.16,8.59,14.47,20.93,17.79,31.08,1.26,3.83,1.95,7.35,1.85,10.23-.04,1.11-.34,5.97,1.84,11.46.86,2.18,2.73,6.05,6.54,9.61,1.13,1.06,4.05,3.79,7.98,5.12,6.52,2.21,12.95-.59,17.19-2.33,22.52-9.25,26.95-24.21,39.36-28.15,3.02-.96,6.07-1.43,9.11-1.51,20.27-.5,40.4,16.63,51.58,26.15,2.4,2.04,51.32,45.06,50.85,112.6Z"/>
    <g id="shoes">
      <path class="cls-4" d="m674.57,395.45c-.64,1.14-13.28,23.12-37.64,27.82-15.27,2.95-29.53-1.97-41.78-9.41-12.52-7.6-22.95-17.82-30.22-24.95-50.39-49.41-53.14-114.42-55.64-173.46-.75-17.7-.03-30,3.92-37.58,1.48-2.86,3.41-5.04,5.9-6.6,17.29-10.82,50.99,15.07,65.46,26.18,48.97,37.62,68.87,85.53,78.54,109.64,14.43,35.97,25.1,63.79,11.46,88.36Z"/>
      <path class="cls-18" d="m975.66,277.64c-10.72,23.73-24.56,54.38-49.09,58.9-1.19.22-2.4.38-3.63.47-27.7,2.12-61.92-28.04-81.47-77.37,6.8-21.02,18.66-52.19,39.28-86.73,7.56-12.68,62.48-104.69,91.63-94.91.35.12.69.25,1.03.4,17.72,7.59,18.16,52.46,18.61,97.78.31,31.88.29,64.58-16.36,101.46Z"/>
      <path class="cls-20" d="m674.57,395.45c-.64,1.14-13.28,23.12-37.64,27.82-15.27,2.95-29.53-1.97-41.78-9.41-18.41-15.42-31.2-39.83-47.4-70.77-2.9-5.53-30.29-59.12-35.18-132.55-.87-13.12-.83-23.85.64-32.67,1.48-2.86,3.41-5.04,5.9-6.6,17.29-10.82,50.99,15.07,65.46,26.18,48.97,37.62,68.87,85.53,78.54,109.64,14.43,35.97,25.1,63.79,11.46,88.36Z"/>
      <path class="cls-6" d="m975.66,277.64c-10.72,23.73-24.56,54.38-49.09,58.9-1.19.22-2.4.38-3.63.47-4.69-2.63-9.45-6.2-13.56-11.1-10.92-13.05-13.21-30.83-5.72-76.09,7.79-47.1,14.93-87.65,43.36-134.18,8.38-13.72,17.38-28.46,26.39-37.24,17.72,7.59,18.16,52.46,18.61,97.78.31,31.88.29,64.58-16.36,101.46Z"/>
    </g>
    <path class="cls-3" d="m502.8,433.56c.14,1.1.31,2.2.31,2.2.11.73.24,1.44.38,2.15-14.72-16.29-24.38-30.94-30.61-41.64-3.22-5.54-5.38-10.48-13.91-26.18-7.34-13.51-11.08-20.37-14.52-25.57-7.26-10.97-9.99-12.72-16.57-23.93-5.95-10.13-7.98-15.96-8.59-17.8-.91-2.71-7-20.95-2.45-23.93,2.54-1.67,9.47.74,30.07,22.09,19.57,21.48,34.64,37.08,40.3,42.14,2.32,2.07,4.17,3.73,7.16,5.32,4.8,2.55,7.03,2.13,10.84,4.7,3.27,2.22,4.93,5.06,5.8,6.55,2.89,4.96,3.19,10.07,3,14.32-.47,10.6-3.83,12.69-8.18,28.84,0,0-4.71,17.49-3.02,30.74Z"/>
    <path class="cls-10" d="m643.06,167.56c-.39.87-.88,1.74-1.49,2.62-4.4,6.37-11.65,8.7-19.37,11.18-11.8,3.8-21.56,3.32-24.54,3.28-3.98-.06-8.03.46-12.1,1.5-14.71-8.62-34.25-18.22-58.27-25.5-24.35-7.39-44.43-9.71-44.18-12.28.31-3.16,31.15-3.12,54.82-1.63,16.09,1.01,39.06,2.56,68.73,9.81,13.11,3.22,25.26,6.98,36.4,11.02Z"/>
    <path class="cls-16" d="m332.77,302.79c5.67,9.54,13.45,22.02,23.32,36.2,23.09,33.17,43.72,55.65,47.86,60.14,17.51,18.94,42.87,43.34,77.32,67.91-38.59-24.01-78.17-50.06-118.43-78.34-20.68-14.52-40.72-29.06-60.14-43.57,4.86-5.58,9.9-11.84,14.93-18.82,5.93-8.22,10.93-16.15,15.14-23.52Z"/>
  </g>
  <g id="outline-5" data-name="outline">
    <path class="cls-21" d="m452.05,61.72c.05-6.37,4.46-10.79,10.26-12.73,1.56-.64,4.59-1.93,6.15-2.57,9.28-3.7,18.71-7.1,28.33-9.88,12.8-3.71,26.07-6.55,39.41-7.37,26.5-2.53,55.56.73,76.43,18.76,10.05,8.81,19.23,19.32,23.68,32.11.15.45-.09.93-.54,1.08-.45.15-.94-.1-1.08-.55-1.33-4.13-3.37-8.02-5.78-11.65-4.85-7.24-11.01-13.7-17.78-19.15-20.81-16.79-48.93-18.84-74.61-16.63-13.1.8-26.1,3.45-38.79,6.8-9.55,2.52-19,5.64-28.31,8.98-1.51.58-4.66,1.76-6.18,2.35-5.41,1.63-8.95,5.18-10.9,10.51-.05.15-.3.1-.29-.06h0Z"/>
    <path class="cls-21" d="m798.74,136.61c14.7-.32,29.44-.37,44.13.43,14.66,1.18,29.28,2.42,43.96,3.24,1.3.07,1.28,2.08-.09,2.05-7.34-.29-14.69-.49-22.04-.73-14.71-.08-29.35-.91-44.02-1.85-7.33-.45-14.65-1.03-21.98-1.74-.83-.06-.88-1.36.03-1.4h0Z"/>
    <path class="cls-2" d="m132.33,127.42c24.93-22.97,54.41-40.27,84.04-56.4,27.1-14.22,56.88-22.12,86.81-27.74,16.68-3.16,33.85-5.85,50.84-3.34,13.95,2.01,26.41,9.43,35.75,19.74,9.49,9.87,16.75,21.42,24.48,32.62,0,0-3.36,2.17-3.36,2.17-7.52-11.02-14.64-22.51-23.85-32.19-8.87-9.89-20.43-16.86-33.58-18.84-19.83-2.97-40.08,1.14-59.56,4.99-19.76,3.91-39.36,8.93-57.98,16.67-24.82,10.33-48.02,24.4-70.57,38.91-11.18,7.48-21.98,15.54-31.97,24.55l-1.05-1.14h0Z"/>
    <path class="cls-21" d="m77.34,359.3c-22.63-25.62-43.32-52.68-64.3-79.5-1.34-2.04-2.68-4.25-3.54-6.63-1.24-2.51-1.12-7.63-1.28-10.41-.11-1.53.03-4.19.08-5.77.02-3.86.57-7.66.93-11.47,7.11-45.27,30.95-85.74,52.54-125.36,17.55-30.22,35.3-60.95,59.58-86.4,8.14-8.07,17.25-15.75,28.52-19.12,2.72-.76,5.74-1.26,8.47-1.71,10.89-1.86,22.81-3.85,33.75-4.96,45.2-5.55,90.72,1.37,135.97-2.79,22.63-1.47,45.2-4.88,67.98-5.06,11.55.18,24.47,1.03,33.33,9.48,8.17,7.95,15.57,16.85,22.53,25.82.2.3.32.69.35,1.01l-.35-1.03c1.83,2.42,3.61,4.89,5.35,7.38,1.74,2.49,3.43,5.01,5.06,7.57.39.61.21,1.41-.4,1.8-.59.37-1.36.22-1.76-.34-1.75-2.44-3.53-4.86-5.34-7.26-1.81-2.4-3.67-4.75-5.55-7.09l-.35-1.03c-.04.23.01.53.14.74.19.27-.01,0,0,.02-.78-1.02-2.51-3.03-3.36-4.07-6.08-7.08-12.3-14.27-19.02-20.71-8.17-7.49-19.87-8.09-30.65-8.37-7.46-.04-14.97.41-22.48.98-30.1,2.55-60.39,5.77-90.68,5.04-22.72-.36-45.26-1.98-67.92-.81-21.45,1.13-43.24,3.76-64.3,8.07-13.36,3.98-23.95,14.35-33.26,24.39-11.21,12.68-21.04,26.57-30.22,40.82-16.21,25.45-31.32,51.69-44.89,78.65-15.79,32.14-32.44,70.78-29.97,107.07.22,3.53,2,6.54,3.88,9.5,2.02,3.05,4.34,6.01,6.67,8.96,4.69,5.89,9.49,11.78,14.09,17.81,13.45,17.28,27.68,36.99,41.75,53.63.32.38.27.94-.11,1.26-.37.31-.91.27-1.23-.09h0Z"/>
    <path class="cls-21" d="m172.02,11.87c-15.89,20.38-28.2,43.82-33.92,69.08-5.97,28.84-3.85,58.54-3.8,87.8.48,20.7.53,41.47,2.81,62.04,2.1,19.84,8.15,42,30.56,46.11,13.45,2.55,27.25,1.01,40.81-.27.45-.05.85.27.9.72.05.42-.24.8-.65.89-3.4.71-6.82,1.34-10.27,1.87-10.45,1.57-20.95,2.46-31.55.6-32.15-5.67-33.82-44.25-34.86-70.35-.45-13.88-.52-27.73-.51-41.58.38-24.41-.72-59.21,4.12-83.02,4.59-27.5,18.07-53.05,36.35-73.89h0Z"/>
    <path class="cls-21" d="m69.17,379.97c-2.41-5.5-1.54-12.13,2.02-16.97,3.25-3.59,7.1-6.74,11.34-9.03l6.16-3.57c9.62-5.42,21.42-11.8,30.87-17.38,23.6-13.62,48.95-30.34,71.8-45.46,23.58-15.71,45.27-33.88,65.28-53.99,0,0-.47,1.1-.47,1.1.09-.5.43-1.11.85-1.47,2.19-2.11,5.47-5.24,7.68-7.34,29.65-28.07,60.28-55.48,94.43-78.05,12.39-8.21,25.03-16.05,37.96-23.38.46-.26,1.05-.1,1.31.36.25.44.11,1.01-.31,1.28-12.42,8.08-24.82,16.17-36.93,24.7-35.07,24.1-67.07,52.42-98.34,81.2-1.07.99-2.65,2.47-3.67,3.44,0,0-.06.06-.06.06.19-.18.27-.55.16-.81,0,0-.47,1.1-.47,1.1-13.47,13.04-27.91,26.08-42.78,37.43-12.97,10.24-32.86,22.99-46.84,32.16-23.58,15.6-48.14,30.3-73.07,43.7-3.01,1.62-9.36,5.18-12.35,6.91-4.12,2.2-7.75,5.05-11.01,8.35-1.23,1.55-2.99,4.72-3.3,7.21-.52,2.7-.38,5.53.4,8.19.05.18-.05.37-.23.42-.17.05-.34-.04-.41-.19h0Z"/>
    <path class="cls-21" d="m134.08,458.51c10.29,7.96,24.65,11.1,36.65,6.99,2.13-1.04,5.27-2.24,6.86-3.02,7.49-5.59,14.83-11.36,22.01-17.33,35.74-29.47,71.58-70.66,103.58-104.4,4.83-4.93,9.04-10.6,13.33-16.03,5.63-7.43,11.5-14.76,16.34-22.73.11-.21.47-.03.35.19-4.06,8.49-9.45,16.23-14.71,23.99-4.02,5.77-8.01,11.72-12.79,16.95-13.76,15.91-28.19,31.32-42.96,46.32-19.66,20.07-39.87,39.74-61.81,57.36-7.3,5.89-14.84,11.47-22.47,16.91-2.4,1.19-4.93,1.91-7.2,3.01-12.85,4.04-27.1.42-37.43-7.88-.21-.15.05-.48.24-.32h0Z"/>
    <path class="cls-7" d="m882.59,141.74c-3.04.08-6.09.55-9.11,1.51-12.41,3.94-16.84,18.9-39.36,28.15-4.24,1.74-10.67,4.54-17.19,2.33-3.93-1.33-6.85-4.06-7.98-5.12-3.81-3.56-5.68-7.43-6.54-9.61-2.18-5.49-1.88-10.35-1.84-11.46.1-2.88-.59-6.4-1.85-10.23"/>
    <path class="cls-21" d="m538.47,96.37c35.67-8.52,71.77-15.19,108.17-19.69,10.96-1.29,21.97-2.1,32.99-2.5,11.03-.35,21.88-1.13,33-.77,1.39.06,1.59,2.22.01,2.35-3.58.14-7.27.56-10.92.83-18.09,1.61-36.61,1.82-54.63,4.03-21.75,2.58-43.43,6.07-65,9.88-14.39,2.6-28.74,5.41-43.06,8.4-.7.15-1.4-.3-1.54-1.01-.14-.69.29-1.36.97-1.53h0Z"/>
    <path class="cls-21" d="m302.12,343.77c23.44,17.11,47.51,33.45,70.85,50.79.63.44,4.61,3.18,5.34,3.68,31.46,21.25,64,42.02,96.02,62.33,10.26,6.38,24.8,16.1,35.59,21.2,24.6,12.31,53.03,15.42,80.13,12.34,1.1-.14,2.1.64,2.23,1.74.13,1.1-.65,2.09-1.74,2.23-7,.84-14.04,1.12-21.06,1-41.81-.7-63.28-13.6-96.96-35.66-31.93-20.48-64.42-41.45-95.79-62.87-2.29-1.58-6.29-4.35-8.51-6.08-22.23-16.6-45.11-32.32-67.48-48.83-.51-.38-.62-1.1-.24-1.62.38-.51,1.1-.62,1.61-.25h0Z"/>
    <path class="cls-23" d="m213.12,193.36c7.58-8.5,17.04-17.82,28.64-27,19.01-15.05,37.54-24.77,52.36-31.09"/>
    <path class="cls-23" d="m261.28,152.51c.92,5.34,1.83,9.74,2.56,13.03,2.97,13.43,5.1,18.39,2.45,24.55-1.84,4.28-6.12,9.46-11.45,9.82-5.51.37-9.69-4.55-15.55-11.46-2.52-2.97-5.68-7.15-8.72-12.64"/>
    <polygon class="cls-5" points="70.37 175.45 174.8 192.27 172.88 205.91 67.86 193.27 70.37 175.45 70.37 175.45"/>
    <path class="cls-5" d="m160.07,136.96c-6.69,28.26-17.57,55.6-27.96,82.64-3.6,9-7.24,17.98-11.21,26.84l-16.85-6.33c7.16-22.97,15.85-45.94,24.61-68.37,5.42-13.54,11.13-26.88,18.05-39.79,0,0,13.36,5.02,13.36,5.02h0Z"/>
    <polygon class="cls-5" points="157.91 70.64 260.1 77.27 259.4 91.81 157.05 88.62 157.91 70.64 157.91 70.64"/>
    <path class="cls-5" d="m218.05,41.71c-.71,26.02-1.79,52.03-2.88,78.04,0,0-17.94-1.51-17.94-1.51,2.45-19.36,4.94-38.73,7.54-58.07.87-6.45,1.73-12.9,2.67-19.34l10.6.89h0Z"/>
    <path class="cls-2" d="m105.12,359.45c-17.96,1.82-31.52,15.19-42.45,28.47-5.58,6.74-11.08,13.56-16.09,20.71-5.02,7.14-9.67,14.56-13.46,22.37-24.84,51.54,28.64,43.18,61.03,35.83,16.9-4.03,34.05-8.11,50.62-13.31,11.7-4.07,25.23-8.73,31.41-20.27,5.78-11.87.38-25.77-6.1-36.29-13.65-21.33-38.66-39.64-64.96-37.5h0Zm0,0c26.4-2.2,51.6,15.86,66.02,36.82,8.5,12.47,14.6,31,3.46,43.8-7.45,8.52-18.32,12.98-28.72,16.72-16.74,5.63-33.7,9.79-50.84,13.94-17.72,3.69-42.23,8.93-59.37,1.63-12.4-5.65-13.44-18.4-9.51-29.99,7.23-20.97,21.94-38.3,36.1-54.81,11.2-13.06,24.9-26.37,42.87-28.11h0Z"/>
    <path class="cls-2" d="m478.21,56.72c-23.29-.94-43.88,13.27-58.93,29.86-3.77,4.23-7.28,8.69-10.37,13.42-5.53,8.56-15.63,26.78-5.77,35.01,2.61,1.93,5.77,2.74,9.12,3.19,5.43.68,11.09.43,16.75.24,2.84-.1,5.69-.23,8.47-.44,19.68-1.32,38.87-7.05,56.68-15.46,15.38-7.22,30.31-15.58,44.11-25.56l-.23,1.04c-2.98-5.49-6.69-10.69-10.78-15.5-12.18-14.5-29.78-25.25-49.05-25.8h0Zm0,0c19.36.46,37.01,11.08,49.78,25.15,4.32,4.75,8.23,9.81,11.48,15.38,0,0,.34.59.34.59l-.57.44c-27.36,20.5-58.45,38.36-92.87,42.83-5.73.69-11.55,1.02-17.23,1.17-8.99.03-20.5,1.05-28.07-4.7-11.41-10.14-.57-28.8,6.25-38.66,3.31-4.71,7.01-9.11,10.97-13.25,15.75-16.05,36.57-29.96,59.91-28.95h0Z"/>
    <path class="cls-21" d="m984.29,257.47c4.57,23.7,1.53,48.34-5.78,71.18-5.12,17.07-10.06,35.1-20.99,49.68-7.31,9.71-18.23,17.43-30.54,18.74-6.05.8-12.08.23-17.55,1.93-5.45,1.7-10.15,5.7-13.34,10.37-3.33,4.88-4.37,10.75-5.83,16.43-2.76,11.73-9.08,22.86-18.27,30.91-13.76,12.03-31.55,17.54-48.49,23.37-16.99,5.8-34.36,11.5-52.59,11.59-18.37.19-36.35-4.77-51.32-15.52-6.18-4.17-12.2-8.13-19.34-9.8-9.75-2.4-20.36-1.94-29.39,2.77-5.2,2.57-10.26,5.81-15.58,8.63-10.56,5.8-21.95,9.85-33.45,13.38-11.5,3.42-23.34,6.62-35.4,7.18-6.03.34-12.08.5-18.12.47-20.77-1.61-38-9.97-50.63-26.82-12.13-15.3-18.77-35.39-16-54.89,1.54-12.86,7.17-24.69,10.4-37.03,3.64-13.74-.74-25.2-14.6-30.15-10.22-3.76-16.23-11.22-17.71-22.16-1.85-16.37,4.76-32.22,11.46-46.75,5.38-11.65,11.65-22.96,18.85-33.6.32-.48.98-.61,1.46-.29.48.32.61.97.3,1.45-6.92,10.71-12.9,21.95-18.19,33.56-5.22,11.45-10.18,23.4-11.34,35.97-.84,9.11.98,19.1,7.98,25.36,4.74,4.22,11.45,5.57,16.32,9.83,5.02,4.28,7.84,10.87,8,17.42.1,9.77-4.01,18.95-6.7,28.09-3.79,12.03-5.77,24.85-3.28,37.3,3.11,16.97,12.84,32.35,25.58,43.8,5.88,5.02,12.8,8.77,20.12,11.25,5.89,1.98,12.06,3.13,18.29,3.62,5.13-.05,11.9-.14,17.6-.44,11.75-.46,23.26-3.5,34.52-6.75,11.3-3.36,22.51-7.23,32.92-12.84,5.24-2.71,10.26-5.88,15.76-8.55,5.45-2.76,11.73-4.27,17.88-4.36,6.11,0,12.36.8,18.11,2.9,11.41,4.29,20,13.06,31.17,17.47,10.78,4.47,22.62,6.44,34.29,6.37,23.71-.3,46.29-9.65,68.45-17.3,23.02-8.38,42.5-20.8,48.86-46.02,1.6-5.76,2.78-11.92,6.27-16.98,3.52-5.07,8.47-9.2,14.37-11.19,2.96-.96,6.05-1.31,9.04-1.51,23.34.06,36.56-14.21,45.57-34.44,4.73-10.75,8.18-22.11,11.62-33.51,3.48-11.37,6.45-22.78,7.71-34.52,1.3-11.71,1.13-23.59-.5-35.3-.08-.56.32-1.09.88-1.16.55-.08,1.06.3,1.16.84h0Z"/>
    <path class="cls-21" d="m574.77,188.24s-.7.14-.7.14c7.38-2.89,15.1-4.91,22.95-5.92,11.11-1.53,23.71-1.89,34.25-5.61,3.49-1.34,6.62-3.52,8.45-6.69,1.77-3.23,2.96-6.92,3.04-10.66.11-3.8-.07-7.73-.05-11.63,0-3.94-.09-7.82.22-11.78.96-11.91,5.89-23.27,12.73-32.95,10.79-15.1,28.5-26.19,45.43-29.42,31.26-2.62,64.94,9.1,83.89,34.92,6.65,9.18,12.38,19.07,15.53,30.04.74,2.76,1.31,5.62,1.24,8.61-.18,2.76,0,5.39.6,8.02.6,2.61,1.61,5.13,3,7.43,4.15,6.65,11.68,12.43,19.9,10.63,10.61-2.54,20.48-8.39,28.44-15.82,9.23-8.87,14.29-16.74,28.48-17.4,5.84-.33,11.64.78,17.11,2.57,1.05.34,1.63,1.48,1.28,2.53-.35,1.09-1.58,1.67-2.65,1.23-7.44-2.99-15.74-4.25-23.51-2.04-5.22,1.47-9.29,5.16-13.16,8.92-7.92,8.05-16.87,15.17-27.54,19.19-8.59,3.78-16.97,4.36-24.31-2.32-6.64-5.51-10.47-14.36-10-22.99-.53-11.92-10.01-27.1-17.09-36.59-18.12-24.59-50.04-35.48-79.83-33.66-1.91.09-3.97.78-5.82,1.22,0,0-.99.28-.99.28l-.49.14c-.31.09-.63.21-.98.22,0,0,.5-.08.5-.08-26.96,8.65-49.56,34.2-49.79,63.26-.24,5.88.03,11.6-.12,17.54-.08,1.99-.37,4.06-.99,5.99-3.2,11.71-12.57,14.35-23.25,16.22-7.74,1.29-15.48,2.21-23.14,3.38-7.67,1.19-15.16,3.5-22.21,6.72,0,0-.42.01-.43.01-1.01.03-1.85-.77-1.88-1.78-.03-1.05.84-1.91,1.88-1.88h0Z"/>
    <path class="cls-2" d="m520.09,172.83c-10.38,6.75-9.15,26.05-9.19,37.25.47,13.86,1.08,27.79,2.03,41.63,3.15,50.65,15.54,100.56,53.32,136.77,3.61,3.47,7.57,7.45,11.34,10.7,15.08,13.34,34.15,25.62,55.08,23.42,13.62-1.41,25.96-9.13,34.7-19.47,2.2-2.59,4.28-5.37,5.96-8.23l2.23-4.56,1.74-4.77c7.53-26.12-6.99-55.15-16.19-79.41-17.43-45.49-46.32-86.06-86.5-114.03-12.66-8.97-39.29-28.12-54.52-19.29h0Zm-1.95-3.12c20.68-12.41,59.12,19.81,75.07,32.54,43.83,36.11,68.37,89.01,84.97,142.17,7.59,26.3,5.78,49.37-16.33,67.93-21.11,18.01-46.81,16.11-69.12,1.41-11.81-7.56-22.1-17.32-31.9-27.27-41.12-41.66-50.25-99.31-52.59-155.42-.53-14.03-1.89-27.97-.12-42.05,1.01-7.2,3.4-15.12,10.02-19.3h0Z"/>
    <path class="cls-2" d="m841.48,259.63c11.45-38.61,29.2-75.14,50.93-108.98,13.54-20.67,51.58-80.44,78.91-75.65,11.53,2.54,15.95,15.31,18.37,25.41,4.39,19.89,4.49,40.34,4.98,60.5.22,26.82,1.24,54.14-4.48,80.58-2.76,13.26-7.23,26.23-12.89,38.52-8.49,18.1-17.13,37.85-33.39,50.68-14.87,11.76-33.45,9.78-49.01.52-26.15-15.98-42.78-43.59-53.43-71.59h0Zm0,0c10.42,24.29,25.11,47.8,46.62,63.65,10.32,7.49,23.18,13.38,36.11,11.72,20.06-2.9,31.58-22.35,40.12-38.96,5.09-10.32,10.05-21,14.01-31.85,7.29-20.23,10.28-41.73,10.8-63.18.21-26.48.27-53.48-1.83-79.89-1.31-11.74-3.64-37.8-17.05-40.98-17.09-2.95-41.42,27.63-51.46,40.04-8.23,10.45-15.89,21.38-23.29,32.48-22.39,33.24-41.01,69.03-54.04,106.97h0Z"/>
  </g>
</svg>