<?xml version="1.0" encoding="UTF-8"?>
<svg xmlns="http://www.w3.org/2000/svg" xmlns:xlink="http://www.w3.org/1999/xlink" viewBox="0 0 700 1500">
  <defs>
    <style>
      .cls-1 {
        fill: url(#linear-gradient);
      }

      .cls-1, .cls-2, .cls-3, .cls-4, .cls-5, .cls-6, .cls-7, .cls-8, .cls-9, .cls-10, .cls-11, .cls-12, .cls-13, .cls-14, .cls-15, .cls-16, .cls-17, .cls-18, .cls-19, .cls-20, .cls-21 {
        stroke-width: 0px;
      }

      .cls-2 {
        fill: #3d2d24;
      }

      .cls-22 {
        opacity: .31;
      }

      .cls-3 {
        fill: url(#linear-gradient-6);
      }

      .cls-5 {
        fill: url(#linear-gradient-11);
      }

      .cls-6 {
        fill: url(#linear-gradient-5);
      }

      .cls-7, .cls-23, .cls-24 {
        fill: none;
      }

      .cls-8 {
        fill: url(#linear-gradient-2);
      }

      .cls-9 {
        fill: url(#New_Gradient_Swatch_1);
      }

      .cls-23 {
        stroke-width: 4px;
      }

      .cls-23, .cls-24 {
        stroke: #35263f;
        stroke-linecap: round;
        stroke-miterlimit: 10;
      }

      .cls-10 {
        fill: url(#linear-gradient-7);
      }

      .cls-11 {
        fill: url(#radial-gradient-2);
      }

      .cls-12 {
        fill: url(#linear-gradient-3);
      }

      .cls-25 {
        clip-path: url(#clippath);
      }

      .cls-13 {
        fill: url(#New_Gradient_Swatch_1-2);
      }

      .cls-14 {
        fill: url(#linear-gradient-9);
      }

      .cls-15 {
        fill: url(#radial-gradient);
      }

      .cls-24 {
        stroke-width: 3px;
      }

      .cls-16 {
        fill: #372642;
      }

      .cls-17 {
        fill: url(#linear-gradient-8);
      }

      .cls-18 {
        fill: url(#linear-gradient-10);
      }

      .cls-19 {
        fill: url(#radial-gradient-3);
      }

      .cls-20 {
        fill: url(#linear-gradient-4);
      }

      .cls-26 {
        opacity: .25;
      }

      .cls-21 {
        fill: #35263f;
      }
    </style>
    <clipPath id="clippath">
      <rect class="cls-7" x="-2081" y="38.16" width="1920" height="1080"/>
    </clipPath>
    <linearGradient id="linear-gradient" x1="-892.09" y1="705.26" x2="-892.09" y2="425.41" gradientUnits="userSpaceOnUse">
      <stop offset=".16" stop-color="#a4d7ca"/>
      <stop offset=".27" stop-color="#88cec2"/>
      <stop offset=".52" stop-color="#50bdb2"/>
      <stop offset=".73" stop-color="#28b1a7"/>
      <stop offset=".9" stop-color="#0fa9a0"/>
      <stop offset="1" stop-color="#06a79e"/>
    </linearGradient>
    <linearGradient id="linear-gradient-2" x1="-415.5" y1="878.16" x2="-415.5" y2="410.16" gradientUnits="userSpaceOnUse">
      <stop offset=".44" stop-color="#a4d7ca"/>
      <stop offset=".49" stop-color="#88cec2"/>
      <stop offset=".59" stop-color="#50bdb2"/>
      <stop offset=".67" stop-color="#28b1a7"/>
      <stop offset=".74" stop-color="#0fa9a0"/>
      <stop offset=".78" stop-color="#06a79e"/>
    </linearGradient>
    <linearGradient id="linear-gradient-3" x1="-259.29" y1="1431.97" x2="-259.29" y2="762.21" gradientUnits="userSpaceOnUse">
      <stop offset=".32" stop-color="#dab0a0"/>
      <stop offset=".51" stop-color="#d8ab9b"/>
      <stop offset="1" stop-color="#d5a392"/>
    </linearGradient>
    <linearGradient id="New_Gradient_Swatch_1" data-name="New Gradient Swatch 1" x1="348.09" y1="808.66" x2="348.09" y2="796.16" gradientUnits="userSpaceOnUse">
      <stop offset="0" stop-color="#3d2551"/>
      <stop offset="1" stop-color="#473f65"/>
    </linearGradient>
    <linearGradient id="New_Gradient_Swatch_1-2" data-name="New Gradient Swatch 1" x1="310.82" y1="1236.86" x2="310.82" y2="859.25" xlink:href="#New_Gradient_Swatch_1"/>
    <linearGradient id="linear-gradient-4" x1="330.32" y1="1015.01" x2="330.32" y2="809.95" gradientUnits="userSpaceOnUse">
      <stop offset="0" stop-color="#473f65"/>
      <stop offset=".39" stop-color="#453a61"/>
      <stop offset=".81" stop-color="#402d57"/>
      <stop offset="1" stop-color="#3d2551"/>
    </linearGradient>
    <radialGradient id="radial-gradient" cx="329.74" cy="691.15" fx="329.74" fy="691.15" r="228.28" gradientUnits="userSpaceOnUse">
      <stop offset="0" stop-color="#473f65"/>
      <stop offset=".39" stop-color="#453a61"/>
      <stop offset=".81" stop-color="#402d57"/>
      <stop offset="1" stop-color="#3d2551"/>
    </radialGradient>
    <linearGradient id="linear-gradient-5" x1="314.91" y1="533.94" x2="314.91" y2="682.74" gradientUnits="userSpaceOnUse">
      <stop offset="0" stop-color="#3d2551"/>
      <stop offset="1" stop-color="#473f65"/>
    </linearGradient>
    <linearGradient id="linear-gradient-6" x1="321.5" y1="573.69" x2="321.5" y2="470.3" gradientUnits="userSpaceOnUse">
      <stop offset="0" stop-color="#473f65"/>
      <stop offset=".03" stop-color="#453c62"/>
      <stop offset=".23" stop-color="#402e58"/>
      <stop offset=".49" stop-color="#3d2752"/>
      <stop offset="1" stop-color="#3d2551"/>
    </linearGradient>
    <radialGradient id="radial-gradient-2" cx="308.85" cy="335.45" fx="205.2" fy="335.45" r="190.4" gradientTransform="translate(85.02 679.8) rotate(-98.21) scale(1 .81)" gradientUnits="userSpaceOnUse">
      <stop offset=".32" stop-color="#ac8457"/>
      <stop offset=".48" stop-color="#a77e52"/>
      <stop offset=".68" stop-color="#9b6f44"/>
      <stop offset=".91" stop-color="#87562d"/>
      <stop offset="1" stop-color="#7d4921"/>
    </radialGradient>
    <linearGradient id="linear-gradient-7" x1="343.81" y1="593.36" x2="297.73" y2="225.17" gradientUnits="userSpaceOnUse">
      <stop offset="0" stop-color="#ac8457"/>
      <stop offset="1" stop-color="#56331d"/>
    </linearGradient>
    <radialGradient id="radial-gradient-3" cx="315.47" cy="329.58" fx="331.93" fy="399.38" r="266.89" gradientTransform="translate(0 58.73) scale(1 .82)" gradientUnits="userSpaceOnUse">
      <stop offset="0" stop-color="#473f65"/>
      <stop offset="1" stop-color="#3d2551"/>
    </radialGradient>
    <linearGradient id="linear-gradient-8" x1="523.69" y1="201" x2="521.74" y2="185.45" gradientTransform="translate(-241.6 315.94) rotate(-6.47) scale(1.1 .99) skewX(-5.84)" xlink:href="#linear-gradient-7"/>
    <linearGradient id="linear-gradient-9" x1="142.59" y1="892.24" x2="117.85" y2="1242.43" gradientUnits="userSpaceOnUse">
      <stop offset="0" stop-color="#473f65" stop-opacity="0"/>
      <stop offset=".11" stop-color="#3d3158" stop-opacity=".33"/>
      <stop offset=".24" stop-color="#35254d" stop-opacity=".63"/>
      <stop offset=".4" stop-color="#301d45" stop-opacity=".84"/>
      <stop offset=".6" stop-color="#2c1840" stop-opacity=".96"/>
      <stop offset="1" stop-color="#2c173f"/>
    </linearGradient>
    <linearGradient id="linear-gradient-10" x1="519.46" y1="915.66" x2="519.46" y2="1210.56" gradientUnits="userSpaceOnUse">
      <stop offset="0" stop-color="#473f65" stop-opacity="0"/>
      <stop offset=".11" stop-color="#3d3158" stop-opacity=".33"/>
      <stop offset=".24" stop-color="#35254d" stop-opacity=".63"/>
      <stop offset=".4" stop-color="#301d45" stop-opacity=".84"/>
      <stop offset=".6" stop-color="#2c1840" stop-opacity=".96"/>
      <stop offset="1" stop-color="#2c173f"/>
    </linearGradient>
    <linearGradient id="linear-gradient-11" x1="352.11" y1="870.64" x2="404.82" y2="1293.9" gradientUnits="userSpaceOnUse">
      <stop offset="0" stop-color="#473f65" stop-opacity="0"/>
      <stop offset=".11" stop-color="#3d3158" stop-opacity=".33"/>
      <stop offset=".24" stop-color="#35254d" stop-opacity=".63"/>
      <stop offset=".4" stop-color="#301d45" stop-opacity=".84"/>
      <stop offset=".6" stop-color="#2c1840" stop-opacity=".96"/>
      <stop offset="1" stop-color="#2c173f"/>
    </linearGradient>
  </defs>
  <g id="bg">
    <g class="cls-25">
      <g id="backdrop">
        <g id="mountains" class="cls-22">
          <path class="cls-1" d="m-1285.09,574.86c93.63-36.08,100.73-65.2,178-80,58.43-11.19,71.08,2.26,131-16,39.89-12.16,45.75-21.61,107-44,53.46-19.54,80.19-29.31,108-30,45.69-1.13,61.66,17.5,144,54,29.28,12.98,94.83,41.72,173,61,82.26,20.29,93.59,9.16,162,32,53.09,17.72,90.79,39.29,120,56,43.21,24.72,79.4,51.82,150,105,31.46,23.7,57.01,43.62,74,57-636,.67-1272,1.33-1908,2,72.93-28.16,132.26-52.22,173-69,133.04-54.8,156.33-68.46,223-88,98.01-28.73,95.49-13.22,165-40Z"/>
          <path class="cls-8" d="m-483,634.16c98.6-44.76,98.48-59.91,187-94,53.18-20.48,55.42-15.86,134-45,79.98-29.66,93.78-40.42,144-56,35.39-10.98,87.31-23.87,154-29,1.67,150.33,3.33,300.67,5,451-371,5.67-742,11.33-1113,17,25.98-30.32,69.56-74.38,134-110,38.5-21.28,56.99-24.37,161-61,98.7-34.76,148.05-52.14,194-73Z"/>
        </g>
      </g>
      <g id="foreground">
        <path class="cls-12" d="m851.05,1291.84c-529.57,46.63-1059.13,93.27-1588.7,139.9-.86.08-1.73.15-2.59.23-209.79-75.21-419.59-150.42-629.39-225.63,430.68-148.04,861.36-296.09,1292.03-444.13.12.07.24.14.36.2,309.43,176.48,618.86,352.96,928.29,529.43Z"/>
      </g>
    </g>
  </g>
  <g id="cultist">
    <g id="shadow" class="cls-26">
      <path class="cls-4" d="m600.49,1193.91c-2-3.62-34.01-6.76-41.07-7.46-17.46-1.71-30.05-2.16-42.12-2.42,8.62-4.52,14.22-8.17,6.92-11.67-1.05-.5-6.36-2.63-25.86-4.7-15.6-1.65-31.11-2.17-44.16-2.14-12.93-.03-23.64.48-29.91.97-3.24.26-6.29.48-9.45.68-7.75.5-16.12.87-29.61,1.29-2.46.08-5.47.12-8.98.13-4.57,0-9.92-.08-15.99-.22-7.11-.17-15.32-.42-21.7-1.88-10.7-2.43-4.84-5.54-11.12-7.98-7.46-2.9-29.09-3.75-52.27-3.73-29.55-.03-62.21,1.42-71.46,1.85-63.34,2.95-92.64,4.71-102.6,10.5-2.95,1.72,7.68,6.62,23.83,13.73-.38.03-.77.05-1.15.08-3.43.22-7.13.41-11.14.57-24.43,1-39.66.94-58.93,3.19-.92.1-1.85.22-2.8.34-4.37.55-41.06,7.75-37.9,11.74,3.15,3.99,29.24,10.25,57.14,21.13,49.5,19.3,81.35,34.5,92.01,39.68,10.47,5.08,23.02,11.19,36.78,18.75,2.7,1.48,5.45,3.02,8.23,4.61-7.8,1.5-14.14,2.71-19.3,3.75-.21.04-.42.08-.61.12-.41.08-.81.16-1.19.24-.26.05-.52.11-.77.16-.37.07-.71.15-1.06.22-.26.06-.54.11-.79.17-.33.07-.64.14-.97.2-.26.05-.51.11-.76.16-.3.07-.61.13-.91.19-.24.05-.47.11-.7.16-.29.06-.57.13-.84.19-.23.05-.44.1-.66.15-.27.06-.54.13-.8.19-.19.05-.38.09-.57.14-.26.06-.53.13-.77.19-.07.02-.15.04-.21.05-.6.15-1.15.29-1.68.44-.14.04-.29.08-.44.12-.21.06-.43.12-.63.18-.15.04-.3.08-.44.13-.2.06-.39.12-.58.17-.14.04-.28.09-.42.13-.18.06-.35.12-.52.17-.13.04-.26.09-.39.13-.17.06-.32.12-.48.17-.12.04-.23.09-.34.13-.16.06-.3.12-.45.17-.1.04-.2.09-.31.13-.14.06-.27.12-.41.18-.09.04-.17.08-.27.13-.13.06-.26.12-.38.19-.08.04-.14.08-.21.11-.43.23-.82.47-1.17.72-.05.04-.13.08-.18.13-.09.07-.17.13-.25.2-.07.05-.12.1-.18.15-.08.07-.14.13-.22.2-.05.05-.12.11-.17.16-.06.07-.13.13-.19.2-.05.06-.1.12-.15.17-.05.07-.11.14-.16.21-.05.06-.1.12-.14.19-.04.07-.09.14-.14.21-.04.07-.08.14-.13.21-.04.07-.09.13-.12.2-.05.08-.09.16-.13.24-.03.06-.06.12-.1.18-.07.15-.13.3-.19.45-.1.25-.19.49-.26.73-.04.12-.07.24-.1.35-.17.71-.23,1.38-.13,2.03,0,.11.03.22.05.32,1.13,5.09,11.37,9.28,38.98,20.43,4.11,1.66,8.62,3.48,13.53,5.47.93.38,1.83.75,2.73,1.11.32.13.63.26.94.39.57.23,1.13.46,1.68.69.34.14.68.28,1.03.42.5.21,1.01.42,1.51.62.33.14.66.27.99.41.56.23,1.11.46,1.66.68.19.08.37.15.56.23.84.35,1.67.69,2.48,1.02.22.09.43.18.65.27.5.2.99.41,1.47.6.24.1.48.2.72.3.45.19.9.37,1.34.55.21.08.41.17.61.25,1.54.63,3.01,1.23,4.44,1.8.18.08.38.15.56.23.38.15.74.3,1.11.44.24.09.48.19.71.28.35.14.7.27,1.04.41.24.09.49.19.73.28.34.13.68.26,1.02.39.24.09.49.19.73.28.33.12.66.25.99.37.24.09.48.18.72.27.33.12.66.24.99.36.23.08.46.17.69.25.34.12.67.24.99.36.23.08.45.16.68.24.33.12.67.23,1.01.35.18.06.38.13.56.19.81.28,1.61.54,2.43.81.09.03.17.06.26.08.34.11.67.21,1.01.32.23.08.46.15.69.22.33.1.65.2.98.3.25.08.51.15.76.23.32.09.64.19.96.28.27.08.54.15.81.23.31.09.63.18.96.27.27.08.56.15.84.23.32.09.65.18.97.26.29.08.59.15.89.23.33.08.65.17.98.25.31.08.63.16.95.24.32.08.65.16.97.24.35.08.71.17,1.07.25.3.07.61.15.92.22.61.14,1.22.28,1.85.42.24.05.5.11.75.16.52.12,1.04.23,1.57.35.27.06.54.12.82.17.48.1.95.2,1.44.31.29.06.58.12.87.18.33.07.67.14,1.01.21.19.04.39.08.58.12.17.03.34.07.51.1.67.13,1.36.27,2.06.4.11.02.22.04.33.06.71.13,1.45.27,2.18.41.43.08.86.16,1.29.23.13.02.26.05.39.07.52.1,1.06.19,1.59.29,1.53.27,3.11.54,4.71.81,1.61.27,3.25.54,4.91.81.83.13,1.67.27,2.5.4,2.53.4,5.1.8,7.7,1.2-1.63.11-3.27.21-4.95.32-13.61.86-29.4,1.84-56.13,4.55-42.28,4.29-46.52,6.28-48.17,7.28-5.55,3.35-4,8.82,34.73,23.24,34.57,12.87,66.4,20.82,98.11,29.11,109.91,28.73,134.43,39.57,165.41,38.74,13.12-.35,16.27-2.5,38.05-10.33,46.86-16.83,48.42-12.66,98.17-30.52,38.68-13.88,52.19-21.61,60.39-29.58,12.44-12.09,3.52-15.85-.06-17.14-18.08-6.51-49.38-3.76-119.6-12.44-.37-.05-.75-.09-1.12-.14-1.79-.22-3.57-.44-5.34-.66.81-.18,1.61-.36,2.39-.54.02,0,.06-.01.08-.02.17-.04.33-.08.51-.12,2.19-.51,4.31-1.01,6.44-1.52.13-.03.25-.06.38-.09,1.62-.38,3.25-.74,4.9-1.12.05-.01.1-.02.15-.04,0,0,.02,0,.02,0,.27-.06.53-.12.79-.18.04,0,.08-.02.12-.03.24-.06.49-.12.74-.17.03,0,.06-.02.1-.02.85-.19,1.7-.4,2.56-.61l.15-.04c.23-.06.47-.12.71-.18.06-.01.12-.03.18-.04.24-.06.49-.12.73-.19.05-.01.09-.02.14-.03.58-.15,1.16-.31,1.76-.47.06-.01.11-.03.17-.04.24-.07.47-.13.71-.2.08-.02.16-.04.24-.07.22-.06.45-.12.67-.19.08-.02.16-.05.23-.07.26-.07.53-.15.78-.23.04-.01.08-.02.12-.04.31-.09.61-.19.92-.28.05-.01.09-.03.14-.04.26-.08.52-.16.78-.24.08-.03.18-.06.27-.09.21-.07.44-.14.66-.22.1-.03.2-.06.3-.1.23-.08.47-.15.69-.23.08-.03.18-.06.26-.09.64-.22,1.28-.44,1.93-.68.08-.03.17-.06.25-.09.24-.09.49-.18.73-.27.1-.04.21-.08.32-.12.23-.09.47-.18.69-.27.1-.04.21-.08.32-.12.27-.11.54-.22.81-.32.07-.03.13-.05.19-.08.34-.14.7-.28,1.04-.42.07-.03.13-.06.2-.08.27-.12.56-.23.84-.35.11-.05.22-.1.34-.15.25-.1.48-.21.72-.31.12-.05.24-.11.36-.16.26-.11.51-.22.76-.34.11-.05.21-.1.33-.15.36-.16.72-.33,1.09-.5.26-.12.53-.25.79-.37,7.39-3.47,15.77-7.43,24.4-14.31.31-.24.62-.5.93-.75.61-.5,1.24-1.03,1.85-1.57.31-.27.61-.53.91-.79,14.84-13.01,16.36-17.07,13.59-20.35-.05-.07-.11-.13-.17-.19-.17-.19-.36-.39-.56-.58-.14-.13-.28-.26-.43-.39-.15-.13-.3-.26-.46-.39-.39-.32-.8-.65-1.25-1-1.3-1.01-2.87-1.95-5.24-2.95-.01,0-.01,0-.01,0-.25-.11-.51-.21-.77-.32-.02,0-.04-.01-.07-.02-.25-.1-.52-.2-.8-.31-.03,0-.06-.02-.08-.03-.27-.1-.56-.2-.84-.31-.04-.02-.08-.03-.12-.05-.28-.1-.57-.2-.87-.3-.05-.02-.11-.04-.17-.06-.29-.1-.59-.19-.89-.29-.08-.03-.15-.05-.23-.08-.3-.1-.62-.2-.94-.3-.09-.03-.17-.05-.26-.08-.32-.1-.65-.2-.98-.3-.1-.03-.2-.06-.31-.09-.33-.1-.66-.19-1.01-.29-.13-.04-.24-.07-.37-.11-.34-.1-.7-.2-1.04-.3-.15-.04-.28-.08-.43-.12-.35-.1-.71-.19-1.08-.29-.17-.05-.33-.09-.5-.14-.37-.1-.74-.2-1.12-.3-.19-.05-.38-.1-.57-.15-.36-.1-.76-.2-1.15-.3-.22-.06-.42-.11-.65-.17-.37-.1-.77-.19-1.15-.29-.25-.06-.5-.13-.76-.19-.38-.09-.78-.19-1.17-.29-.29-.07-.57-.14-.87-.21-.38-.09-.77-.19-1.16-.28-.33-.08-.67-.16-1.01-.24-.37-.09-.76-.18-1.14-.27-.39-.09-.77-.18-1.16-.27-.37-.08-.73-.17-1.11-.26-.44-.1-.87-.2-1.33-.31-.34-.08-.71-.16-1.06-.24-.5-.12-1-.23-1.52-.35-.32-.07-.66-.15-.97-.22-.59-.13-1.17-.26-1.77-.4-.27-.06-.56-.12-.83-.18-.68-.15-1.37-.31-2.07-.46-.22-.05-.44-.1-.66-.15-.78-.17-1.58-.35-2.4-.53-.14-.03-.29-.06-.43-.1-.92-.2-1.85-.4-2.8-.61-.05,0-.09-.02-.15-.03-.8-.17-1.61-.35-2.45-.53-.25-.05-.51-.11-.77-.16-.37-.08-.77-.16-1.19-.25-.39-.08-.83-.17-1.27-.27-.02,0-.06,0-.08-.02-.46-.09-.96-.2-1.46-.3-.01,0-.02,0-.03,0-.52-.11-1.06-.22-1.62-.33-.01,0-.02,0-.03,0-.56-.11-1.14-.23-1.75-.35-.02,0-.05-.01-.08-.02-.6-.12-1.21-.24-1.86-.37-.04,0-.08-.02-.13-.03-.63-.12-1.28-.25-1.95-.39-.08-.02-.17-.03-.26-.05-.63-.12-1.28-.25-1.95-.38-.04,0-.08-.01-.11-.02-1.35-8.32-4.33-12.72-5.52-19.34-.78-4.32-.49-7.6-.07-12.14,1.72-18.57,2.58-27.85,7.24-35.92,2.63-4.56,10.87-15.49,15.97-18.78.22-.14.86-.6.51-1.23Z"/>
    </g>
    <g id="color">
      <path class="cls-9" d="m350.49,794.14c-.84,5.76-2.43,11.59-4.81,17.79,2.13-5.64,3.76-11.79,4.81-17.79Z"/>
      <path class="cls-13" d="m616.08,1168.9c.9,15.44-29.77,28.81-36.54,31.76-.68.3-1.35.58-2.02.86-13.98,5.85-25.15,7.92-35.75,9.04-1.34.14-2.67.27-3.99.39,12.67,19.27,21.47,34.79,16.76,49.71-.68,2.15-4.45,11.2-23,20-28.61,13.57-60.34,9.13-74,5-3.58-1.09-6.93-2.04-10.37-2.9-8.46-2.12-17.46-3.72-31.81-5.5-6.32-.78-15.78-.78-27.82.4-7.25.71-15.56,1.8-21,8-.88,1-1.6,2.04-2.18,3.09h0c-5.38,9.82,1.26,21.5-2.82,30.91-12.08,27.87-107.47,11.23-125,8-68.2-12.55-100.08-20.05-115.18-44.74-4.48-7.33,2.54-28.2,13.48-58.5-.42-.11-.84-.21-1.26-.32-3.74-.93-7.74-1.74-12.04-2.44-26.19-4.25-41.96-3.99-63.82-13.57-1.04-.44-2.1-.93-3.18-1.43-4.99-2.34-49-33-49-50s21.95-43.68,42-90c35.57-82.19,56.17-146.96,63-169,6.71-21.63,14.72-47.67,22.81-79.85,1.59-6.31,3.18-12.86,4.76-19.65,5.63,3.85,11.9,8.15,18.89,13,76.69,53.17,90.87,76.01,119.5,83.5,23.06,6.03,48.49-39.74,64-71,1.69-3.4,3.16-6.66,4.44-9.82-.91,2.37-.13,1.45,3.56,9.02,9.63,19.76,30.41,57.17,52,63.59,15.7,4.67,21.98-2.25,49-23.48,34.48-27.09,60.57-50.05,76.26-64.77.56,3.74,1.08,7.29,1.54,10.68,3.82,27.87,4.68,45.35,8.35,70.07,2.73,18.4,5.73,32.39,9.89,51.71,17.02,79.09,25.54,118.64,37,153,6.48,19.43,24,66,32,80,.34.6,1.39,2.57,1.54,5.24Z"/>
      <path class="cls-20" d="m527.3,808.88c-8.2,8.02-15.4,14.82-21.3,20.28-15.42,14.28-29.95,25.85-59,49-24.64,19.63-33.9,26.2-45,24-7.15-1.42-12.05-5.88-23-19-10.11-12.12-23.58-29.44-38-52-3.83,11.55-10.85,28.48-24,46-13.65,18.19-21.58,28.75-34,32-23.57,6.17-43.33-19.21-93-55-22.07-15.9-41.8-27.92-56.65-36.35,1.59-6.31,3.18-12.86,4.76-19.65,5.63,3.85,11.9,8.15,18.89,13,76.69,53.17,90.87,76.01,119.5,83.5,23.06,6.03,48.49-39.74,64-71,1.69-3.4,3.16-6.66,4.44-9.82-.91,2.37-.13,1.45,3.56,9.02,9.63,19.76,30.41,57.17,52,63.59,15.7,4.67,21.98-2.25,49-23.48,34.48-27.09,60.57-50.05,76.26-64.77.56,3.74,1.08,7.29,1.54,10.68Z"/>
      <path class="cls-15" d="m547.5,623.29c-17.36-36.68-31.09-55.67-43-72.4-14.74-20.68-24.83-29.08-33.99-36.31-2.03-1.61-4.02-3.16-6.01-4.77-.09-.07-.18-.15-.27-.22-3.86-3.15-7.69-6.31-11.78-9.51h-.01c-5.45-4.27-11.36-8.59-18.37-12.98-.69.39-1.39.78-2.09,1.19-.4.23-.8.46-1.2.71-7.07,4.17-14.52,9.27-22.28,15.66-.21.17-.43.35-.65.53-1.02.85-2.17,1.82-3.44,2.91-.53.45-1.08.93-1.66,1.42-.37.33-.76.67-1.15,1.01-.4.35-.8.7-1.21,1.06-.29.25-.59.51-.88.77-.3.27-.61.54-.91.81-2.58,2.28-5.42,4.85-8.47,7.66-.44.4-.88.8-1.32,1.22-.88.81-1.78,1.65-2.7,2.51-.61.57-1.22,1.15-1.84,1.73-.09.09-.19.18-.28.27-.55.52-1.11,1.05-1.67,1.58-.56.53-1.12,1.07-1.69,1.61-.05.05-.11.1-.16.15-.83.8-1.67,1.61-2.52,2.43-1.99,1.92-4.02,3.91-6.08,5.96l-1.79,1.79c-.53.52-1.05,1.05-1.58,1.58-23.65,23.84-28.35,32.39-39,33-15.94.91-20.77-17.39-47-40-.56-.48-1.11-.95-1.67-1.41-.46-.39-.92-.77-1.39-1.14-1.1-.91-2.21-1.79-3.33-2.64-.64-.49-1.29-.97-1.94-1.45-1.54-1.14-3.1-2.24-4.69-3.31-.76-.51-1.52-1.01-2.29-1.51s-1.54-.99-2.33-1.48c-1.26-.79-2.54-1.57-3.86-2.33-.52-.31-1.05-.62-1.58-.92-4.77-2.73-9.89-5.38-15.54-8.08-7.27-3.49-15.41-7.08-24.77-11.06-.48-.2-.97-.41-1.46-.62-2.94-1.25-6-2.53-9.19-3.87-7.52,4.68-15.67,9.99-23.53,15.56-6.32,4.48-12.45,9.13-17.93,13.76-.48.41-.96.81-1.42,1.22-2.33,2.01-4.48,3.97-6.49,5.93-20.75,20.22-25.88,38.97-45.59,87.35-31.67,77.73-39.86,91.24-30,125,5.82,19.92,12.03,25.29,44.11,47.31,3.23,2.22,6.72,4.6,10.5,7.19,5.63,3.85,11.9,8.15,18.89,13,76.69,53.17,90.87,76.01,119.5,83.5,23.06,6.03,48.49-39.74,64-71,1.69-3.4,3.16-6.66,4.44-9.82-.91,2.37-.13,1.45,3.56,9.02,9.63,19.76,30.41,57.17,52,63.59,15.7,4.67,21.98-2.25,49-23.48,34.48-27.09,60.57-50.05,76.26-64.77,6.31-5.91,10.93-10.5,13.74-13.49.22-.24.44-.47.66-.7,30.86-32.89,36.99-44.54,38.84-59.85,2.25-18.68,2.99-27.97-31.5-100.87Z"/>
      <path class="cls-6" d="m464.23,509.59c-5.1,1-10.06,2.6-14.23,4.57-1.04.49-2.28,1.04-3.66,1.65-9.03,3.92-18.29,8.92-24.34,13.35-1.52,1.12-12.04,8.51-14,10-9.79,7.42-21.42,17.87-31,28-11.13,11.76-21.64,20.19-26,24-13.15,11.48-23.85,15.56-66-20-8.09-6.82-33.13-20.99-42-25-21.98-9.97-36.18-11.57-45.56-14.84-.15-.06-.3-.11-.44-.16-10.79-3.87-22.72-5.43-31.42-5.78.46-.41.94-.81,1.42-1.22,5.48-4.63,11.61-9.28,17.93-13.76,7.86-5.57,16.01-10.88,23.53-15.56,3.19,1.34,6.25,2.62,9.19,3.87.49.21.98.42,1.46.62,9.36,3.98,17.5,7.57,24.77,11.06,5.65,2.7,10.77,5.35,15.54,8.08.53.3,1.06.61,1.58.92,1.32.76,2.6,1.54,3.86,2.33.79.49,1.56.98,2.33,1.48s1.53,1,2.29,1.51c1.59,1.07,3.15,2.17,4.69,3.31.65.48,1.3.96,1.94,1.45,1.12.85,2.23,1.73,3.33,2.64.47.37.93.75,1.39,1.14.56.46,1.11.93,1.67,1.41,26.23,22.61,31.06,40.91,47,40,10.65-.61,15.35-9.16,39-33,.53-.53,1.05-1.06,1.58-1.58l1.79-1.79c2.06-2.05,4.09-4.04,6.08-5.96.85-.82,1.69-1.63,2.52-2.43.05-.05.11-.1.16-.15.57-.54,1.13-1.08,1.69-1.61.56-.53,1.12-1.06,1.67-1.58.09-.09.19-.18.28-.27.62-.59,1.23-1.17,1.84-1.73.92-.86,1.82-1.7,2.7-2.51.44-.42.88-.82,1.32-1.22,3.05-2.81,5.89-5.38,8.47-7.66.3-.27.61-.54.91-.81.29-.26.59-.52.88-.77.41-.36.81-.71,1.21-1.06.39-.34.78-.68,1.15-1.01.58-.49,1.13-.97,1.66-1.42,1.27-1.09,2.42-2.06,3.44-2.91.22-.18.44-.36.65-.53,7.76-6.39,15.21-11.49,22.28-15.66.4-.25.8-.48,1.2-.71.7-.41,1.4-.8,2.09-1.19,7.01,4.39,12.92,8.71,18.37,12.98h.01c4.09,3.2,7.92,6.36,11.78,9.51Z"/>
      <g id="Layer_22" data-name="Layer 22">
        <path class="cls-16" d="m239.23,476.87c-5.61,5.57-12.68,5.25-16.23,9.29-2.24,2.55-11.98,5.43-14,8-6.29-2.67-3.01-.36-10.5-3.5-45.33-18.97-58.39-18.45-64-32-9.86-23.83,17.86-56.05,29-69,4.22-4.91,9.31-10.82,15.32-16.73,3.31,8.49,7.2,18.35,11.68,29.73,14.12,35.85,18.7,44.87,27,55,5.78,7.05,12.48,12.79,21.73,19.21Z"/>
        <path class="cls-16" d="m500.5,448.66c-7.24,21.42-32.03,17.94-67.5,38.5-7-5-10-6-13-8s-9.77-4.39-15-7c-2-1-3.04,1.95,4.44-5.87,3.14-3.29,5.77-6.41,8.06-9.63,14.01-19.69,11.77-30.97,24-90,1-4.83,1.95-9.26,2.85-13.34,23.95,13.49,38.33,38.85,43.15,47.34,9.36,16.5,18.31,32.29,13,48Z"/>
      </g>
      <path class="cls-3" d="m430,488.16c-7,4-15.03,10.18-21.5,15.5-7.5,6.17-23.16,20.02-40,37-23.65,23.84-28.35,32.39-39,33-15.94.91-20.77-17.39-47-40-16.45-14.17-33.85-22.74-63.39-35.33-.48-.2-7.62-3.96-8.11-4.17,1.86-2.36,7-5,11-8,4.3-3.23,9.66-4.72,15.27-10.29,8.09,5.62,18.15,11.77,31.27,19.79,29.58,18.08,45.88,27.85,60.09,27.39,2,.07,3.94-.06,5.87-.39,9.7-1.66,19.27-9.46,38-25,.93-.77,20.82-17.35,31.73-27.36,4.66,3.53,12.43,7.66,14.81,8.86,3.96,2,5.96,2,12.96,7,0,0-1.43,1.68-2,2Z"/>
      <path class="cls-11" d="m453.91,315.2c-2.23,7.71-5.35,19.03-9.56,38.12-.9,4.08-1.85,8.51-2.85,13.34-3.74,18.06-6.13,31.65-8.04,42.38-4.34,24.34-6.24,33.95-15.96,47.62-2.29,3.22-4.92,6.34-8.06,9.63-1.24,1.29-3.05,3.02-5.21,5.01-10.91,10.01-30.8,26.59-31.73,27.36-18.73,15.54-28.3,23.34-38,25-1.93.33-3.87.46-5.87.39-13.76-.45-29.9-10.13-58.13-27.39-13.12-8.02-23.18-14.17-31.27-19.79-9.25-6.42-15.95-12.16-21.73-19.21-7.65-9.34-12.14-17.74-23.87-47.11-.99-2.47-2.03-5.1-3.13-7.89-4.48-11.38-8.37-21.24-11.68-29.73-4.94-12.63-8.63-22.24-11.19-29.36-2.14-5.94-3.49-10.14-4.13-12.91-8.41-36.37-7.97-101.71,33-144,53.31-55.02,155.99-51.13,213,0,2.33,2.09,47.84,44.08,49,103,.2,10.26-1.09,13.48-4.59,25.54Z"/>
      <path class="cls-10" d="m453.91,315.2c-2.23,7.71-5.35,19.03-9.56,38.12-.9,4.08-1.85,8.51-2.85,13.34-3.74,18.06-6.13,31.65-8.04,42.38-6.2-2.38-13.57-4.42-21.96-5.38-6.07-.69-15.71-1.82-27,1-23.55,5.89-25.08,21.63-44.5,27.5-18.4,5.56-36.37-2.72-50-9-27.27-12.57-28.65-20.21-46-24-10.92-2.38-20-2-50.37,11.39-.99-2.47-2.03-5.1-3.13-7.89-4.48-11.38-8.37-21.24-11.68-29.73-4.94-12.63-8.63-22.24-11.19-29.36,61.15-34.4,114.49-43.36,146.87-45.91,51.28-4.05,107.57,3.39,139.41,17.54Z"/>
      <path class="cls-19" d="m558.5,370.66c-15.06-33.94-35.44-66.87-87-126-66.32-76.06-64.52-58.3-127-130-29.05-33.34-34.08-42.49-48-44-32.86-3.56-49.43,42.64-140,165-26.13,35.31-52.66,69.16-78,124-28.39,61.43-25.51,84.73-17,99,2.53,4.25,8.57,12.74,56,31,29.99,11.56,47.19,15.71,62.03,19.39,1.83.45,3.62.9,5.4,1.35,6.69,1.71,13.15,3.5,20.42,6.06.53.18,1.07.37,1.61.57h0c6.06,2.2,12.72,4.95,20.54,8.63,7.31,3.44,13.83,6.51,19.8,9.41,19.17,9.32,32.64,16.92,48.2,29.59,17.71,14.41,23.41,23.38,36,24,19.11.94,30.34-18.5,55-42,8.04-7.66,15.79-14.13,23.51-19.87,10.36-7.73,20.64-14.15,31.41-20.42.49-.29.99-.57,1.48-.86,3.13-1.81,6.31-3.61,9.54-5.43h.01c1.65-.94,3.32-1.88,5-2.82.35-.21.7-.4,1.05-.6,65.8-36.99,100.57-25.26,114-53,2.66-5.49,8.84-21.52-14-73Zm-58,78c-6.71,19.84-29.33,19.28-60.81,35.43-1.84.94-3.72,1.94-5.62,3.01-.69.39-1.39.78-2.09,1.19-.4.23-.8.46-1.2.71-7.07,4.17-14.52,9.27-22.28,15.66-.21.17-.43.35-.65.53-1.02.85-2.17,1.82-3.44,2.91-.53.45-1.08.93-1.66,1.42-.37.33-.76.67-1.15,1.01-.4.35-.8.7-1.21,1.06-.29.25-.59.51-.88.77-.3.27-.61.54-.91.81-2.58,2.28-5.42,4.85-8.47,7.66-.44.4-.88.8-1.32,1.22-.88.81-1.78,1.65-2.7,2.51-.61.57-1.22,1.15-1.84,1.73-.09.09-.19.18-.28.27-.55.52-1.11,1.05-1.67,1.58-.56.53-1.12,1.07-1.69,1.61-.05.05-.11.1-.16.15-.83.8-1.67,1.61-2.52,2.43-1.99,1.92-4.02,3.91-6.08,5.96l-1.79,1.79c-.53.52-1.05,1.05-1.58,1.58-23.65,23.84-28.35,32.39-39,33-15.94.91-20.77-17.39-47-40-.56-.48-1.11-.95-1.67-1.41-.46-.39-.92-.77-1.39-1.14-1.1-.91-2.21-1.79-3.33-2.64-.64-.49-1.29-.97-1.94-1.45-1.54-1.14-3.1-2.24-4.69-3.31-.76-.51-1.52-1.01-2.29-1.51s-1.54-.99-2.33-1.48c-1.26-.79-2.54-1.57-3.86-2.33-.52-.31-1.05-.62-1.58-.92-4.77-2.73-9.89-5.38-15.54-8.08-7.27-3.49-15.41-7.08-24.77-11.06-.48-.2-.97-.41-1.46-.62-2.94-1.25-6-2.53-9.19-3.87-1.66-.7-3.37-1.42-5.11-2.14-1.58-.67-3.2-1.35-4.85-2.04-45.33-18.97-58.39-18.45-64-32-9.86-23.83,17.86-56.05,29-69,4.22-4.91,9.31-10.82,15.32-16.73,13.91-13.71,32.82-27.5,57.68-29.27,38.4-2.74,70,69,98,67s43.41-65.6,77-66c12.44-.15,23.39,3.33,32.85,8.66,23.95,13.49,38.33,38.85,43.15,47.34,9.36,16.5,18.31,32.29,13,48Z"/>
      <path class="cls-17" d="m338,440.32c0,2.3-3.43,4.55-7.66,5.03s-7.66-.99-7.66-3.29,4.1.58,8.33.1,7-4.14,7-1.84Z"/>
      <path class="cls-14" d="m193.5,1024.66c-5.55,36.29-11.55,75.46-29,126-7.43,21.53-17.41,46.46-30.92,73.44-3.74-.93-7.74-1.74-12.04-2.44-26.19-4.25-41.96-3.99-63.82-13.57,23.54-28.76,40.25-55.1,51.78-75.43,13.42-23.66,42.7-79.5,60-157,13.33-59.68,13.04-103.04,19-103,5.36.04,9.58,35.14,11,56,1.44,21.09,1.39,47.72-6,96Z"/>
      <path class="cls-18" d="m577.52,1201.52c-13.98,5.85-25.15,7.92-35.75,9.04-8.4-12.22-17.03-26.18-25.27-41.9-26.57-50.65-35.81-94.02-43-129-14.36-69.91-12.71-124-11-124,1.5,0,5.73,23.73,10.84,51.22,5.12,27.5,11.12,58.74,16.16,73.78,18.34,51.64,30.87,82.05,58,121,10.42,14.96,20.55,28.3,30.02,39.86Z"/>
      <path class="cls-5" d="m447.17,1282.76c-8.46-2.12-17.46-3.72-31.81-5.5-6.32-.78-15.78-.78-27.82.4-7.25.71-15.56,1.8-21,8-.88,1-1.6,2.04-2.18,3.09-2.73-17.81-5.7-37.25-8.86-58.09-14.06-92.68-16.01-107.54-18-129-6.36-68.45-5.11-116.61-2-154,2.74-32.96,8.96-82.12,15-82,3.29.07,5.11,14.71,11,54,4.15,27.69,9.27,55.25,13,83,6.72,50.01,22.48,105.34,54,216,5.11,17.92,11.35,39.49,18.67,64.1Z"/>
    </g>
    <g id="outline">
      <path class="cls-21" d="m528.95,796.36c4.91,29.52,6.77,59.47,11.7,88.97,2.81,19.16,14.35,67.95,18.47,87.73,10.61,48.61,21.56,97.29,40.27,143.5,6.11,15.55,11.91,31.33,19.75,46.08,12.49,24.51-46.26,46.4-64.1,48.85-5.02.9-10.07,1.46-15.08,1.87,0,0,1.81-3.73,1.81-3.73,7.17,12.56,16.44,24.74,18.17,39.54.41,5.08-.03,10.72-2.48,15.27-3.42,6.04-8.76,10.32-14.42,13.95-22.31,13.85-49.9,16.48-75.27,11.58-6.28-1.16-12.33-3.38-18.49-4.96-10.58-2.81-21.6-4.39-32.48-5.71-7.72-.83-15.52-.41-23.31.28-8.89.99-18.5,1.48-23.72,9.05-3.38,4.79-2.72,10.59-2.05,16.36.57,4.83,1.11,10.72-.88,15.7-10.11,24.54-66.89,18.41-88.75,16.41-25.36-2.72-50.33-7.75-75.29-12.91-13.97-3.01-28.09-6.31-41.72-11.09-15.57-5.41-31.19-13.92-39.89-28.53-7.21-10.62,9.59-48.34,13.76-60.8,0,0,1.36,2.58,1.36,2.58-5.36-1.28-10.78-2.16-16.29-2.91-16.69-2.41-33.76-3.14-50-8.29-4.76-1.45-9.5-3.32-14.03-5.36-5.93-2.92-10.98-6.96-16.27-10.76-11.49-8.8-33.58-26.29-35.5-40.75-.5-5.44,1.26-10.96,3.16-15.87,2.15-5.43,4.77-10.47,7.4-15.46,7.94-14.75,16.36-29.22,23.65-44.25,41.69-91.26,75.12-186.48,99.92-283.7.2-.8,1.01-1.3,1.81-1.1.79.19,1.28.99,1.11,1.78-4.81,21.86-10.39,43.56-16.49,65.1-19.76,70.06-44.32,138.71-73.23,205.52-8.91,20.61-20.02,40.21-30.72,59.87-2.59,4.89-5.13,9.79-7.1,14.75-1.59,4.12-3.01,8.26-2.75,12.6.34,2.88,1.81,5.4,3.48,8.08,7.71,11.14,18.4,19.86,29.11,28.35,6.51,4.93,12.85,9.95,20.59,12.76,23.03,9.92,49.08,9.11,73.13,15.81,0,0,2.07.57,2.07.57l-.7,2.01c-4.07,11.94-8.31,23.91-11.55,36.06-1.42,5.68-3.02,12.05-2.36,17.72.16,1.29.58,2.34,1.34,3.32,2.36,3.65,5.56,7.3,8.82,10.17,8.03,7,18.12,11.53,28.19,14.96,13.35,4.48,27.16,7.52,41.07,10.33,36.95,7.17,74.46,14.51,112.22,14.18,12.67-.39,33.16-1.21,42.08-10.69,5.89-7.23,1.46-16.92,2.81-25.66.66-7.23,5.68-13.95,12.38-16.81,6.26-2.8,12.91-3.08,19.49-3.58,6.39-.43,12.81-.66,19.28-.31,12.73,1.09,25.47,3.16,37.92,6.12,6.14,1.47,12.06,3.58,18.29,4.65,21.3,3.74,43.88,1.96,63.61-7.14,8.28-4.01,20.19-10.8,22.45-20.14,2.28-8.86-.78-17.96-4.67-25.95-4.04-8.22-9.1-16.05-14.76-23.33,11.2-.97,22.48-2.48,33.05-6.08,12.88-4.27,56.36-22.22,45.02-39.26-7.47-14.56-13.19-29.89-19.12-45.09-25.88-65.23-37.18-134.84-52.12-203.04-6.42-29.31-9.36-59.27-12.3-89.06-1.08-9.9-2.34-19.77-3.78-29.63-.12-.82.45-1.58,1.27-1.7.81-.12,1.57.44,1.7,1.25h0Z"/>
      <path class="cls-21" d="m464.55,983.57c3.81,19.77,6.63,39.7,11.15,59.32,4.32,19.63,9.96,38.93,15.85,58.14,10.06,33.61,23.47,66.15,42.54,95.63,2.7,4.24,5.32,8.53,7.59,13.05,1.19,2.35-2.07,4.65-3.85,2.48-3.95-4.94-7.56-10.18-10.84-15.58-23.44-37.86-36.98-80.64-47.72-123.52-4.99-19.58-8.88-39.42-11.89-59.39-1.41-9.9-2.88-20.38-2.83-30.15h0Z"/>
      <path class="cls-21" d="m135.39,1223.91c-.21-1.13.32-1.99.57-2.96l.91-2.84c1.8-5.53,3.66-11.52,5.5-16.99,18.59-52.21,34.45-105.45,45.66-159.75.17-.81.96-1.33,1.77-1.17.79.16,1.31.92,1.18,1.71-1.29,7.88-2.81,15.67-4.4,23.46-10.97,52.49-25.52,104.46-45.8,154.15,0,0-1.12,2.76-1.12,2.76-.42.9-.56,1.9-1.45,2.64-.98.84-2.61.25-2.82-1.02h0Z"/>
      <path class="cls-21" d="m257.59,608.74c-2.08,4.53-5.44,7.97-8.55,11.73-4.23,5.26-9.23,11.7-13.1,17.22-6.82,9.75-13.21,20.1-17.34,31.3-1.63,4.4-2.88,9.12-3.41,13.76-.69,5.28-.1,10.62,1.19,15.79.21,1.61,1.35,2.6,2.68,3.68,5.69,4.28,12.33,7.28,18.76,10.37,21.96,10.02,44.42,18.8,67.06,27.2,12.14,4.93,39.67,13.85,45.6,25.32.14.33.33.63.43,1.01l.32,1.08c1.34,6.35,2.05,12.82,1.85,19.34-.34,14.84-6.07,29.17-12.72,42.08-4.33,8.68-8.85,17.27-13.79,25.67-9.09,14.92-22.75,37.26-40.27,42.64-3.22.92-6.9,1.05-10.24.25-.96-.2-4.36-1.32-5.43-1.6-2.29-.86-4.76-1.75-6.96-2.84,0,0-3.38-1.63-3.38-1.63l-3.25-1.83c-8.62-4.98-16.3-11.04-23.92-17.01-13.35-10.84-32.15-25.42-45.72-35.51-27-20.37-55.75-38.38-83.01-58.43-7.93-6.02-15.87-13.25-19.98-22.65-2.15-4.7-3.62-9.44-4.86-14.23-1.96-7.15-3.27-14.81-3.15-22.31.58-22.5,10.65-42.93,18.58-63.38,7.34-17.91,14.92-35.67,22.19-53.55,7.53-17.92,13.97-36.36,24.43-52.98,10.65-16.65,26.4-29.05,42.46-40.04.68-.47,1.62-.3,2.09.39.46.67.3,1.58-.34,2.06-27.1,19.78-40.46,34.22-52.88,65.71-13.96,35.93-29.05,71.62-42.59,107.67-6.9,19.25-10.31,34.77-4.51,54.78,2.28,9,5.42,17.59,11.97,24.28,6.4,6.69,14.5,12.28,22.08,17.7,31.8,21.98,63.98,43.67,94.12,67.98,13.22,10.07,31.57,26.72,45.73,34.96,0,0,3.05,1.76,3.05,1.76l3.14,1.54c.52.25,1.04.53,1.57.76,2.61,1.08,5.49,2.2,8.19,2.95,18.65,6.58,38.69-26.23,47.07-39.71,4.94-8.22,9.51-16.69,13.89-25.27,4.45-8.53,8.41-17.21,10.67-26.38,2.72-10.57,2.64-21.7.43-32.4-.15-.45-.23-.92-.47-1.32-6.57-12.94-55.07-27.44-70.48-34.58-10.7-4.83-59.95-23.34-62.36-32.12-.19-.77-.46-1.93-.63-2.66-3.61-14.57,1.79-29.71,8.41-42.52,1.55-3.11,3.68-6.53,5.42-9.54,4.45-6.98,9.59-14.33,14.85-20.73,0,0,4.57-5.66,4.57-5.66,3.18-3.66,6.17-7.5,10.36-10.24.1-.08.25.06.19.17h0Z"/>
      <path class="cls-24" d="m208.47,494.84c16.99-10.59,30.76-17.97,30.76-17.97"/>
      <path class="cls-21" d="m418.16,601.42c4.34,6.86,9.86,17.72,13.86,24.96,6.71,12.6,13.73,25.2,18.95,38.55,3.39,8.41,6.16,17.6,5.54,26.82-.07.67-.22,1.61-.49,2.24-4.17,10.27-24.18,21.78-33.74,27.68-6.6,3.89-13.28,7.62-20.14,11.06-10.42,4.54-20.73,9.52-30.7,14.93-7.95,4.51-16.69,9.13-22.76,15.92,0,.02-.09-1.95-.09-1.95,4.83,5.76,4.83,13.79,4.76,20.86-.44,10.55-2.63,20.91-6.33,30.77-.3.78-.72,1.84-.68,1.91,0,0,0-.04,0,0,.03.06.07.18.15.33.16.3.38.67.6,1.04,10.31,19.58,20.47,39.82,36.07,55.77,6.97,7.07,15.28,13.04,25.32,13.31,6.52.14,12.18-3.57,17.41-7.3,18.67-14.29,38.11-30.28,55.99-45.46,20.7-17.86,41.39-36.1,59.9-56.25,10.95-12.54,23-24.93,29.89-40.14,1.88-4.42,2.88-9.1,3.4-13.89.6-4.88,1-9.78.57-14.62-.69-7.9-3.37-16.27-6.03-24.01-6.44-17.68-14.21-34.82-22.05-51.98-12.54-28.22-27.59-55.11-45.71-80.13-5.82-8.24-12.15-16.58-19.21-23.76-7.04-7.31-15.48-13.52-23.22-20.18,0,0-7.89-6.65-7.89-6.65-.66-.52-.76-1.5-.22-2.14.52-.62,1.43-.71,2.06-.22l16.36,12.64c5.5,4.14,11.01,8.51,16.06,13.36,7.51,7.2,14.31,15.43,20.46,23.79,10.21,13.89,20.25,28.26,28.8,43.27,13.73,24.12,25.22,49.26,36.24,74.74,5.29,13.16,10.79,26.14,12.41,40.53.53,5.47.16,10.94-.5,16.3-.59,5.48-1.79,11-3.96,16.1-7.29,16.36-20.17,29.44-31.78,42.21-2.09,2.23-5.06,5.4-7.24,7.47-27.15,26.65-56.95,50.53-86.87,73.94,0,0-16.32,12.7-16.32,12.7-8.5,6.22-17.33,14.32-28.62,14.1-2.6-.08-5.68-.7-8.17-1.43-7.87-2.35-14.36-7.71-19.98-13.42-9.73-10.11-17.3-21.9-24.2-34-4.6-7.87-8.19-16.17-12.65-24.08-.28-.6-.62-1.36-.53-2.11.11-1.25.58-1.97.94-2.98,3.65-9.44,5.87-19.56,6.38-29.65.11-6.59.28-14.75-4.68-19.65,0,0,.82-.98.82-.98,3.24-3.99,7.2-6.81,11.15-9.58,11.93-8.05,24.83-14.46,37.81-20.56,1.88-.9,4.58-2.02,6.38-2.96,10.43-5.54,20.75-11.37,30.6-17.88,5.79-3.91,11.59-7.93,16.41-12.94,1.82-2.03,3.52-3.93,3.85-6.35.05-.88.13-2.47.09-3.37-.19-9.91-4.08-19.25-7.75-28.38-6.23-14.99-14.48-30.17-21.73-44.77-2.14-4.25-4.41-8.42-6.28-12.81-.16-.38.01-.82.39-.98.34-.15.73-.02.92.28h0Z"/>
      <path class="cls-24" d="m434.07,487.11c-1.84-1.16-3.77-2.32-5.78-3.48-6.76-3.93-14.54-7.91-23.79-11.97"/>
      <path class="cls-21" d="m556.47,371.56c-20.41-46.85-53.11-86.82-86.26-125.21-15.86-18.11-32.11-36.19-49.61-52.72-15.63-14.72-32.22-28.67-47.06-44.28-7.49-7.76-14.8-15.7-21.96-23.77-10.34-11.56-21.51-24.92-31.68-36.61-9.94-11.25-17.82-19.74-34.2-15.59-11.93,3.77-20.39,14.05-28.21,23.43-26.29,33.98-49.14,70.58-74.49,105.29-24.72,35.16-52.19,68.48-74.65,105.14-11.19,18.3-21.21,37.31-30.01,56.87-4.26,9.44-8.71,19.99-12.09,29.76-6.29,18.78-13.74,42.65-4.62,61.41,2.17,4.74,5.88,8.19,10.25,11.01,4.36,2.93,9.06,5.44,13.83,7.83,19.25,9.29,39.45,16.89,59.75,23.6,20.81,7.07,42.7,10.46,63.37,18.03,0,0,0,1.3,0,1.31,0,0-1.22-1.73-1.22-1.73,10.04,3.58,19.7,8.16,29.29,12.71,9.57,4.53,19.17,9.09,28.53,14.2,14.09,7.59,27.23,17.01,39.19,27.63,12.17,10.56,21.86,22.53,39.36,14.11,9.06-4.82,16.11-13.02,23.24-20.41,7.23-7.72,14.61-15.44,22.51-22.61,15.7-14.43,33.51-26.49,51.95-37.08,18.38-10.74,37.12-21,57.21-28.21,14.92-5.66,30.47-9.31,45.64-13.93,7.33-2.39,14.53-5.12,20.01-10.5,5.3-5.23,8.5-12.33,8.56-19.84.22-10.27-2.31-20.59-5.34-30.42-3.12-9.99-7.05-19.76-11.28-29.4h0Zm4.07-1.81c6.37,14.67,12.28,29.73,15.41,45.51,1.59,8.66,2.6,18.08-.36,26.67-2.73,7.27-8.02,13.59-14.72,17.48-9.48,5.54-20.07,7.79-30.4,10.77-10.2,2.79-20.29,5.75-30.14,9.41-19.86,7.09-38.42,17.24-56.6,27.82-18.29,10.46-35.77,22.25-51.31,36.49-11.84,10.54-22.09,22.73-33.53,33.78-10.28,10.05-23.59,17.24-37.85,10.15-7.25-3.83-12.9-9.93-18.98-15.09-3.95-3.48-7.98-6.84-12.13-10.06-16.6-13.05-35.61-22.3-54.65-31.3-9.53-4.54-19.02-9.07-28.94-12.62,0,0-1.22-.44-1.22-.44v-1.29s1.22,1.73,1.22,1.72c-20.24-7.25-41.63-10.68-62-17.64-20.52-6.82-40.71-14.44-60.2-23.88-4.85-2.44-9.65-5-14.22-8.09-4.69-3.03-9.03-7.13-11.38-12.34-9.67-19.91-2.09-44.35,4.54-64.06,3.36-9.88,7.96-20.45,12.24-30.01,13.28-29.53,29.53-57.69,48.01-84.26,18.46-26.5,38.34-51.96,56.91-78.36,25.35-34.83,48.1-71.46,74.43-105.6,8.21-9.93,17.2-20.68,30-24.69,6.23-1.71,12.93-1.68,19.03.64,7.9,3.16,13.54,10,19.03,16,10.22,11.68,21.36,25.01,31.74,36.54,7.13,8.02,14.42,15.9,21.89,23.6,14.87,15.58,31.31,29.33,47.03,44.08,17.64,16.61,34,34.73,49.98,52.91,33.5,38.64,66.52,78.93,87.19,126.15h0Z"/>
      <path class="cls-23" d="m500.5,448.66c-7.1,21-32.03,19.15-66.43,38.45-8.04,4.5-16.6,10.17-25.57,17.55-7.5,6.17-23.16,20.02-40,37-23.65,23.84-28.35,32.39-39,33-15.94.91-20.77-17.39-47-40-18.33-15.8-37.85-24.63-74.03-39.82-3.19-1.34-6.51-2.73-9.97-4.18-45.33-18.97-58.39-18.45-64-32-9.86-23.83,17.86-56.05,29-69,4.22-4.91,9.31-10.82,15.32-16.73,13.91-13.71,32.82-27.5,57.68-29.27,38.4-2.74,70,69,98,67s43.41-65.6,77-66c12.44-.15,23.39,3.33,32.85,8.66,23.95,13.49,38.33,38.85,43.15,47.34,9.36,16.5,18.31,32.29,13,48Z"/>
    </g>
    <g id="face">
      <path class="cls-2" d="m279.91,452.31c2.23,2.15,5.51,3.22,8.41,4.29,3.07,1.04,6.21,1.88,9.38,2.62,9.51,2.19,19.22,3.45,28.94,4.11,6.4.76,12.87,1.41,19.3,1.29,3.16-.14,6.46-.28,9.17-1.57.75-.44,1.53.67.79,1.21-2.92,1.98-6.38,2.56-9.76,3.01-3.33.4-6.66.56-9.99.53-6.65.05-13.23-.7-19.71-2.14-6.49-1.2-12.92-2.66-19.25-4.51-4.75-1.38-9.52-2.88-13.95-5.16-1.47-.79-2.96-1.62-4.15-2.98-.2-.22-.17-.56.05-.76.23-.2.57-.17.76.06h0Z"/>
      <path class="cls-2" d="m334.1,431.54c3.53,1.32,6.14,5.55,4.8,9.33-1.36,3.77-5.86,4.79-9.36,4.94-.16,0-.22-.23-.06-.29,8.15-3.4,9.21-6.18,4.45-13.73-.1-.12.04-.3.18-.24h0Z"/>
      <path class="cls-2" d="m180.22,372.38c7.16,17.09,13.96,34.39,21.23,51.42,3.67,8.46,7.37,16.96,12.22,24.54,9.86,15.62,25.38,25.83,40.83,35.49,15.7,9.67,31.44,19.72,47.57,28.59,8.83,4.55,18.24,9.41,28.3,9.26,7.84-.03,14.46-4.37,20.76-8.87,7.36-5.41,14.44-11.42,21.61-17.32,13.94-11.86,29.11-23.05,40.77-37.12,2.4-3.01,4.7-6.48,6.67-9.78,7.14-12.51,8.88-26.91,11.64-40.97,1.68-9.13,3.37-18.27,5.21-27.38,1.63-8.11,4.04-19.13,5.87-27.26.18-.81.98-1.32,1.79-1.14.8.18,1.31.96,1.14,1.76-1.67,8.22-3.95,19.2-5.41,27.29-1.74,9.1-3.33,18.23-4.91,27.38-2.61,14.25-4.38,29.43-11.66,42.39-6.59,11.96-16.81,21.56-26.89,30.34-14.25,12.14-28.18,24.16-43.12,35.53-6.83,4.98-14.58,9.76-23.35,9.8-11.05.24-21.19-4.81-30.69-9.67-16.44-8.93-32.06-18.81-47.98-28.58-15.86-9.85-32.21-20.87-42.2-37.18-5.06-8.15-8.68-16.81-12.29-25.39-6.99-17.27-13.41-34.66-19.91-52.06-.29-.78.1-1.64.88-1.93.76-.29,1.61.09,1.91.84h0Z"/>
    </g>
  </g>
</svg>