<?xml version="1.0" encoding="UTF-8"?>
<svg id="life_copy" data-name="life copy" xmlns="http://www.w3.org/2000/svg" xmlns:xlink="http://www.w3.org/1999/xlink" viewBox="0 0 400 400">
  <defs>
    <style>
      .cls-1 {
        fill: url(#radial-gradient-8);
      }

      .cls-1, .cls-2, .cls-3, .cls-4, .cls-5, .cls-6, .cls-7, .cls-8, .cls-9, .cls-10, .cls-11, .cls-12, .cls-13, .cls-14 {
        stroke-width: 0px;
      }

      .cls-2 {
        fill: #fff;
        filter: url(#outer-glow-2);
      }

      .cls-4 {
        fill: none;
      }

      .cls-5 {
        fill: #f1626e;
      }

      .cls-6 {
        fill: url(#radial-gradient-2);
      }

      .cls-7 {
        fill: url(#radial-gradient-7);
      }

      .cls-8 {
        fill: url(#radial-gradient-5);
      }

      .cls-9 {
        fill: url(#radial-gradient);
      }

      .cls-10 {
        fill: url(#radial-gradient-10);
      }

      .cls-11 {
        fill: url(#radial-gradient-6);
      }

      .cls-12 {
        fill: url(#radial-gradient-9);
      }

      .cls-13 {
        fill: url(#radial-gradient-3);
      }

      .cls-14 {
        fill: url(#radial-gradient-4);
      }
    </style>
    <clipPath id="clippath">
      <rect class="cls-4" x=".5" y="751" width="1920" height="1080"/>
    </clipPath>
    <radialGradient id="radial-gradient" cx="204.44" cy="198.91" fx="204.44" fy="347.48" r="174.42" gradientTransform="translate(0 -41.32) scale(1 1.21)" gradientUnits="userSpaceOnUse">
      <stop offset="0" stop-color="#ffc"/>
      <stop offset=".11" stop-color="#fff8c1"/>
      <stop offset=".29" stop-color="#ffe7a6"/>
      <stop offset=".4" stop-color="#ffdb94"/>
      <stop offset=".46" stop-color="#fdce8e"/>
      <stop offset=".67" stop-color="#f8a67d"/>
      <stop offset=".84" stop-color="#f68d72"/>
      <stop offset=".94" stop-color="#f5846f"/>
    </radialGradient>
    <radialGradient id="radial-gradient-2" cx="93.66" cy="296.77" fx="93.66" fy="296.77" r="35.81" gradientTransform="matrix(1,0,0,1,0,0)" xlink:href="#radial-gradient"/>
    <radialGradient id="radial-gradient-3" cx="96.15" cy="196.8" fx="96.15" fy="196.8" r="20.98" gradientTransform="matrix(1,0,0,1,0,0)" xlink:href="#radial-gradient"/>
    <radialGradient id="radial-gradient-4" cx="183.52" cy="45" fx="183.52" fy="45" r="13.78" gradientTransform="matrix(1,0,0,1,0,0)" xlink:href="#radial-gradient"/>
    <radialGradient id="radial-gradient-5" cx="166.75" cy="13.79" fx="166.75" fy="13.79" r="7.64" gradientTransform="matrix(1,0,0,1,0,0)" xlink:href="#radial-gradient"/>
    <radialGradient id="radial-gradient-6" cx="224.57" cy="93.66" fx="224.57" fy="93.66" r="12.32" gradientTransform="matrix(1,0,0,1,0,0)" xlink:href="#radial-gradient"/>
    <radialGradient id="radial-gradient-7" cx="252.74" cy="153.42" fx="252.74" fy="153.42" r="30.29" gradientTransform="matrix(1,0,0,1,0,0)" xlink:href="#radial-gradient"/>
    <radialGradient id="radial-gradient-8" cx="293.27" cy="158.04" fx="293.27" fy="158.04" r="7.49" gradientTransform="matrix(1,0,0,1,0,0)" xlink:href="#radial-gradient"/>
    <radialGradient id="radial-gradient-9" cx="294.3" cy="210.55" fx="294.3" fy="210.55" r="11.69" gradientTransform="matrix(1,0,0,1,0,0)" xlink:href="#radial-gradient"/>
    <radialGradient id="radial-gradient-10" cx="335.16" cy="296.24" fx="335.16" fy="296.24" r="31.72" gradientTransform="matrix(1,0,0,1,0,0)" xlink:href="#radial-gradient"/>
    <filter id="outer-glow-2" filterUnits="userSpaceOnUse">
      <feOffset dx="0" dy="0"/>
      <feGaussianBlur result="blur" stdDeviation="15"/>
      <feFlood flood-color="#fff" flood-opacity="1"/>
      <feComposite in2="blur" operator="in"/>
      <feComposite in="SourceGraphic"/>
    </filter>
  </defs>
  <g id="flame_copy" data-name="flame copy">
    <path class="cls-9" d="m156.98,358.12c-3.41-.52-8.2-1.45-13.75-3.17-18.72-5.81-30.29-15.77-32.79-17.98-5.97-5.28-9.85-10.26-11.64-12.69-1.78-2.42-6.25-8.6-9.52-16.93-7.66-19.52-3.58-37.83-2.12-43.37,2.33-8.84,4.3-16.33,10.58-23.27,3.57-3.95,7.64-6.74,9.52-12.69,1.56-4.95.83-9.61,0-12.69,2.04,1.35,4.96,3.69,7.41,7.41,3.76,5.7,4.16,11.23,4.23,12.69.18,3.65-.49,6.61-1.06,8.46,3.49-1.6,9.43-5,13.75-11.64,4.55-6.99,4.98-14,5.29-19.04.38-6.22-.52-10.98-1.06-13.75-1.56-7.98-4.05-12.37-6.35-17.98-3.51-8.58-4.64-15.24-6.35-25.39-2.54-15.08-4.65-27.57,0-42.31,1.46-4.62,4.06-12.38,10.58-20.1,10.49-12.41,18.26-9.26,30.68-23.27,6.81-7.68,8.73-13.43,9.52-16.93,1.44-6.33.68-11.7,0-14.81,2.84,5.98,6.74,16.45,6.35,29.62-.15,5.17-.33,11.07-3.17,17.98-3.06,7.44-6.33,9.06-8.46,16.93-1.72,6.33-1.31,11.58-1.06,13.75.33,2.86,1.37,10.75,7.41,17.98.73.88,10.54,12.25,25.39,11.64,2.24-.09,7.97-.41,13.75-4.23,1.76-1.17,5.97-4.04,8.46-9.52,3.67-8.07.78-16.02,0-17.98,4.09,2.83,9.56,7.26,14.81,13.75,6.79,8.4,9.87,16.13,10.58,17.98,4.3,11.17,4.28,20.68,4.23,25.39-.1,8.66-1.67,15.42-4.23,26.45-2.7,11.62-4.4,14.62-4.23,22.22.11,4.89.32,10.93,4.23,16.93,4.51,6.92,11.24,9.61,13.75,10.58,11.17,4.29,24.5,1.83,33.85-5.29,10.92-8.31,13.27-20.55,14.81-28.56,2.29-11.93.44-21.9-1.06-27.5,5.33,15.47,8.57,28.6,10.58,38.08,2.77,13.06,4.26,20.32,4.23,30.68-.04,11.23-.24,24.37-8.46,37.03-4.88,7.52-10.86,12.19-14.81,14.81,2.58.26,6.77.35,11.64-1.06,5.68-1.65,9.57-4.56,11.64-6.35-3.36,13.22-8.81,22.79-12.69,28.56-4.73,7.04-11.06,16.46-23.27,23.27-11.32,6.31-22.25,7.34-28.56,7.41,2.08-1.44,7.74-5.75,10.58-13.75,2.32-6.56,1.56-12.25,1.06-14.81-1.48,2.32-5.7,8.27-13.75,11.64-6.36,2.66-12.03,2.42-14.81,2.12,2.87-2.74,8.68-9.04,11.64-19.04,2.6-8.78,1.76-16.25,1.06-20.1-2.55,2.68-8.56,8.22-17.98,10.58-3.88.97-14.04,3.51-23.27-2.12-8.52-5.19-11.02-14.14-12.69-20.1-.99-3.55-3.86-14.39,1.06-26.45,2.49-6.09,6.05-10.28,8.46-12.69-4.87.68-15.98,2.89-26.45,11.64-8.55,7.15-12.48,15.14-13.75,17.98-6.27,13.94-4.22,26.84-3.17,31.74-4.79-.78-14.37-3.03-23.27-10.58-7.58-6.43-11.15-13.69-12.69-16.93-2.37-4.96-3.58-9.45-4.23-12.69-1.9,13.67-.42,24.76,1.06,31.74,3.91,18.5,12.64,31.02,16.93,37.03,4.31,6.04,8.51,10.63,11.64,13.75Z"/>
    <path class="cls-6" d="m113.6,343.31c-3.1-.26-7.66-.99-12.69-3.17-9.69-4.21-14.97-11.12-16.93-13.75-7-9.4-8.25-18.95-9.52-28.56-1.31-9.9-.62-17.66,0-24.33.89-9.55,2.65-17.48,4.23-23.27-2.27,17.49-1.3,31.68,0,41.26,1.97,14.57,5.18,22.07,7.41,26.45,2.02,3.97,5.17,10.03,11.64,15.87,5.93,5.35,11.99,8.1,15.87,9.52Z"/>
    <path class="cls-13" d="m98.79,225.89c2.43-10.25.92-16.89-1.06-21.16-1.24-2.68-2.5-4.07-4.23-8.46-1.3-3.32-3.04-7.86-3.17-13.75-.14-6.19,1.56-11.32,3.17-14.81-2.33,6.69-1.9,11.57-1.06,14.81,1.81,6.95,6.2,8.91,8.46,17.98,1.06,4.24,1.07,7.7,1.06,9.52-.03,6.96-1.79,12.49-3.17,15.87Z"/>
    <path class="cls-14" d="m188.71,62.98c1-8.39-.07-14.98-1.06-19.04-1.8-7.4-4.53-10.73-5.29-11.64-2.23-2.66-4.65-4.32-6.35-5.29,2.09.18,5.46.81,8.46,3.17,5.17,4.07,5.82,10.6,6.35,15.87.35,3.43.49,9.55-2.12,16.93Z"/>
    <path class="cls-8" d="m170.73,23.84c-1.81-1.22-4.61-3.56-6.35-7.41-1-2.21-2.39-5.3-1.06-8.46,1.06-2.52,3.29-3.77,4.23-4.23-.61,1.88-1.31,4.84-1.06,8.46.4,5.75,2.94,9.83,4.23,11.64Z"/>
    <path class="cls-11" d="m235.26,107.41c-3.35-1.72-7.83-4.65-11.64-9.52-1.94-2.48-4.39-5.69-5.29-10.58-.56-3.08-.3-5.7,0-7.41-1.29,1.62-3.51,4.88-4.23,9.52-1.29,8.33,3.26,14.59,4.23,15.87-1.04-2.52-.98-4.63,0-5.29.63-.42,1.53-.17,2.12,0,2.42.71,3.83,2.67,4.23,3.17,1.34,1.71,4.13,3.6,10.58,4.23Z"/>
    <path class="cls-7" d="m257.47,194.15c2.29-4.74,5.12-11.96,6.35-21.16,1.67-12.52-.51-22.08-1.06-24.33-.66-2.71-2.99-11.54-9.52-21.16-6.79-9.99-13.91-14.63-13.75-14.81.21-.24,13.71,7.19,21.16,22.22,4.8,9.68,5.11,18.64,5.29,23.27.61,16.07-4.68,28.79-8.46,35.97Z"/>
    <path class="cls-1" d="m287.09,149.72c1.76.94,4.8,2.85,7.41,6.35,3.16,4.25,3.98,8.53,4.23,10.58.53-1.77,1.31-5.41,0-9.52-.6-1.88-1.48-4.62-4.23-6.35-3.15-1.98-6.57-1.26-7.41-1.06Z"/>
    <path class="cls-12" d="m288.15,225.89c1.93-1.48,4.96-4.19,7.41-8.46,2.24-3.91,2.96-7.35,3.17-8.46,1.14-6.03-.14-11.06-1.06-13.75,1.38,3.03,4.03,10.03,2.12,17.98-.54,2.27-1.37,5.53-4.23,8.46-2.69,2.76-5.8,3.82-7.41,4.23Z"/>
    <path class="cls-10" d="m342.1,254.45c1.25,3.71,2.71,9.16,3.17,15.87.98,14.21-3.14,25.14-5.29,30.68-2.11,5.43-5.64,11.38-12.69,23.27-3.43,5.78-6.39,10.5-8.46,13.75,7.24-6.37,12.41-12.43,15.87-16.93,6.73-8.75,13.5-17.55,15.87-30.68.62-3.44,1.72-9.87,0-17.98-1.83-8.65-5.92-14.75-8.46-17.98Z"/>
  </g>
  <g id="heart_copy" data-name="heart copy">
    <path class="cls-5" d="m305.66,265.92c0,18.2-12.8,35.4-20.78,44.13l-80.28,80.96h-.1l-80.28-80.96c-7.99-8.72-20.78-25.93-20.78-44.13,0-29.95,22.22-54.22,49.64-54.22s51.43,20.91,51.43,52.22c0-31.31,24.1-52.22,51.51-52.22s49.64,24.28,49.64,54.22Z"/>
    <g id="eye_copy" data-name="eye copy">
      <path class="cls-2" d="m256.9,301.4s-23.44,24.4-52.36,24.4-52.36-24.4-52.36-24.4c0,0,23.44-24.4,52.36-24.4s52.36,24.4,52.36,24.4Z"/>
      <path class="cls-3" d="m212.83,301.4c0,15.29-7.63,23.7-8.29,24.4-.65-.69-8.29-9.11-8.29-24.4s7.63-23.7,8.29-24.4c.65.69,8.29,9.11,8.29,24.4Z"/>
    </g>
  </g>
</svg>