<?xml version="1.0" encoding="UTF-8"?>
<svg id="score_board" xmlns="http://www.w3.org/2000/svg" xmlns:xlink="http://www.w3.org/1999/xlink" viewBox="0 0 470 640">
  <defs>
    <style>
      .cls-1, .cls-2 {
        stroke-width: 0px;
      }

      .cls-2 {
        fill: none;
      }
    </style>
    <clipPath id="clippath">
      <rect class="cls-2" x="-443.5" y="749" width="1920" height="1080"/>
    </clipPath>
  </defs>
  <g id="score">
    <path class="cls-1" d="m245.12,163.46c.24,5.87.47,11.79.68,17.77,33.46,2.22,63.82,15.22,87.3,35.4,4.45-4.01,8.96-8.06,13.54-12.14-27.07-23.72-62.47-38.88-101.52-41.02Z"/>
    <path class="cls-1" d="m89.55,320.48c0-35.86,14.15-68.56,37.38-93.28-4.3-4.37-8.53-8.68-12.7-12.94-26.82,27.99-43.19,65.28-43.19,106.23s16.37,78.24,43.19,106.23c4.17-4.26,8.4-8.58,12.7-12.94-23.24-24.72-37.38-57.42-37.38-93.28Z"/>
    <path class="cls-1" d="m381.55,320.48c0,35.86-14.15,68.56-37.38,93.28,4.3,4.37,8.53,8.68,12.7,12.94,26.82-27.99,43.19-65.28,43.19-106.23s-16.37-78.24-43.19-106.23c-4.17,4.26-8.4,8.58-12.7,12.94,23.24,24.72,37.38,57.42,37.38,93.28Z"/>
    <path class="cls-1" d="m137.99,216.62c23.48-20.18,53.84-33.18,87.3-35.4.21-5.87.44-11.79.68-17.77-39.05,2.14-74.45,17.31-101.52,41.02,4.57,4.09,9.09,8.14,13.54,12.14Z"/>
    <path class="cls-1" d="m333.1,424.34c-23.48,20.18-53.84,33.18-87.3,35.4-.21,5.87-.44,11.79-.68,17.77,39.05-2.14,74.45-17.31,101.52-41.02-4.57-4.09-9.09-8.14-13.54-12.14Z"/>
    <path class="cls-1" d="m225.29,459.74c-33.46-2.22-63.82-15.22-87.3-35.4-4.45,4.01-8.96,8.06-13.54,12.14,27.07,23.72,62.47,38.88,101.52,41.02-.24-5.87-.47-11.79-.68-17.77Z"/>
  </g>
</svg>