<?xml version="1.0" encoding="UTF-8"?>
<svg id="timer" xmlns="http://www.w3.org/2000/svg" xmlns:xlink="http://www.w3.org/1999/xlink" viewBox="0 0 470 640">
  <defs>
    <style>
      .cls-1, .cls-2 {
        stroke-width: 0px;
      }

      .cls-2 {
        fill: none;
      }
    </style>
    <clipPath id="clippath">
      <rect class="cls-2" x="-443.5" y="749" width="1920" height="1080"/>
    </clipPath>
  </defs>
  <g id="Layer_18" data-name="Layer 18">
    <path class="cls-1" d="m226.84,497.24c2.29,50.1,5.37,95.78,8.71,136.44,3.92-47.74,6.74-93.38,8.71-136.48-3.05.14-6.12.22-9.21.22-2.75,0-5.48-.07-8.21-.18Z"/>
    <path class="cls-1" d="m244.25,142.89c-2.29-50.11-5.37-95.81-8.71-136.48-3.92,47.73-6.73,93.36-8.71,136.44,2.72-.11,5.45-.18,8.21-.18,3.09,0,6.16.08,9.21.22Z"/>
    <path class="cls-1" d="m99.64,441.27c-32.39,33.45-60.25,63.24-83.3,88.38,32.82-27.5,63.74-54.25,92.45-79.67-3.15-2.8-6.2-5.71-9.15-8.71Z"/>
    <path class="cls-1" d="m370.95,199.34c32.6-33.66,60.63-63.62,83.8-88.9-33.01,27.66-64.1,54.56-92.95,80.11,3.16,2.82,6.21,5.75,9.15,8.78Z"/>
    <path class="cls-1" d="m108.79,190.11c-28.71-25.42-59.63-52.17-92.45-79.67,23.05,25.14,50.91,54.93,83.3,88.38,2.94-3,5.99-5.91,9.15-8.71Z"/>
    <path class="cls-1" d="m361.8,449.54c28.85,25.55,59.94,52.45,92.95,80.11-23.17-25.27-51.2-55.24-83.8-88.9-2.94,3.03-5.99,5.96-9.15,8.78Z"/>
  </g>
</svg>