<?xml version="1.0" encoding="UTF-8"?>
<svg xmlns="http://www.w3.org/2000/svg" xmlns:xlink="http://www.w3.org/1999/xlink" viewBox="0 0 1186.27 1186.27">
  <defs>
    <style>
      .cls-1 {
        fill: #fff;
      }

      .cls-1, .cls-2 {
        stroke-width: 0px;
      }

      .cls-2 {
        fill: url(#linear-gradient-2);
      }

      .cls-3 {
        fill: none;
        stroke: url(#linear-gradient);
        stroke-miterlimit: 10;
        stroke-width: 40px;
      }
    </style>
    <linearGradient id="linear-gradient" x1="889.75" y1="1106.89" x2="296.52" y2="79.38" gradientUnits="userSpaceOnUse">
      <stop offset="0" stop-color="#aad7ce"/>
      <stop offset=".33" stop-color="#97d0c6"/>
      <stop offset=".66" stop-color="#6ac4ba"/>
      <stop offset="1" stop-color="#00a79f"/>
    </linearGradient>
    <linearGradient id="linear-gradient-2" x1="855.2" y1="1047.04" x2="331.07" y2="139.22" xlink:href="#linear-gradient"/>
  </defs>
  <g id="Layer_2" data-name="Layer 2">
    <circle class="cls-3" cx="593.14" cy="593.14" r="573.14"/>
  </g>
  <g id="Layer_2_copy" data-name="Layer 2 copy">
    <path class="cls-2" d="m1117.18,593.14c0,173.38-84.2,327.1-213.95,422.48-17.01,12.51-34.81,24.02-53.31,34.43-75.88,42.75-163.48,67.13-256.78,67.13-274.24,0-499.28-210.65-522.13-478.96-1.27-14.86-1.92-29.89-1.92-45.08,0-2.24,0-4.49.04-6.72,3.6-286.32,236.82-517.33,524.01-517.33s524.04,234.63,524.04,524.05Z"/>
  </g>
  <g id="Layer_1_copy" data-name="Layer 1 copy">
    <path class="cls-1" d="m932.89,955.48c-.13-.81-.48-1.78-.82-2.49-1.33-2.87-2.82-5.64-4.41-8.34-4.5-7.81-10.45-15.91-15.65-23.31-9-12.58-18.16-25.39-27.46-37.74-5.64-7.26-12.21-15.46-19.6-22.51l.81.32c2.2-5.81,4.18-11.65,5.9-17.64,1.77-6.23,3.11-12.58,5.13-18.71-9.9-6.23-22.99-15.19-33.14-20.83-11.26-6-21.95-12.85-33.31-18.71-3.51-1.76-7.08-3.4-10.64-5.02.09-1.3-.01-2.6-.13-3.89-.14-1.48-.35-2.97-.61-4.44-.5-2.95-1.22-5.85-2.13-8.7-.91-2.84-1.93-5.65-3.27-8.36-.65-1.35-1.4-2.68-2.25-3.95-.84-1.29-1.93-2.47-2.88-3.51-.95-1.03-1.62-2.24-2.19-3.56-.53-1.35-1.08-2.7-1.42-4.1-.76-2.8-.94-5.68-1.01-8.64-.08-2.96-.32-5.97-.83-8.92l-.36-2.17c-.12-.73-.24-1.47-.37-2.2-.28-1.48-.62-2.95-1.03-4.4-.84-2.9-2-5.73-3.59-8.34-.77-1.32-1.7-2.54-2.68-3.72-.54-.56-1.03-1.14-1.6-1.66l-1.74-1.52c-2.44-1.89-5.23-3.26-8.13-4.19-1.45-.51-2.94-.8-4.41-1.12-1.5-.22-2.99-.49-4.48-.58-5.99-.54-11.94-.23-17.85.16-1.98.13-3.95.29-5.92.45-.43-.23-1.02-.5-1.72-.89-4.89-7.39-10.94-14.33-15.75-21.8-3.13-4.66-6.24-9.88-9.79-14.27-4.84-6.16-11.46-10.73-18.32-14.29-.56-.29-1.12-.57-1.68-.85,3.13-.4,6.19-1.57,8.91-2.9,4.23-2.06,11.03-3.39,13.02-8.45.51-2.3-.1-4.88-.18-7.25-.27-3.13-.71-6.26-1.28-9.35,1.21-.67,2.43-1.35,3.63-2.15,1.12-.75,2.33-1.72,2.88-3.07.62-2.12.81-4.35,1.02-6.55.47-5.11.15-10.39-.88-15.4-.64-3.32-1.49-6.7-2.47-9.93-3.95-12.95-8.46-25.64-12.18-38.64-3.6-12.88-7.9-26.01-11.83-38.76-9.74-32.19-17.69-65.23-19.08-98.95-.31-6.71-.61-13.65-2.43-20.3-3.51-13.23-9.74-25.6-17.65-36.7-15.94-21.99-36.98-39.6-57.3-57.36-15.34-13.25-30.17-27.02-45.2-40.61-10.02-9.03-20.58-17.56-30.74-26.39-10.27-8.87-18.84-19.3-29.23-28.11-2.66-2.16-5.45-4.22-8.44-5.93-1.49-.92-3.32-1.65-5.12-1.92-5.32-.83-10.68,1.01-15.36,3.21-9.27,4.26-16.88,11.22-26.1,15.52-12.11,5.84-24.78,10.63-37.28,15.62-22.06,8.89-53.79,20.61-75.38,29.74-25.01,10.3-50.35,19.81-74.31,32.51-9.73,5.21-18.85,11.62-27.14,18.92-7.27,6.2-11.19,15.18-15.29,23.56-5.75,12.24-11.83,24.27-17.41,36.6-5.63,12.3-10.24,25.03-15.42,37.49-5.22,12.41-10.61,24.79-17.48,36.39-3.38,5.82-7.09,11.46-10.39,17.41-6.73,11.85-10.84,24.98-14.33,38.07-1.71,6.58-3.17,13.25-3.91,20.1-.79,7.78-.63,16.06,2.92,23.28.43.85.88,1.74,1.53,2.47,6.73,8.03,24.28,9.28,34.46,10.85,7.38.87,14.78,1.7,22.18,2.44-3.6,3.95-7.17,7.92-11.05,11.58-4.15,3.73-8.26,7.34-11.82,11.66-2.81-.01-5.62.09-8.44.32-11.66.51-23.27,2.14-34.64,4.78-2.26.37-4.29,1.92-5.08,4.1-4.61,13.88-7.86,28.41-9.04,43.06-9.52,5.78-19.32,11.08-29.22,16.22,22.85,268.31,247.89,478.96,522.13,478.96,93.3,0,180.9-24.38,256.78-67.13-6.48-16.48-11.82-33.4-16.25-50.56,3.27-.63,6.53-1.3,9.78-2.01.03,0,.06,0,.09-.02.06-.01.12-.02.18-.04.06,0,.11-.02.16-.03,39.42-8.42,33-8.8,53.35-12.72,6.83-1.31,12.9-2.87,17.85-4.44h0c-.92.12-1.86.24-2.8.36,2.88-.86,5.72-1.84,8.51-3.02,2.94-1.29,6.39-2.68,7.86-5.8,2.65-4.93,5.04-10.54,4.24-16.29ZM100.08,624.06c-3.26,2.04-6.63,3.96-10.19,5.88,3.43-2.07,6.84-4.18,10.22-6.33-.01.15-.02.3-.03.45Zm569.05,11.25c-1.46-.32-2.95-.84-4.46-.93.56-.45,1.11-.91,1.62-1.37,1.13-1.49,1.73-3.11,2-4.81.97-.27,1.93-.54,2.87-.82.62,2.33,1.26,4.66,1.96,7,.27.84.55,1.68.89,2.5-1.61-.58-3.23-1.11-4.88-1.57Z"/>
  </g>
</svg>