<?xml version="1.0" encoding="UTF-8"?>
<svg id="bg" xmlns="http://www.w3.org/2000/svg" xmlns:xlink="http://www.w3.org/1999/xlink" viewBox="0 0 1920 1080">
  <defs>
    <style>
      .cls-1 {
        fill: url(#linear-gradient);
      }

      .cls-1, .cls-2, .cls-3, .cls-4, .cls-5, .cls-6, .cls-7 {
        stroke-width: 0px;
      }

      .cls-8 {
        opacity: .31;
      }

      .cls-2 {
        fill: url(#linear-gradient-6);
      }

      .cls-3 {
        fill: url(#linear-gradient-5);
      }

      .cls-4 {
        fill: none;
      }

      .cls-5 {
        fill: url(#linear-gradient-2);
      }

      .cls-6 {
        fill: url(#linear-gradient-3);
      }

      .cls-9 {
        clip-path: url(#clippath);
      }

      .cls-7 {
        fill: url(#linear-gradient-4);
      }
    </style>
    <clipPath id="clippath">
      <rect class="cls-4" width="1920" height="1080"/>
    </clipPath>
    <linearGradient id="linear-gradient" x1="960" y1="737" x2="960" y2="0" gradientUnits="userSpaceOnUse">
      <stop offset="0" stop-color="#b1dbcd"/>
      <stop offset="1" stop-color="#00a59c"/>
    </linearGradient>
    <linearGradient id="linear-gradient-2" x1="1188.91" y1="667.1" x2="1188.91" y2="387.26" gradientUnits="userSpaceOnUse">
      <stop offset=".16" stop-color="#a4d7ca"/>
      <stop offset=".27" stop-color="#88cec2"/>
      <stop offset=".52" stop-color="#50bdb2"/>
      <stop offset=".73" stop-color="#28b1a7"/>
      <stop offset=".9" stop-color="#0fa9a0"/>
      <stop offset="1" stop-color="#06a79e"/>
    </linearGradient>
    <linearGradient id="linear-gradient-3" x1="1665.5" y1="840" x2="1665.5" y2="372" gradientUnits="userSpaceOnUse">
      <stop offset=".44" stop-color="#a4d7ca"/>
      <stop offset=".49" stop-color="#88cec2"/>
      <stop offset=".59" stop-color="#50bdb2"/>
      <stop offset=".67" stop-color="#28b1a7"/>
      <stop offset=".74" stop-color="#0fa9a0"/>
      <stop offset=".78" stop-color="#06a79e"/>
    </linearGradient>
    <linearGradient id="linear-gradient-4" x1="337.18" y1="730.82" x2="337.18" y2="393.91" xlink:href="#linear-gradient-2"/>
    <linearGradient id="linear-gradient-5" x1="1413.5" y1="782.5" x2="1413.5" y2="466.5" gradientUnits="userSpaceOnUse">
      <stop offset=".32" stop-color="#dab0a0"/>
      <stop offset=".51" stop-color="#d8ab9b"/>
      <stop offset="1" stop-color="#d5a392"/>
    </linearGradient>
    <linearGradient id="linear-gradient-6" x1="1231" y1="783" x2="1231" y2="467" gradientUnits="userSpaceOnUse">
      <stop offset="0" stop-color="#d5a392" stop-opacity="0"/>
      <stop offset=".16" stop-color="#ca9a8a" stop-opacity=".22"/>
      <stop offset=".45" stop-color="#bb8c7e" stop-opacity=".55"/>
      <stop offset=".69" stop-color="#af8276" stop-opacity=".79"/>
      <stop offset=".88" stop-color="#a87c70" stop-opacity=".94"/>
      <stop offset="1" stop-color="#a67a6f"/>
    </linearGradient>
  </defs>
  <g class="cls-9">
    <g id="backdrop">
      <rect id="sky" class="cls-1" width="1920" height="737"/>
      <g id="mountains" class="cls-8">
        <path class="cls-5" d="m795.91,536.7c93.63-36.08,100.73-65.2,178-80,58.43-11.19,71.08,2.26,131-16,39.89-12.16,45.75-21.61,107-44,53.46-19.54,80.19-29.31,108-30,45.69-1.13,61.66,17.5,144,54,29.28,12.98,94.83,41.72,173,61,82.26,20.29,93.59,9.16,162,32,53.09,17.72,90.79,39.29,120,56,43.21,24.72,79.4,51.82,150,105,31.46,23.7,57.01,43.62,74,57-636,.67-1272,1.33-1908,2,72.93-28.16,132.26-52.22,173-69,133.04-54.8,156.33-68.46,223-88,98.01-28.73,95.49-13.22,165-40Z"/>
        <path class="cls-6" d="m1598,596c98.6-44.76,98.48-59.91,187-94,53.18-20.48,55.42-15.86,134-45,79.98-29.66,93.78-40.42,144-56,35.39-10.98,87.31-23.87,154-29,1.67,150.33,3.33,300.67,5,451-371,5.67-742,11.33-1113,17,25.98-30.32,69.56-74.38,134-110,38.5-21.28,56.99-24.37,161-61,98.7-34.76,148.05-52.14,194-73Z"/>
        <path class="cls-7" d="m-134.78,621C-42.62,547.67,6.37,511.98,34.37,493c4.03-2.73,15.08-10.17,30.75-21,51.04-35.26,57.52-41.81,79.25-56,52.04-33.99,78.31-51.14,106.46-46,18.8,3.44,24.09,14.19,55.59,45,0,0,48,46.93,97,80,49.47,33.38,58.92,22.26,121.84,57,54,29.82,46.46,37.69,120.65,88,72.65,49.26,92.07,49.98,133.66,87,35.34,31.45,57.06,62.75,69.79,84-341.45-6-682.91-12-1024.36-18,13.41-57.33,26.81-114.67,40.22-172Z"/>
      </g>
      <g id="pyramid_a" data-name="pyramid a">
        <path class="cls-3" d="m1045.5,709.5l372-243c121.33,69.67,242.67,139.33,364,209-169,35.67-338,71.33-507,107-76.33-24.33-152.67-48.67-229-73Z"/>
        <path class="cls-2" d="m1417,467c-47.67,105.33-95.33,210.67-143,316-76.33-24.33-152.67-48.67-229-73l372-243Z"/>
      </g>
    </g>
  </g>
</svg>