<?xml version="1.0" encoding="UTF-8"?>
<svg id="bg" xmlns="http://www.w3.org/2000/svg" xmlns:xlink="http://www.w3.org/1999/xlink" viewBox="0 0 1920 1080">
  <defs>
    <style>
      .cls-1 {
        fill: url(#linear-gradient);
      }

      .cls-1, .cls-2, .cls-3 {
        stroke-width: 0px;
      }

      .cls-2 {
        fill: none;
      }

      .cls-3 {
        fill: url(#linear-gradient-2);
      }

      .cls-4 {
        clip-path: url(#clippath);
      }
    </style>
    <clipPath id="clippath">
      <rect class="cls-2" width="1920" height="1080"/>
    </clipPath>
    <linearGradient id="linear-gradient" x1="1139" y1="786" x2="1139" y2="624.8" gradientUnits="userSpaceOnUse">
      <stop offset=".75" stop-color="#e0bcae"/>
      <stop offset="1" stop-color="#d5a392"/>
    </linearGradient>
    <linearGradient id="linear-gradient-2" x1="1496.24" y1="736.76" x2="1496.24" y2="625" gradientUnits="userSpaceOnUse">
      <stop offset="0" stop-color="#d5a392"/>
      <stop offset="1" stop-color="#a67a6f"/>
    </linearGradient>
  </defs>
  <g class="cls-4">
    <g id="background">
      <path class="cls-1" d="m1099,713c2.25.25,7.58.82,14.64,1.4,7.69.63,17.3,1.26,28.36,1.6,31.44.95,54.92-1.05,77-3,40.75-3.6,72.09-9.3,86-12,23.28-4.51,45.21-8.76,74-18,22.25-7.14,41.49-14.98,71-27,22.46-9.15,30.3-12.91,47-18,10.93-3.33,27.1-8.18,49-11,30.32-3.9,53.22-1.53,58-1,6.97.77,7.76,1.19,40,8,44.59,9.42,47.58,9.56,66,14,10.96,2.64,26.43,6.57,45,12,.33,21,.67,42,1,63-306.67,21-613.33,42-920,63-104.67-20.67-209.33-41.33-314-62,99.91-23.08,183.49-30.73,244-33,77.52-2.91,143.93,2,157,3,29.82,2.29,64.17,4.93,101,10,28.61,3.94,44.07,5.62,75,9Z"/>
      <path class="cls-3" d="m1257,736c-.47-1.97,11.51-6.41,32-14,10.22-3.79,15.76-5.63,46-16,19.25-6.6,33-11.54,51-18,33.27-11.94,49.9-17.91,62-23,19.59-8.24,23.24-10.84,46-20,18.48-7.44,27.95-11.21,39-14,5.86-1.48,25.21-6.06,51-6,18.37.04,32.06,2.67,50,6,11.79,2.19,20.83,4.4,33.5,7.5,19.85,4.85,27.95,7.56,45,11,9.7,1.96,17.72,3.23,23,4-14.33,3-28.67,6-43,9l-64.5,13.5c-103.16,21.6-98.16,20.71-110,23-13.87,2.69-47.13,9.02-90,16-9.29,1.51-30.99,5-59,9-8.71,1.24-29.92,3.85-72,9-26.37,3.23-39.57,4.81-40,3Z"/>
    </g>
  </g>
</svg>